<svg xmlns="http://www.w3.org/2000/svg" width="168.402" height="526.559" viewBox="0 0 44.556 139.319" version="1.1"><g fill="#502d16" stroke="none" stroke-width="1.884" stroke-linecap="butt" stroke-linejoin="miter" stroke-opacity="1"><path d="M26.931 34.588c.042.173.726.84 1.163 1.464.55.785 1.768 2.498 1.768 2.498.135-.108-1.71-2.734-1.943-3.285-.134-.318.151-.964.151-.964z" fill="#502d16" stroke="none" stroke-width=".254"/><path d="M17.004 76.727c-.203 0-1.137-.602-1.95-.932-1.023-.415-3.26-1.34-3.26-1.34.076-.186 3.503 1.208 4.176 1.32.388.066 1.012-.444 1.012-.444zM9.801 64.225c-.167-.115-.595-1.141-1.077-1.874-.607-.922-1.926-2.953-1.926-2.953.17-.11 2.2 2.982 2.69 3.457.283.274 1.087.208 1.087.208zm1.28 3.6c.203 0 1.138-.602 1.95-.932 1.024-.415 3.262-1.34 3.262-1.34-.078-.186-3.504 1.208-4.177 1.32-.388.067-1.013-.443-1.013-.443z" fill="#502d16" stroke="none" stroke-width=".219"/><path d="M22.747 138.515c-.32-3.571-.11-10.382-.11-10.382-.245-14.771 1.047-66.743.908-70.325 1.002-28.281 1.12-12.19-.395-38.596 0 0 .092-5.273.24-8.71.06-1.37-.056-7.964.072-6.596 3 29.048 3.77 47.803 2.915 63.91-1.164 21.908 1.118 27.299.25 40.98-.746 11.736 2.376 17.675 1.9 27.688-.95 3.505-4.495 3.21-5.779 2.03z" stroke-width=".499"/><path d="M23.426 84.405c-.394-.816-.85-.89-.85-.89s-1.792-1.35-2.352-2.054c-.62-.783-1.282-3.333-2.01-4.432-1.616-2.433-3.126-3.032-4.278-4.787-.568-.865-.806-1.747-1.265-2.777-.484-1.09-.508-.89-1.672-3.39-.604-1.298-.464-1.572-.303-3.243.033-.334.47-10.044.352-9.72-.255.713-1.01 8.135-1.07 8.77-.149 1.618-.77 2.868-.124 4.194l1.822 3.737.693 1.954c.915 2.577 1.44 1.325 4.174 5.392.528.835 1.896 4.404 1.896 4.404s.122.632.722 1.232c0 0 1.3 1.024 1.347 1.142 1.726 1.989 1.52 2.203 2.931 3.473.433.467.16-2.645-.013-3.005zm2.911 33.198c.394-.47.851-.511.851-.511s1.791-.776 2.35-1.181c.622-.45 1.283-1.917 2.012-2.55 1.615-1.397 3.124-1.742 4.277-2.751.567-.497.806-1.004 1.264-1.596.485-.627.508-.512 1.672-1.95.605-.746.465-.903.303-1.864-.032-.192-.468-5.775-.352-5.588.256.41 1.012 4.677 1.07 5.04.15.932.772 1.65.125 2.413l-1.822 2.149-.694 1.123c-.914 1.482-1.44.762-4.173 3.1-.529.48-1.896 2.533-1.896 2.533s-.122.363-.722.708c0 0-1.3.589-1.348.656-1.726 1.144-1.52 1.267-2.93 1.997-.433.269-.16-1.52.013-1.727zM23.93 59.238c-.048.76-.384-1.43-.384-1.43s-1.183-1.935-1.53-2.325c-.387-.431-1.188-2.24-1.682-2.89-1.094-1.435-1.736-1.46-2.52-2.5-.388-.511-.668-1.135-1.056-1.81-.41-.711-.372-.548-1.33-2.17-.498-.841-.513-1.098-.838-2.46-.065-.271-.092-8.031-.057-7.742.076.635-.524 6.692-.4 7.208.318 1.316.393 2.482.91 3.334l1.46 2.399.677 1.33c.892 1.756.784.618 2.624 3.007.367.5 1.636 2.902 1.636 2.902s.506 1.463.843 1.757c.628.548 1.15 2.947 1.194 3.025 1.03 1.054.206-2.244.967-1.663.252.24-.47-.667-.49-.333z" stroke-width=".499"/><path d="M25.78 45.737s-.922.643-1.404.592c-1.044-.112-2.514-1.495-3.64-1.618-3.47-.38-8.32 1.303-8.594 1.425-.263.116-3.298 3.983-3.78 5.012-.273.586.31 2.014.026 2.262 0 0-.488-1.696-.23-2.344.61-1.535 2.541-3.922 2.541-3.922s.726-1.074 1.22-1.34c.822-.443 2.732-.85 2.732-.85l4.626-.672 1.065-.07s.696-.034 1.195.24c.337.185.636.393.96.647.584.46 1.311.813 1.84.682.38-.093.69-.986.69-.986zm.12 28.425s.75-.89.843-1.394c.206-1.093-.44-2.76-.22-3.94.68-3.633 3.318-8.483 3.488-8.755.163-.26 3.965-3.002 4.886-3.393.524-.223 1.452.528 1.721.26 0 0-1.16-.681-1.726-.482-1.344.472-3.708 2.225-3.708 2.225s-1.023.64-1.364 1.125c-.568.805-1.413 2.742-1.413 2.742l-1.804 4.723-.35 1.096s-.22.717-.15 1.263c.046.368.121.7.225 1.06.19.654.255 1.445.008 1.979-.178.384-.946.61-.946.61z" stroke-width=".499"/><path d="M25.78 45.737s-.705-.392-.91-.82c-.443-.927-.548-2.937-1.025-3.94-1.468-3.083-4.457-6.122-4.638-6.28-.173-.15-3.234-.431-3.896-.236-.376.11-.707 1.413-.945 1.323 0 0 .49-1.38.883-1.54.936-.38 2.854-.158 2.854-.158s.795-.018 1.14.237c.573.424 1.643 1.767 1.643 1.767l2.456 3.436.53.84s.34.555.46 1.125c.08.385.132.752.176 1.165.08.748.272 1.552.576 1.914.217.26.74.002.74.002zm.513 73.032s-.706-.392-.91-.82c-.443-.927-.548-2.937-1.025-3.94-1.468-3.084-4.458-6.122-4.638-6.28-.173-.15-3.235-.43-3.896-.236-.377.11-.707 1.413-.945 1.323 0 0 .488-1.38.883-1.54.936-.38 2.854-.158 2.854-.158s.795-.018 1.14.237c.573.424 1.643 1.767 1.643 1.767l2.456 3.436.53.84s.34.555.46 1.125c.08.385.132.752.176 1.165.08.748.272 1.552.575 1.914.218.26.741.002.741.002zm-.784-51.75s.613-.75.973-1.217c.17-.22.443-.622.723-.833.444-.334 1.376-.65 1.872-.966.631-.403 1.361-1.133 1.361-1.133s.944-1.09 1.66-1.62c1.363-1.003 2.952-1.93 4.634-2.723.994-.47 3.404-1.18 3.18-1.214 0 0-1.698.467-2.582.802-.406.153-.836.334-1.296.569-1.324.675-2.862 1.52-3.95 2.326-.307.227-.565.435-.847.652-.286.219-1.19 1.426-2.26 2.15-.55.372-1.762.724-1.962.887-.798.653-1.723 1.715-1.723 1.715zm-1.438 15.104s.224.3.68.26c.216-.018.612-.023.805-.13.304-.168.537-.716.817-.933.357-.277 1.051-.464 1.051-.464s1.053-.168 1.534-.446a7.985 7.985 0 0 0 2.377-2.145c.387-.52.873-1.99.935-1.801 0 0-.307 1.052-.564 1.554a3.5 3.5 0 0 1-.46.697c-.57.665-1.296 1.406-2.03 1.827-.207.118-.399.21-.598.315-.2.107-1.382.186-2.03.634-.335.23-.574.972-.725 1.042-.605.277-1.947.646-1.947.646zm.677 30.927c2.01-.427 1.892-.524 2.294-1.041a199.214 199.214 0 0 1 4.313-5.284c.442-.524 1.774-2.193 2.18-2.43.954-.552 2.136-.086 3.81-.212 1.323-.1-3.734-.377-3.97-.2-1.343 1.007-3.018 3.305-3.937 4.403-1.377 1.646-1.483 2.175-2.955 3.323-.623.485-1.735.48-1.735.48z" stroke-width=".499"/><path d="M25.204 75.91s1.9-.907 2.798-2.11c1.14-1.53 3.154-6.08 5.18-9.4.726-1.192 2.271-4.114 3.46-5.245.458-.435 1.151-.765 1.55-1.044.73-.511 1.634-.795 2.25-1.1 1.03-.508 1.913-.27 2.773-1.033.476-.422.903-.947 1.202-1.845.172-.517-1.089 1.258-1.653 1.374-2.126.438-4.253 1.04-6.204 2.22-1.857 1.124-3.289 5.01-4.98 7.938-1.198 2.07-2.38 5.175-3.694 6.617-.792.87-2.496 1-2.496 1zm.585-45.726s-2.022.413-3.27.755c-1.74.478-3.952.64-5.692 1.12-.947.262-1.344.503-2.29.767-1.19.33-2.29.306-3.575.642-1.342.352-4.27 1.42-4.27 1.42s-1.62-.035-2.26-.36c-.778-.393-1.569-1.801-1.569-1.801s1.236 1.12 2.244 1.434c.544.17 1.177.342 1.982.222 1.003-.15 1.926-.774 3.05-1.1.64-.185 1.98-.583 1.98-.583s-1.25-.224-1.982-.221c-1.027.004-3.305.334-3.305.334s-5.228.413-6.742.205c-.93-.128 5.63-.547 5.63-.547s3.4-.571 5.097-.575c1.156-.002 3.38.273 3.38.273s2.744-1.05 3.85-1.308c1.31-.305 2.116.063 3.191-.26 1.363-.411 2.994-1.787 2.994-1.787zm-1.313 27.202s.642-1.475 1.092-2.3c.63-1.15 1.15-3.05 1.782-4.196.343-.624.57-.755.913-1.377.433-.782.626-1.831 1.08-2.695.475-.903 1.7-2.577 1.7-2.577s.284-1.543.204-2.46c-.097-1.11-.824-3.231-.824-3.231s.462 2.252.466 3.5c.002.673-.01 1.432-.239 2.064-.284.785-.848 1.03-1.265 1.756-.238.413-.74 1.27-.74 1.27s.097-1.385.24-2.064c.196-.953.836-2.747.836-2.747s1.252-4.46 1.41-6.074c.098-.993-1.41 4.7-1.41 4.7s-1.005 2.604-1.33 4.18c-.22 1.074-.473 3.415-.473 3.415s-1.176 1.52-1.547 2.296c-.44.919-.364 2.032-.77 2.714-.515.864-1.683 1.029-1.683 1.029zm-2.025-.16s-1.208-.555-1.95-.811c-1.038-.358-2.366-1.251-3.403-1.606-.564-.193-.797-.144-1.36-.335-.71-.24-1.373-.79-2.138-1.07-.8-.291-2.539-.632-2.539-.632s-.976-.806-1.37-1.43c-.476-.757-.987-2.52-.987-2.52s.772 1.69 1.386 2.48c.332.425.717.896 1.2 1.16.6.33 1.14.156 1.81.37.381.122 1.18.368 1.18.368s-.759-.816-1.2-1.161c-.619-.485-1.983-1.244-1.983-1.244s-3.138-2.08-4.055-3.006c-.564-.57 3.376 2.14 3.376 2.14s2.035 1.056 3.057 1.86c.696.548 2.042 1.876 2.042 1.876s1.628.272 2.287.545c.782.322 1.276 1.068 1.916 1.26.811.246 1.76-.333 1.76-.333z" stroke-width=".499"/><path d="M24.66 34.905s1.887-.51 2.738-.18c.78.302 2.255 1.627 2.255 1.627s1.644-.712 2.42-.542c1.148.252 3.584 2.38 3.584 2.38s2.347 1 3.468.93c1.163-.073-1.842-.53-3.226-1.362-1.276-.77-2.38-2.203-3.748-2.524-.82-.193-1.573.567-2.384.334-.673-.193-1.157-1.194-1.695-1.524-.506-.31-.675-.073-1.203-.32-.32-.15-.796-.846-.796-.846zm.773 66.738s1.05-2.846 1.783-3.625c.673-.715 2.296-1.388 2.296-1.388s.79-2.72 1.398-3.55c.9-1.223 3.551-2.39 3.551-2.39s2.066-2.068 2.798-3.55c.76-1.535-1.502 1.855-2.834 2.856-1.228.922-2.647 1.027-3.73 2.468-.648.863-.809 2.5-1.47 3.317-.55.678-1.345.388-1.865.77-.49.362-.495.79-.969 1.236-.288.27-.937.245-.937.245zm-1.81-1.772c-.384-.111-3.41-1.197-5.327-1.402-.657-.07-1.303.026-1.795-.102-1.957-.51-3.17-.761-4.04-1.133-1.024-.437-1.298-2.186-.955-1.64.31.494.447 1.03 1.172 1.423.9.487 2.428.895 3.83 1.023.58.053 1.406.04 1.436-.15.057-.357.02-.715-.237-1.14-.123-.205-1.499-.394-1.752-.62-.49-.44-1.839-1.947-1.169-1.48.424.296.735.993 1.65 1.452.451.227 1.177.263 1.557.538.518.375.64 1.205 1.262 1.6.444.283 1.722.43 1.722.43l2.23.306zm.83-17.804s-.963-1.945-1.566-2.41c-.28-.215-.726-.01-1.024-.194-.525-.325-.863-1.198-1.38-1.536-.793-.515-1.705-.388-2.545-.55-.596-.113-1.15-.348-1.707-.21-.399.1-1.07.615-1.07.615-.312-.254.495-.668.884-.824.415-.167 3.46.307 3.46.307s.806.172 1.163.37c.603.338.773 1.047 1.35 1.408.295.184 1.086.16 1.086.16.207.152 1.523.033 1.346.423zm-.299 4.136s-2.52-.973-3.798-1.274c-1.428-.337-2.864.029-4.232-.573-1.104-.485-1.547-1.548-2.555-2.16-.846-.515-1.974-.65-2.792-1.188-.745-.49-1.242-1.294-1.739-1.738-.61-.546.663 1.253 1.306 1.783.56.462 2.056 1.08 2.056 1.08s-.695-.036-.956.055c-.348.122-.669.327-.718.623-.064.38.578 1.27.578 1.27.51.046-.325-.778-.187-1.081.1-.222.697-.443.697-.443s.843-.145 1.29.017c1.106.4 1.53 1.565 2.6 2.053 1.524.697 3.205.48 4.802.96.702.21 1.467.427 2.054.827.41.279.88.996.88.996zm5.49 21.9s2.173-.392 3.244-.817c.875-.347 1.69-.855 2.454-1.357 1.594-1.047 3.228-2.164 4.36-3.394 1.01-1.098 1.954-3.298 1.99-3.363.57-1.025-.857 2.275-1.806 3.424-.423.512-1.639 1.478-1.639 1.478s.92-.472 1.355-.735c.748-.454 2.13-1.455 2.13-1.455.435-.23-1.582 1.275-2.478 1.84-.45.285-.983.485-1.43.77-.983.625-1.73 1.4-2.706 2.03-.663.428-1.36.86-2.11 1.17-1.013.42-3.093.883-3.093.883zM27.917 48.55s1.944.925 3.058 1.152c.91.186 1.884.177 2.815.143 1.94-.071 3.96-.187 5.67-.72 1.524-.473 3.746-2.075 3.817-2.117 1.136-.67-2.206 1.729-3.718 2.29-.674.25-2.269.47-2.269.47s1.03.09 1.545.092c.886.003 2.63-.151 2.63-.151.492.037-2.085.305-3.16.322-.54.008-1.088-.116-1.627-.105-1.182.024-2.286.338-3.466.37-.802.023-1.633.028-2.42-.117-1.068-.198-2.986-.998-2.986-.998zm-3.355-17.02s2.404-.227 3.47-.706c.87-.393 1.586-1.052 2.245-1.711 1.375-1.375 2.76-2.854 3.487-4.606.65-1.564.653-4.894.663-4.99.158-1.53.138 3.466-.412 5.12-.245.738-1.206 2.055-1.206 2.055s.86-.583 1.246-.923c.665-.586 1.807-1.927 1.807-1.927.405-.284-1.24 1.742-2.026 2.478-.394.37-.93.59-1.32.963-.857.814-1.357 1.913-2.203 2.737-.575.56-1.19 1.12-1.928 1.476-.999.483-3.255.838-3.255.838zm7.544 33.425s5.818-4.09 5.884-3.521c0 0-2.666 1.896-3.592 2.667-1.097.914-2.463 2.402-2.463 2.402z" stroke-width=".499"/><g stroke-width=".45"><path d="M23.347 17.144s.91-1.673 1.47-2.432c.625-.847 1.616-1.37 2.072-2.312.368-.76.068-1.474.317-2.25.208-.65.77-1.257.95-1.904.164-.59.03-1.208.078-1.656.06-.551.275.908.188 1.468-.075.487-.594 1.5-.594 1.5s.37-.353.563-.436c.258-.111.543-.17.723-.054.231.148.33.876.33.876-.262.268-.22-.523-.452-.6-.17-.055-.618.13-.618.13s-.546.339-.713.63c-.413.723-.05 1.475-.397 2.22-.494 1.064-1.546 1.773-2.193 2.77-.284.438-.6.908-.723 1.38-.086.328.02.892.02.892z"/><path d="M26.656 12.856s-1.13-1.89-1.255-1.69c0 0 .513.875.67 1.22.187.408.355 1.042.355 1.042z"/></g><g stroke-width=".44"><path d="M21.763 22.65s-1.606-.844-2.44-1.121c-.933-.31-1.94-.07-2.805-.585-.698-.417-.89-1.266-1.512-1.78-.52-.43-1.27-.573-1.769-1.022-.454-.41-.71-1.056-1.002-1.421-.358-.45.323 1.006.705 1.443.332.38 1.282.914 1.282.914s-.466-.05-.652.013c-.247.084-.485.236-.548.467-.08.297.265 1.017.265 1.017.34.052-.142-.623-.019-.856.09-.172.516-.326.516-.326s.584-.087.87.054c.708.35.88 1.278 1.553 1.696.961.597 2.12.48 3.151.907.454.188.95.383 1.307.716.248.232.494.81.494.81z"/><path d="M16.946 21.185s-.274-2.492-.068-2.402c0 0 .132 1.145.217 1.565.1.497.342 1.183.342 1.183z"/></g><g stroke-width=".416"><path d="M14.97 73.26s-1.279-1.187-1.943-1.577c-.742-.435-1.543-.096-2.232-.822-.555-.585-.709-1.778-1.203-2.5-.414-.605-1.01-.805-1.407-1.436-.362-.575-.566-1.484-.798-1.997-.285-.63.257 1.414.56 2.028.265.535 1.021 1.284 1.021 1.284s-.37-.07-.519.018a.914.914 0 0 0-.435.656c-.065.417.21 1.429.21 1.429.271.073-.113-.875-.015-1.203.072-.241.41-.457.41-.457s.466-.123.693.076c.563.49.7 1.796 1.235 2.383.766.837 1.687.674 2.508 1.274.361.264.756.537 1.04 1.005.198.326.393 1.14.393 1.14z"/><path d="M11.136 71.2s-.218-3.5-.055-3.375c0 0 .106 1.61.173 2.2.08.698.273 1.66.273 1.66z"/></g><g stroke-width=".518"><path d="M19.85 52.13s-.23-1.435-.466-2.1c-.264-.743-.969-1.256-1.047-2.06-.064-.648.453-1.196.501-1.844.04-.544-.25-1.087-.185-1.627.06-.491.395-.977.508-1.344.138-.45-.563.708-.68 1.168-.103.4.008 1.266.008 1.266s-.208-.32-.352-.405c-.19-.113-.426-.187-.627-.111-.259.098-.602.676-.602.676.141.24.38-.401.614-.44.172-.03.507.16.507.16s.37.326.418.577c.117.62-.469 1.194-.419 1.828.071.904.764 1.575.995 2.44.101.38.22.79.165 1.182-.038.273-.33.718-.33.718z"/><path d="M18.386 48.36s1.67-1.42 1.712-1.246c0 0-.764.657-1.025.92a9.41 9.41 0 0 0-.68.81z"/></g><g stroke-width=".179"><path d="M25.412 27.703s-2.867-3.29-4.186-6.113c-1.423-3.045-3.565-10.11-4.248-11.933-.92-2.455 1.993 8.585 3.235 11.867 1.14 3.01 4.02 7.29 4.02 7.29z"/><path d="M19.78 19.93s-.938-2.994-1.535-4.011c-.644-1.097-1.1-1.52-1.45-2.092-.398-.65.37-.175.975.592.555.704 1.728 3.497 1.728 3.497z"/></g><g stroke-width="4.588"><path d="M23.954 16.528s.04-1.295-.122-2.116c-.204-1.043-.995-3.383-1.5-5.398-.18-.723-.655-2.365-.76-3.328-.042-.37-.027-.843-.04-1.138-.022-.542.032-1.12.042-1.542.018-.706.19-1.131.125-1.812A3.86 3.86 0 0 0 21.43.03c-.097-.234.15.942.102 1.285-.179 1.294-.319 2.633-.302 4.03.016 1.33.73 3.17 1.186 4.895.323 1.22.888 2.71 1.05 3.826.098.673-.118 3.077-.118 3.077z" stroke-width="1.214"/><path d="M21.852 8.327c-.068-.048-.617-.576-.929-.576-.107 0-.2.114-.285.062-.34-.208-.547-.292-.71-.485-.19-.227-.363-1.417-.27-1.065.085.319.146.68.288.898.175.27.442.44.67.425.092-.006.22-.076.21-.21a4.162 4.162 0 0 0-.12-.772c-.036-.132-.263-.161-.319-.3-.109-.267-.43-1.21-.29-.937.087.173.187.633.362.883.087.124.202.095.281.258.108.22.19.786.315 1.014.09.163.298.17.298.17l.368.046z" stroke-width="1.214"/><g stroke-width=".903"><path d="M21.313 5.324s.472-.553.627-1.046c.167-.532.301-1.785.364-2.106.085-.433-.029 1.532-.145 2.11-.107.53-.535 1.264-.535 1.264z"/><path d="M22.177 3.999s.064-.53.147-.706c.09-.19.17-.26.218-.358.056-.112-.09-.038-.185.092-.089.12-.213.61-.213.61z"/></g></g><g stroke-width="3.973"><path d="M25.131 32.333s-.036-1.098.233-1.787c.343-.875 1.635-2.827 2.47-4.514.298-.606 1.08-1.98 1.264-2.79.071-.312.058-.713.083-.963.046-.457-.026-.948-.034-1.307-.014-.598-.276-.965-.16-1.54.062-.317.172-.634.447-.973.157-.195-.253.79-.185 1.084.255 1.102.45 2.242.394 3.424-.052 1.126-1.21 2.657-1.965 4.1-.533 1.022-1.45 2.263-1.728 3.2-.167.567.123 2.61.123 2.61z" stroke-width="1.051"/><path d="M28.603 25.468c.108-.04.982-.466 1.473-.454.17.004.312.105.448.064.54-.164.867-.228 1.127-.385.305-.185.6-1.186.445-.891-.14.266-.242.57-.47.75a1.668 1.668 0 0 1-1.06.334c-.148-.008-.346-.073-.329-.185.033-.212.09-.42.207-.65.056-.11.414-.127.505-.241.177-.223.7-1.01.477-.784-.142.144-.308.529-.59.735-.139.1-.319.072-.447.207-.174.183-.312.66-.515.848-.145.134-.473.132-.473.132l-.58.026z" stroke-width="1.051"/><g stroke-width=".782"><path d="M29.511 22.945s-.732-.486-.966-.91c-.252-.456-.438-1.522-.53-1.796-.126-.37.015 1.298.186 1.792.157.453.816 1.09.816 1.09z"/><path d="M28.177 21.79s-.09-.451-.216-.603c-.136-.164-.26-.226-.337-.311-.086-.097.142-.03.29.085.137.104.323.524.323.524z"/></g></g><g stroke-width="2.82"><path d="M25.16 73.99s.996-.876 2.035-1.15c1.32-.347 5.012-.623 7.8-1.13 1.002-.181 3.416-.497 4.453-.943.4-.172.762-.492 1.035-.66.503-.306.87-.75 1.2-1.032.551-.472.53-1 1.24-1.332.392-.184.851-.323 1.563-.323.41 0-1.113.367-1.296.655-.69 1.086-1.503 2.142-2.709 2.997-1.147.813-4.248.89-6.692 1.287-1.729.28-4.213.364-5.5.82-.776.277-2.315 2.117-2.315 2.117z" stroke-width=".746"/><path d="M36.624 72.006c.19.072 1.834.57 2.518 1.042.234.162.342.375.573.472.921.385 1.444.644 1.962.768.608.146 1.981-.342 1.48-.262-.45.072-.887.208-1.38.13a4.569 4.569 0 0 1-1.82-.744c-.2-.146-.42-.382-.289-.451.25-.132.526-.238.912-.303.187-.032.708.293.947.29.461-.003 1.954-.112 1.421-.15-.337-.022-.94.116-1.534.007-.294-.053-.522-.245-.832-.263-.42-.024-1.07.21-1.537.163-.333-.033-.796-.345-.796-.345l-.846-.527z" stroke-width=".746"/><g stroke-width=".555"><path d="M40.316 70.93s-.572-1.063-.5-1.608c.08-.588.833-1.58.963-1.878.176-.401-1.217 1.01-1.446 1.55-.209.495.116 1.604.116 1.604z"/><path d="M39.528 68.786s.305-.43.271-.666c-.036-.254-.154-.42-.18-.556-.03-.156.228.11.33.339.094.209-.043.706-.043.706z"/></g></g><path d="M25.974 75.296s-2.425-.71-3.622-1.262c-1.413-.65-2.81-1.47-4.173-2.4-.984-.67-2.117-1.297-2.983-2.27-1.032-1.161-2.482-3.796-2.593-4.177-.075-.254-.394-3.148-.493-3.164 0 0 .13 1.055.186 1.557.038.338.14.96.075.96-.16.004-.467-.335-.573-.612-.073-.188.062-.522.013-.587-.047-.063-.156.31-.095.55.098.38.481.622.655.968.062.124.06.278.114.407.302.733 1.164 1.947 1.141 2.034-.057.217-.39.027-.554-.104-.282-.224-.437-.838-.722-1.026-.16-.106-.293-.062-.358.03 0 0 .214-.05.344.068.253.229.397.818.673 1.06.177.154.37.087.603.273.566.45.96 1.472 1.462 2.065.453.536 1.506 1.3 1.506 1.3s-.31.427-.533.4c-.443-.05-.85-.628-1.222-1.055-.285-.327-.56-.958-.752-1.126-.235-.207.036.307.335.786.15.237.304.466.408.594.37.456.787.946 1.272 1.019.297.044.445-.35.764-.328.774.055 1.571.964 2.307 1.546.132.104.166.397.343.43.122.022.155-.192.277-.156.413.12 1.776 1.354 2.705 1.81.595.293 1.208.34 1.808.58.307.124.912.444.912.444zm-.194-29.56s1.648-1.59 2.344-2.482a21.999 21.999 0 0 0 2.142-3.364c.443-.85 1.04-1.75 1.203-2.702.195-1.135-.125-3.265-.255-3.524-.087-.172-1.524-1.876-1.45-1.934 0 0 .512.628.762.924.168.2.45.582.504.55.138-.078.2-.413.127-.613-.05-.137-.362-.248-.359-.307.003-.057.317.088.407.247.142.25-.043.57.013.843.02.097.112.178.143.274.176.542.157 1.62.228 1.655.178.087.35-.18.412-.332.11-.26-.123-.665.01-.908a.312.312 0 0 1 .323-.163s-.213.08-.254.208c-.08.249.145.635.052.9-.06.173-.263.233-.353.449-.216.523.051 1.265-.026 1.832-.07.512-.516 1.446-.516 1.446s.515.073.69-.052c.348-.25.353-.76.42-1.174.05-.317-.089-.791-.025-.977.078-.228.15.182.178.587.014.2.017.4.004.52-.046.428-.112.899-.483 1.18-.227.17-.586.035-.846.206-.627.416-.77 1.3-1.054 1.977-.052.122.093.295-.04.4-.09.074-.244-.024-.328.056-.28.27-.715 1.61-1.238 2.317-.334.453-.83.784-1.2 1.213-.188.219-.516.692-.516.692z" stroke-width=".499"/><path d="M35.797 58.468c-.017-.202.505-1.183.767-2.02.33-1.054 1.065-3.361 1.065-3.361.192.06-.913 3.592-.97 4.27-.034.393.526.974.526.974z" fill="#502d16" stroke="none" stroke-width=".219"/><path d="M27.887 72.684c-.033-.193.112-1.267.145-2.142.04-1.102.137-3.516.137-3.516.102.017-.035 3.706.016 4.38.03.39.374.827.374.827z" fill="#502d16" stroke="none" stroke-width=".307"/><path d="M26.61 73.397c.147-.115 1.316-.336 2.175-.627 1.083-.366 3.463-1.16 3.463-1.16.094.139-3.533 1.364-4.115 1.686-.336.186-.378.797-.378.797z" fill="#502d16" stroke="none" stroke-width=".241"/><path d="M23.715 18.48s-.763-1.1-1.298-1.763c-.746-.928-1.368-2.176-2.117-3.103-.408-.504-.675-.694-1.084-1.198-.514-.633-.746-1.271-1.285-1.958-.563-.717-2.016-2.235-2.016-2.235s-.34-.94-.248-1.36c.113-.51.968-1.19.968-1.19s-.542.89-.544 1.52c0 .34.016.734.287 1.179.338.554 1.007.987 1.502 1.583.282.339.88 1.048.88 1.048s-.12-.756-.289-1.177c-.236-.592-.997-1.852-.997-1.852s-1.492-2.947-1.683-3.852c-.117-.557 1.681 3.156 1.681 3.156s1.193 1.87 1.582 2.847c.264.666.567 1.99.567 1.99s1.396 1.415 1.837 2.012c.522.706.435 1.229.917 1.797.612.72 1.994 1.442 1.994 1.442zm-.03 8.445s1.94-1.982 2.76-3.093a27.67 27.67 0 0 0 2.52-4.192c.521-1.058 1.224-2.18 1.416-3.366.23-1.414-.147-4.068-.3-4.39-.103-.216-1.794-2.338-1.707-2.41 0 0 .603.783.896 1.15.198.25.53.725.594.686.162-.097.234-.514.15-.764-.059-.17-.427-.308-.423-.382.003-.07.373.11.48.307.166.314-.05.712.014 1.05.023.122.132.223.17.342.206.675.184 2.019.267 2.062.21.109.41-.224.485-.414.128-.324-.145-.828.011-1.131a.361.361 0 0 1 .38-.202s-.25.1-.298.259c-.095.31.17.79.061 1.122-.07.214-.31.288-.415.558-.255.652.06 1.576-.03 2.282-.083.639-.609 1.802-.609 1.802s.607.09.813-.065c.41-.31.416-.947.493-1.462.06-.395-.103-.986-.028-1.218.092-.283.177.227.21.732.016.25.02.499.004.648-.054.533-.132 1.12-.568 1.469-.268.214-.69.044-.996.258-.739.518-.907 1.619-1.242 2.463-.06.152.11.367-.045.499-.108.09-.289-.031-.387.07-.33.336-.842 2.005-1.457 2.886-.394.565-.977.977-1.412 1.51-.222.274-.608.863-.608.863z" stroke-width=".499"/></g></svg>