<svg xmlns="http://www.w3.org/2000/svg" width="323.822" height="519.505" viewBox="0 0 85.678 137.452" version="1.1"><g fill="#043a0a" fill-opacity="1" stroke="none" stroke-width="1.056" stroke-linecap="butt" stroke-linejoin="miter" stroke-opacity="1"><g stroke-width="1.991"><path d="M47.24 38.317c.04.164.687.796 1.101 1.386.521.743 1.673 2.364 1.673 2.364.128-.101-1.62-2.588-1.839-3.11-.126-.3.143-.911.143-.911z" fill="#043a0a" fill-opacity="1" stroke="none" stroke-width=".268"/><path d="M37.843 78.204c-.19 0-1.076-.57-1.846-.882a799.702 799.702 0 0 1-3.086-1.268c.073-.176 3.316 1.143 3.953 1.25.367.062.96-.42.96-.42zM31.026 66.37c-.158-.108-.564-1.08-1.02-1.773-.575-.873-1.824-2.795-1.824-2.795.16-.104 2.084 2.822 2.547 3.272.268.26 1.03.197 1.03.197zm1.212 3.408c.191 0 1.076-.57 1.845-.882.97-.393 3.087-1.268 3.087-1.268-.073-.176-3.317 1.143-3.954 1.25-.367.062-.958-.42-.958-.42z" fill="#043a0a" fill-opacity="1" stroke="none" stroke-width=".231"/><path d="M43.28 136.692c-.304-3.381-.105-9.828-.105-9.828-.232-13.982.991-63.177.86-66.568.948-26.77 1.06-11.537-.374-36.533 0 0 .087-4.992.227-8.244.056-1.297-.053-7.54.068-6.245 2.84 27.496 3.57 45.25 2.76 60.495-1.102 20.738 1.058 25.84.235 38.79-.705 11.11 2.25 16.732 1.8 26.209-.9 3.318-4.255 3.04-5.47 1.924z" stroke-width=".527"/><path d="M43.922 85.473c-.373-.773-.806-.842-.806-.842s-1.695-1.278-2.225-1.946c-.588-.74-1.213-3.155-1.904-4.195-1.528-2.303-2.957-2.87-4.048-4.531-.537-.818-.763-1.654-1.197-2.628-.459-1.031-.48-.842-1.583-3.21-.572-1.228-.44-1.487-.286-3.07.03-.315.443-9.506.333-9.2-.242.675-.957 7.7-1.013 8.3-.14 1.534-.73 2.717-.118 3.97L32.8 71.66l.656 1.85c.866 2.439 1.363 1.254 3.95 5.104.501.79 1.796 4.169 1.796 4.169s.115.598.683 1.166c0 0 1.23.969 1.275 1.08 1.634 1.883 1.44 2.086 2.775 3.288.41.442.15-2.504-.013-2.844zm2.756 31.424c.372-.444.805-.484.805-.484s1.696-.734 2.225-1.118c.588-.426 1.214-1.814 1.904-2.412 1.528-1.325 2.958-1.65 4.048-2.606.538-.47.763-.95 1.197-1.51.46-.593.481-.485 1.583-1.846.572-.706.44-.855.287-1.765-.03-.181-.444-5.466-.333-5.29.242.388.957 4.428 1.012 4.773.141.88.73 1.56.12 2.283l-1.726 2.034-.657 1.063c-.866 1.402-1.363.72-3.95 2.935-.5.454-1.795 2.396-1.795 2.396s-.115.344-.683.67c0 0-1.23.558-1.276.622-1.634 1.083-1.439 1.2-2.774 1.89-.41.255-.15-1.44.013-1.635zm-2.28-55.247c-.045.719-.363-1.354-.363-1.354s-1.12-1.831-1.45-2.2c-.365-.41-1.122-2.121-1.59-2.735-1.036-1.36-1.644-1.383-2.387-2.367-.366-.484-.63-1.074-.998-1.712-.388-.675-.353-.52-1.26-2.055-.47-.797-.485-1.04-.793-2.328-.06-.258-.086-7.603-.054-7.33.072.602-.496 6.335-.378 6.823.3 1.246.372 2.35.862 3.156l1.382 2.27.64 1.26c.844 1.663.742.585 2.484 2.847.347.473 1.548 2.746 1.548 2.746s.48 1.385.8 1.664c.593.518 1.088 2.79 1.13 2.863.974.998.194-2.124.914-1.574.238.227-.445-.631-.465-.315z" stroke-width=".527"/><path d="M46.151 48.87s-.874.61-1.33.56c-.988-.105-2.379-1.414-3.446-1.531-3.283-.36-7.874 1.234-8.134 1.349-.249.11-3.12 3.77-3.577 4.745-.26.554.291 1.906.024 2.14 0 0-.462-1.605-.219-2.218.577-1.453 2.406-3.713 2.406-3.713s.688-1.016 1.155-1.268c.778-.42 2.586-.805 2.586-.805l4.38-.635 1.007-.067s.66-.032 1.131.227c.32.175.603.372.908.613.553.435 1.242.77 1.743.646.36-.09.652-.934.652-.934zm.112 26.907s.71-.842.8-1.32c.194-1.034-.418-2.612-.21-3.73.643-3.438 3.142-8.03 3.302-8.286.155-.247 3.754-2.842 4.625-3.212.496-.211 1.375.5 1.63.247 0 0-1.099-.646-1.635-.457-1.272.446-3.509 2.106-3.509 2.106s-.968.607-1.29 1.064c-.539.763-1.339 2.596-1.339 2.596l-1.708 4.47-.332 1.038s-.208.68-.142 1.196c.045.348.116.663.214 1.004.18.619.242 1.367.008 1.873-.168.363-.896.578-.896.578z" stroke-width=".527"/><path d="M46.151 48.87s-.668-.37-.862-.775c-.42-.878-.518-2.781-.97-3.73-1.39-2.92-4.22-5.795-4.39-5.944-.164-.142-3.062-.408-3.688-.224-.357.105-.67 1.338-.895 1.252 0 0 .463-1.306.836-1.458.887-.36 2.702-.15 2.702-.15s.752-.016 1.078.225c.543.402 1.556 1.673 1.556 1.673l2.324 3.253.502.794s.323.526.435 1.065a11 11 0 0 1 .167 1.103c.076.708.258 1.47.545 1.812.206.246.701.002.701.002zm.485 69.13s-.668-.371-.86-.776c-.42-.877-.52-2.78-.97-3.73-1.39-2.92-4.22-5.795-4.39-5.943-.166-.142-3.064-.41-3.69-.224-.356.105-.67 1.338-.894 1.252 0 0 .462-1.306.836-1.458.886-.36 2.7-.15 2.7-.15s.754-.016 1.08.225c.543.4 1.555 1.673 1.555 1.673l2.325 3.252.502.795s.322.526.434 1.065a11 11 0 0 1 .168 1.103c.075.708.257 1.47.545 1.812.206.246.7 0 .7 0zm-.742-48.983s.58-.71.921-1.154c.16-.208.42-.59.685-.788.42-.316 1.301-.616 1.77-.915.6-.38 1.29-1.072 1.29-1.072s.893-1.032 1.572-1.532c1.29-.95 2.793-1.828 4.385-2.58.941-.442 3.222-1.115 3.01-1.15 0 0-1.607.444-2.444.76-.384.146-.79.318-1.227.54-1.253.639-2.709 1.439-3.738 2.202-.29.215-.535.41-.802.616-.27.208-1.126 1.35-2.139 2.036-.52.352-1.668.685-1.857.84-.756.618-1.632 1.623-1.632 1.623zm-1.362 14.296s.213.283.645.246c.203-.017.58-.022.761-.123.29-.16.51-.678.774-.884.338-.262.995-.44.995-.44s.996-.158 1.452-.422c.865-.5 1.63-1.2 2.25-2.03.366-.49.826-1.882.885-1.705 0 0-.29.997-.534 1.472-.112.218-.248.44-.436.66-.539.629-1.226 1.33-1.922 1.729-.196.112-.377.198-.565.298-.19.1-1.308.176-1.923.6-.316.218-.542.92-.685.986-.572.263-1.843.612-1.843.612zm.642 29.274c1.901-.404 1.79-.496 2.171-.985a188.57 188.57 0 0 1 4.083-5.002c.418-.496 1.678-2.076 2.063-2.3.903-.523 2.022-.082 3.607-.201 1.252-.094-3.535-.357-3.758-.19-1.272.954-2.857 3.129-3.727 4.169-1.304 1.558-1.404 2.058-2.797 3.145-.59.46-1.642.454-1.642.454z" stroke-width=".527"/><path d="M45.606 77.43s1.798-.857 2.647-1.996c1.08-1.447 2.986-5.755 4.903-8.898.688-1.128 2.15-3.894 3.276-4.964.433-.412 1.09-.724 1.466-.988.69-.485 1.548-.753 2.13-1.041.975-.482 1.812-.257 2.626-.98.45-.4.855-.895 1.138-1.745.162-.49-1.03 1.19-1.565 1.3-2.012.415-4.025.986-5.873 2.103-1.757 1.063-3.113 4.74-4.715 7.513-1.133 1.96-2.253 4.898-3.495 6.264-.75.823-2.363.946-2.363.946zm.552-43.281s-1.913.39-3.094.714c-1.647.452-3.74.605-5.388 1.06-.897.248-1.272.477-2.168.726-1.127.314-2.168.29-3.384.608-1.27.333-4.043 1.346-4.043 1.346s-1.533-.035-2.14-.342c-.734-.372-1.483-1.705-1.483-1.705s1.17 1.06 2.124 1.357c.515.16 1.114.324 1.876.21.95-.142 1.823-.732 2.888-1.04a493.78 493.78 0 0 0 1.874-.553s-1.183-.212-1.877-.21c-.972.004-3.128.317-3.128.317s-4.948.39-6.382.194c-.88-.12 5.328-.517 5.328-.517s3.22-.541 4.826-.545c1.094-.002 3.2.259 3.2.259s2.596-.994 3.643-1.238c1.24-.29 2.003.06 3.021-.248 1.29-.388 2.834-1.69 2.834-1.69zm-1.242 25.748s.608-1.396 1.034-2.176c.595-1.09 1.09-2.887 1.686-3.973.325-.59.54-.714.865-1.303.41-.74.593-1.734 1.022-2.552.45-.854 1.608-2.438 1.608-2.438s.27-1.461.194-2.328c-.092-1.05-.78-3.06-.78-3.06s.438 2.133.442 3.314c.001.637-.01 1.355-.227 1.953-.268.744-.803.976-1.197 1.663-.225.39-.7 1.2-.7 1.2s.092-1.31.225-1.952c.188-.902.792-2.6.792-2.6s1.186-4.222 1.336-5.75c.092-.94-1.336 4.45-1.336 4.45s-.95 2.464-1.258 3.956c-.21 1.017-.447 3.232-.447 3.232s-1.114 1.44-1.465 2.174c-.416.87-.344 1.923-.729 2.569-.487.818-1.593.973-1.593.973zM43 59.747s-1.143-.526-1.846-.77c-.982-.338-2.239-1.184-3.22-1.52-.534-.182-.755-.135-1.289-.316-.67-.228-1.298-.747-2.023-1.012-.757-.277-2.403-.6-2.403-.6s-.924-.762-1.296-1.353c-.452-.716-.935-2.385-.935-2.385s.73 1.6 1.312 2.347c.314.403.68.849 1.135 1.1.568.31 1.08.146 1.714.348.36.116 1.116.349 1.116.349s-.718-.772-1.135-1.1c-.586-.46-1.877-1.176-1.877-1.176s-2.97-1.97-3.839-2.846c-.534-.538 3.197 2.026 3.197 2.026s1.926.999 2.893 1.76c.66.519 1.933 1.776 1.933 1.776s1.54.258 2.165.515c.74.306 1.208 1.012 1.814 1.195.767.23 1.666-.316 1.666-.316z" stroke-width=".527"/><path d="M45.09 38.617s1.787-.483 2.592-.17c.74.286 2.135 1.54 2.135 1.54s1.555-.674 2.29-.513c1.087.238 3.393 2.252 3.393 2.252s2.22.947 3.282.88c1.101-.068-1.743-.5-3.053-1.29-1.208-.726-2.253-2.083-3.548-2.387-.775-.183-1.489.537-2.257.316-.637-.183-1.094-1.13-1.604-1.443-.479-.294-.639-.07-1.138-.302-.304-.141-.754-.801-.754-.801zm.732 63.173s.994-2.695 1.688-3.432c.637-.677 2.173-1.314 2.173-1.314s.747-2.574 1.324-3.36c.85-1.158 3.36-2.262 3.36-2.262s1.956-1.958 2.65-3.36c.72-1.454-1.423 1.755-2.683 2.702-1.163.874-2.506.973-3.53 2.337-.615.817-.767 2.367-1.393 3.14-.52.64-1.272.367-1.765.73-.464.34-.468.746-.917 1.168-.273.257-.887.232-.887.232zm-1.714-1.678c-.363-.105-3.227-1.133-5.042-1.327-.622-.067-1.233.025-1.699-.097-1.853-.482-3-.72-3.825-1.072-.968-.414-1.228-2.07-.903-1.552.294.467.423.975 1.11 1.346.85.462 2.298.847 3.625.97.55.05 1.33.037 1.36-.142.053-.34.017-.678-.225-1.08-.116-.194-1.419-.373-1.659-.587-.465-.416-1.74-1.843-1.106-1.4.401.28.696.939 1.561 1.374.428.214 1.115.248 1.475.51.49.354.604 1.14 1.194 1.514.42.267 1.63.406 1.63.406l2.111.29zm.785-16.853s-.91-1.84-1.48-2.28c-.265-.204-.688-.01-.97-.184-.497-.308-.817-1.135-1.307-1.454-.75-.488-1.613-.368-2.409-.52-.564-.108-1.088-.33-1.615-.2-.378.095-1.014.582-1.014.582-.295-.24.47-.632.837-.78.394-.158 3.275.29 3.275.29s.764.164 1.102.353c.57.318.731.99 1.277 1.33.28.175 1.03.154 1.03.154.194.143 1.44.03 1.273.4zm-.282 3.916s-2.384-.921-3.595-1.207c-1.352-.318-2.71.028-4.006-.542-1.045-.46-1.464-1.465-2.418-2.045-.8-.487-1.869-.614-2.643-1.124-.705-.464-1.175-1.225-1.646-1.645-.578-.517.627 1.186 1.236 1.688.53.437 1.946 1.022 1.946 1.022s-.658-.034-.905.052c-.33.115-.633.31-.68.59-.06.36.548 1.202.548 1.202.483.044-.307-.737-.177-1.024.095-.21.66-.418.66-.418s.798-.138 1.221.016c1.047.378 1.448 1.48 2.46 1.943 1.444.66 3.034.455 4.547.908.664.2 1.388.405 1.944.783.387.264.832.943.832.943zm5.196 20.73s2.058-.372 3.071-.774c.83-.33 1.6-.81 2.323-1.285 1.51-.99 3.056-2.048 4.128-3.213.956-1.04 1.85-3.12 1.883-3.182.54-.97-.81 2.153-1.71 3.24-.4.485-1.55 1.4-1.55 1.4s.87-.447 1.282-.696c.708-.43 2.016-1.378 2.016-1.378.412-.216-1.497 1.208-2.346 1.743-.426.269-.93.458-1.354.728-.93.59-1.638 1.326-2.56 1.922-.628.405-1.288.814-1.997 1.107-.96.398-2.929.836-2.929.836zm-1.632-56.372s1.84.876 2.894 1.09c.862.177 1.783.168 2.664.136 1.837-.067 3.748-.177 5.366-.68 1.444-.45 3.547-1.965 3.615-2.005 1.075-.633-2.088 1.636-3.52 2.167-.638.236-2.147.445-2.147.445s.975.085 1.462.087c.838.003 2.49-.143 2.49-.143.465.035-1.975.289-2.993.305-.51.008-1.029-.11-1.54-.1-1.117.023-2.163.32-3.28.352-.759.02-1.545.026-2.292-.112-1.01-.187-2.825-.944-2.825-.944zm-3.177-16.11s2.276-.215 3.285-.67c.824-.37 1.502-.994 2.125-1.62 1.301-1.3 2.613-2.7 3.301-4.36.614-1.478.618-4.63.627-4.721.15-1.448.131 3.28-.39 4.847-.23.698-1.142 1.944-1.142 1.944s.816-.551 1.18-.873c.63-.555 1.71-1.824 1.71-1.824.384-.27-1.174 1.649-1.917 2.345-.373.35-.88.56-1.25.912-.81.77-1.284 1.81-2.085 2.59-.544.53-1.126 1.06-1.825 1.398-.945.457-3.08.792-3.08.792zm7.142 31.639s5.507-3.872 5.57-3.333c0 0-2.524 1.794-3.4 2.524-1.04.866-2.333 2.274-2.333 2.274z" stroke-width=".527"/><g stroke-width=".475"><path d="M43.848 21.806s.86-1.584 1.39-2.302c.593-.803 1.53-1.297 1.962-2.19.348-.72.065-1.395.3-2.128.197-.615.73-1.19.9-1.803.155-.56.027-1.143.074-1.568.057-.522.26.86.178 1.39-.072.46-.563 1.42-.563 1.42s.35-.334.533-.413c.244-.105.514-.16.684-.051.22.14.313.829.313.829-.248.253-.208-.495-.428-.567-.162-.053-.585.122-.585.122s-.517.32-.675.598c-.39.683-.048 1.394-.376 2.1-.468 1.007-1.463 1.678-2.076 2.622-.269.414-.568.86-.684 1.306-.08.31.02.844.02.844z"/><path d="M46.98 17.747s-1.07-1.79-1.189-1.6c0 0 .486.828.635 1.154.177.387.336.987.336.987z"/></g><g stroke-width=".464"><path d="M42.348 27.018s-1.52-.8-2.31-1.062c-.882-.294-1.836-.065-2.655-.554-.66-.394-.843-1.198-1.43-1.685-.493-.407-1.203-.542-1.675-.967-.43-.387-.673-1-.949-1.345-.34-.425.306.952.667 1.366.315.36 1.214.865 1.214.865s-.44-.048-.617.012c-.234.08-.459.224-.518.442-.077.28.25.963.25.963.322.05-.134-.59-.018-.81.085-.163.488-.31.488-.31s.553-.081.824.053c.67.33.832 1.21 1.47 1.605.91.564 2.006.454 2.983.859.43.177.898.362 1.237.677.235.22.468.767.468.767z"/><path d="M37.788 25.63s-.258-2.358-.064-2.274c0 0 .125 1.085.205 1.482.095.47.324 1.12.324 1.12z"/></g><g stroke-width=".439"><path d="M35.918 74.923s-1.21-1.124-1.84-1.493c-.7-.412-1.46-.091-2.112-.778-.525-.553-.67-1.683-1.138-2.366-.392-.573-.957-.762-1.333-1.36-.342-.543-.535-1.404-.755-1.89-.27-.596.244 1.339.531 1.92.25.506.966 1.215.966 1.215s-.35-.067-.49.018a.865.865 0 0 0-.413.62c-.062.395.198 1.352.198 1.352.257.07-.106-.827-.014-1.138.068-.228.39-.433.39-.433s.44-.116.655.072c.533.465.661 1.7 1.17 2.256.723.793 1.595.638 2.373 1.206.341.25.715.509.984.952.187.308.372 1.078.372 1.078z"/><path d="M32.288 72.973s-.205-3.314-.05-3.195c0 0 .1 1.524.163 2.082.075.662.258 1.573.258 1.573z"/></g><g stroke-width=".547"><path d="M40.536 54.922s-.216-1.358-.44-1.988c-.25-.703-.917-1.19-.99-1.95-.06-.613.428-1.132.473-1.746.04-.514-.236-1.03-.175-1.54.056-.464.375-.924.481-1.271.13-.427-.533.67-.644 1.105-.097.379.008 1.198.008 1.198s-.197-.302-.333-.383c-.18-.107-.404-.177-.594-.105-.245.093-.57.64-.57.64.134.228.36-.38.581-.417.163-.028.48.153.48.153s.352.307.397.545c.11.588-.444 1.13-.397 1.73.067.857.723 1.492.941 2.31.096.36.21.747.157 1.119-.036.258-.313.68-.313.68z"/><path d="M39.152 51.354s1.58-1.345 1.62-1.18c0 0-.723.622-.97.872a8.958 8.958 0 0 0-.645.765z"/></g><g stroke-width=".189"><path d="M45.802 31.8s-2.714-3.113-3.963-5.786c-1.346-2.882-3.374-9.57-4.02-11.295-.87-2.324 1.886 8.125 3.062 11.232 1.078 2.85 3.804 6.9 3.804 6.9z"/><path d="M40.471 24.444s-.887-2.836-1.453-3.798c-.61-1.038-1.042-1.44-1.373-1.98-.377-.616.35-.166.923.56.526.667 1.636 3.31 1.636 3.31z"/></g><g stroke-width="4.847"><path d="M44.422 21.222s.037-1.226-.115-2.003c-.194-.987-.943-3.202-1.42-5.11-.17-.684-.62-2.238-.72-3.15-.04-.35-.025-.797-.037-1.077-.02-.512.03-1.06.04-1.46.016-.667.178-1.07.118-1.715a3.654 3.654 0 0 0-.256-1.1c-.092-.221.141.89.096 1.216-.169 1.225-.3 2.493-.285 3.816.015 1.259.69 3 1.123 4.632.305 1.156.84 2.566.993 3.622.093.636-.11 2.913-.11 2.913z" stroke-width="1.282"/><path d="M42.432 13.46c-.064-.046-.584-.546-.879-.546-.1 0-.189.109-.27.06-.323-.197-.518-.278-.672-.46-.18-.215-.344-1.342-.255-1.008.08.302.138.644.272.85.166.257.42.416.633.403.09-.006.21-.073.2-.198a3.94 3.94 0 0 0-.115-.732c-.033-.126-.247-.153-.3-.284-.103-.253-.407-1.147-.276-.887.083.164.178.599.344.836.082.117.191.09.266.243.102.21.18.745.298.96.085.154.282.16.282.16l.348.045z" stroke-width="1.282"/><g stroke-width=".953"><path d="M41.922 10.617s.447-.523.594-.99c.158-.504.285-1.69.344-1.994.08-.41-.027 1.45-.137 1.998-.1.502-.506 1.196-.506 1.196z"/><path d="M42.741 9.363s.06-.503.138-.67c.084-.18.16-.244.207-.338.053-.106-.085-.036-.176.088-.083.113-.2.576-.2.576z"/></g></g><g stroke-width="4.197"><path d="M45.536 36.183s-.034-1.04.221-1.691c.325-.83 1.548-2.677 2.336-4.274.284-.574 1.022-1.873 1.198-2.64.068-.296.055-.675.08-.912.043-.433-.026-.898-.034-1.237-.012-.566-.26-.913-.152-1.457.06-.301.164-.601.424-.922.15-.184-.24.75-.175 1.026.241 1.044.425 2.122.373 3.242-.049 1.065-1.147 2.514-1.86 3.88-.504.967-1.374 2.142-1.636 3.03-.158.536.117 2.47.117 2.47z" stroke-width="1.111"/><path d="M48.823 29.684c.101-.036.93-.44 1.394-.43.16.005.296.1.424.06.512-.154.82-.214 1.067-.363.288-.175.568-1.123.421-.844-.132.253-.23.54-.444.71a1.58 1.58 0 0 1-1.005.317c-.14-.008-.327-.07-.31-.175.03-.202.084-.397.195-.615.054-.105.392-.12.478-.23.167-.21.663-.955.452-.74-.134.135-.292.5-.558.694-.132.097-.303.07-.424.197-.165.173-.296.624-.487.802-.137.127-.448.125-.448.125l-.55.025z" stroke-width="1.111"/><g stroke-width=".826"><path d="M49.682 27.297s-.692-.46-.914-.861c-.239-.433-.415-1.442-.503-1.701-.118-.35.015 1.229.177 1.696.15.43.772 1.032.772 1.032z"/><path d="M48.418 26.204s-.083-.428-.203-.572c-.129-.155-.247-.213-.319-.294-.08-.092.134-.027.275.08.13.099.305.496.305.496z"/></g></g><g stroke-width="2.979"><path d="M45.564 75.614s.942-.83 1.926-1.088c1.25-.33 4.744-.59 7.384-1.07.948-.172 3.233-.47 4.214-.893.378-.162.72-.465.98-.623.476-.29.822-.712 1.135-.98.522-.445.503-.945 1.174-1.26.372-.173.806-.305 1.48-.305.387 0-1.054.348-1.227.62-.654 1.028-1.423 2.027-2.564 2.836-1.086.77-4.02.845-6.335 1.219-1.636.265-3.987.344-5.206.777-.735.26-2.19 2.004-2.19 2.004z" stroke-width=".788"/><path d="M56.415 73.737c.18.067 1.736.539 2.383.986.222.153.324.354.543.446.872.364 1.367.61 1.857.727.576.139 1.875-.324 1.402-.248-.428.068-.84.196-1.307.124a4.325 4.325 0 0 1-1.724-.705c-.19-.138-.397-.362-.273-.427a2.76 2.76 0 0 1 .864-.287c.176-.03.67.278.896.276.437-.004 1.85-.107 1.346-.142-.32-.023-.89.108-1.453.006-.278-.05-.494-.233-.787-.25-.4-.023-1.014.2-1.456.155-.314-.032-.752-.327-.752-.327l-.802-.5z" stroke-width=".788"/><g stroke-width=".586"><path d="M59.91 72.717s-.54-1.006-.473-1.522c.074-.557.788-1.496.911-1.777.166-.38-1.152.955-1.368 1.466-.199.47.11 1.52.11 1.52z"/><path d="M59.164 70.687s.29-.406.257-.63c-.035-.24-.146-.396-.17-.526-.029-.147.215.106.311.32.09.199-.04.669-.04.669z"/></g></g><path d="M46.334 76.85s-2.295-.673-3.428-1.195c-1.337-.615-2.66-1.39-3.95-2.271-.93-.635-2.004-1.228-2.824-2.15-.977-1.098-2.35-3.592-2.455-3.953-.07-.24-.373-2.98-.466-2.994 0 0 .124.998.176 1.473.035.32.131.909.071.91-.15.002-.442-.32-.543-.58-.068-.178.06-.495.013-.556-.044-.06-.148.294-.09.52.092.36.455.589.62.917.06.117.057.263.108.386.285.693 1.102 1.842 1.08 1.924-.054.205-.369.026-.525-.098-.267-.212-.413-.793-.683-.971-.152-.1-.277-.06-.339.029 0 0 .203-.048.326.064.24.216.376.774.637 1.002.168.147.35.083.57.26.536.426.91 1.393 1.384 1.954.43.508 1.426 1.232 1.426 1.232s-.293.403-.504.378c-.42-.048-.804-.595-1.157-1-.27-.31-.53-.906-.712-1.066-.222-.195.034.29.318.745.14.224.287.44.385.562.35.43.745.896 1.204.964.281.042.421-.331.724-.31.732.052 1.487.913 2.183 1.463.125.1.157.376.325.407.116.02.146-.181.262-.147.391.114 1.682 1.28 2.56 1.713.564.277 1.144.32 1.712.55.29.117.864.419.864.419zm-.183-27.98s1.56-1.505 2.218-2.35a20.824 20.824 0 0 0 2.028-3.184c.42-.804.984-1.656 1.14-2.558.183-1.074-.12-3.09-.243-3.335-.082-.163-1.443-1.776-1.372-1.83 0 0 .484.594.72.874.16.188.426.55.478.52.13-.074.188-.39.12-.58-.047-.13-.342-.235-.34-.29.003-.054.3.083.385.233.135.238-.04.54.013.798.02.092.106.169.136.26.166.512.148 1.533.215 1.566.168.082.33-.17.39-.314.103-.247-.116-.63.01-.86a.295.295 0 0 1 .305-.154s-.2.076-.24.197c-.076.235.137.6.05.853-.057.162-.25.219-.335.424-.205.495.05 1.197-.025 1.734-.066.485-.488 1.369-.488 1.369s.488.069.653-.05c.33-.235.335-.72.397-1.11.047-.3-.083-.75-.023-.926.074-.215.143.173.17.556.012.19.015.38.002.493-.043.405-.106.85-.457 1.116-.215.162-.555.033-.8.196-.594.393-.73 1.23-.999 1.87-.048.116.088.28-.037.38-.086.069-.232-.024-.31.052-.267.256-.678 1.524-1.172 2.193-.317.43-.786.743-1.136 1.148-.178.208-.489.655-.489.655z" stroke-width=".527"/><path d="M55.632 60.92c-.016-.19.478-1.12.726-1.911.312-.998 1.008-3.182 1.008-3.182.182.059-.864 3.4-.918 4.044-.032.37.498.92.498.92z" fill="#043a0a" fill-opacity="1" stroke="none" stroke-width=".231"/><path d="M48.144 74.377c-.03-.182.107-1.2.138-2.027.038-1.042.13-3.328.13-3.328.097.016-.034 3.508.015 4.147.027.368.354.782.354.782z" fill="#043a0a" fill-opacity="1" stroke="none" stroke-width=".324"/><path d="M46.935 75.052c.14-.108 1.246-.318 2.06-.593a997.521 997.521 0 0 1 3.278-1.097c.09.13-3.344 1.29-3.895 1.595-.318.176-.358.755-.358.755z" fill="#043a0a" fill-opacity="1" stroke="none" stroke-width=".254"/><path d="M44.196 23.07s-.722-1.04-1.229-1.67c-.706-.877-1.295-2.06-2.004-2.936-.386-.477-.64-.657-1.026-1.134-.487-.6-.706-1.203-1.216-1.853-.533-.68-1.908-2.116-1.908-2.116s-.323-.89-.235-1.287c.106-.483.916-1.126.916-1.126s-.513.842-.515 1.44c0 .32.015.693.272 1.114.32.524.953.934 1.422 1.498.266.32.831.993.831.993s-.112-.716-.272-1.115c-.224-.56-.943-1.752-.943-1.752s-1.413-2.79-1.594-3.647c-.11-.527 1.592 2.988 1.592 2.988s1.13 1.77 1.497 2.694c.25.63.537 1.885.537 1.885s1.321 1.339 1.738 1.903c.495.669.412 1.164.87 1.702.577.68 1.886 1.364 1.886 1.364zm-.029 7.994s1.836-1.876 2.611-2.928a26.192 26.192 0 0 0 2.387-3.968c.494-1.002 1.158-2.063 1.34-3.186.218-1.34-.139-3.85-.284-4.156-.097-.204-1.698-2.213-1.615-2.28 0 0 .57.74.848 1.088.188.236.5.686.562.65.154-.093.222-.487.141-.724-.055-.161-.403-.292-.4-.362.004-.067.354.104.454.29.158.298-.048.675.014.995.023.115.126.21.16.324.196.639.175 1.91.254 1.95.198.104.388-.211.46-.39.12-.307-.138-.785.01-1.071a.342.342 0 0 1 .36-.192s-.237.095-.283.246c-.09.292.161.748.058 1.062-.066.202-.293.273-.393.528-.24.617.057 1.492-.03 2.16-.077.605-.575 1.706-.575 1.706s.575.086.77-.062c.388-.292.394-.896.466-1.384.056-.374-.097-.933-.026-1.152.087-.268.168.215.2.692.014.237.017.473.003.614-.052.505-.126 1.06-.539 1.39-.253.203-.653.042-.942.245-.7.49-.859 1.532-1.175 2.33-.057.145.104.348-.044.473-.1.086-.273-.03-.366.066-.312.319-.796 1.898-1.379 2.732-.373.535-.925.925-1.336 1.43-.21.259-.576.816-.576.816z" stroke-width=".527"/></g><g stroke-width=".28"><path d="M61.295 34.045c.38.074-.289-1.358-.28-1.57.782-1.188-1.64-.66-1.87-.84-1.79-.514-.714.704-.16.65.187-.018 1.423-.827 1.62-.845.3-.028.795.233 1.02.288.36.27-.62-.35-.524-.311-.498-.27-.027 1.663.428 2.046-.557 1.42 2.273.282 2.751.18.17-.035-.995-.444-.92-.366.16.168.076.112.367.173.036-.082.628.167 1.12.19.205.084.955.02 1.38.046.436.01.966.887 1.215.945.298.07-.48-1.83-.335-1.666.35.392 1.03.788.943 1.199.577.433-.824.666-.97 1.03-.112.28.2.788.706.923.234.063.48.094.807.064.294-.004 1.74-.052 2.125-.135 1.066.039.167-.485.208-.495.392-.538.448-.183.666-.22.354-.133.7-.12.857.07.086.107.516.448.5.65-.028.31.115.479.31.609.195.122.451.332.632.464.18.13-.1-.574-.174-.27-.032.132.42.719.555.809.408.489.153-.82.172-.81.345-.714.006-.367.46-.281-.096-.5 1.14.19 1.817.324.41.06.623-.59 1.027-.502.383-.627.21.6.737.856-.46.48.628.767 1.19.94-.078.467.571-.11.952-.108.252.002.25.28.298.34.082.105-.186-.18-.282-.124-.317-.322-1.217.523-1.35.547-1.044.454.02.077.02.077-.158.109-.636-.152-.874-.15-.458-.195-1.473.025-1.705.017-1.02.028-.555-.585-.555-.585-1.915-.63-1.622.283.576 1.198.315.192-1.233 1.232-1.233 1.232-.816 1.407 2.3 1.232 3.118 1.175 1.687 1.073.201-1.711.507-1.938.41-.303 1.11.395 1.88.657.243.083.301.096.267.172-.06.01-.25-.166-.478-.093-.3-.243-.547.156-.902.255-.344.086-.738.006-1.126.105-.409-.092-.974.12-1.34.25-.347.124.422.2.17.235-.386.05-1.164.286-1.279.683-.715.338-.113 2.106-.058 2.443.045.277.19-.676-.08-.854-.329-.218-1.743-1.146-2.11-1.336-1.047-.72.556-.542.556-.542-.296-.983-2.38.223-2.589.43-.06.062.956-.114.956-.114.582.62.46 1.226.756 1.615-.216.544.591.819.657 1.012.095.133-.658 1.066-.656 1.1-.682.98 1.085.445 1.085.445 1.12.856-.523-.037-1.518-.928.057.003.697-1.671.326-2.012.988-1.415-.003.41-.678.445.976.884-2.942-.878-3.44-1.1-.163-.072.86 1.268.86 1.268-.17.603.64-.515.677-.881.038-.367-.754-.078-.55.942.092.464 1.01.895 1.145 1.155.876.273 1.677.844 1.701.968 1.603.873-.935-.26-1.573.166-.212.14-.128.588-.207.87-.06.215.098.284 0 .274.123-.031-.616-.742-.79-.976-.384-.627-.109-1.374-.14-1.42-.052-1.293.596-.41.592-.416.301-.836.007-1.178-.463-1.512.245-.68-1.22-.485-1.968-.573-.28-.016-.04-.89-.309-.908-.3-.021-2.837.19-3.07.183-.274-.01-.013-.68-.165-.535.198-.523-1.253 1.662-1.525 2.054-.883 1.03.427-.424.432-.695 0-.054-.566.187-.597.148-.136-.164-1-.137-1.196-.144-.69.095-.63 1.273-.63 1.273-.654 1.27-.028-.3-.048-.3-.214-.3 1.214.539 1.018.572 1.125.594-1.732.466-2.514-.538-.222.299-.314-.31-.437-.815-.11-.45-.409-1.494-.45-1.917-.007-.076 1.535-.558 1.514-.388 1.515-.253-.285.882-.752 1.638-.072.182.728.125.495.452.86-.122-1.054.989-1.642 1.422-.294.217-.748-.855-.834-.787-.094.074-.1.282-.012.623.066.314-.647.712-.448 1.193-.66.507.087 1.04.531 1.596-.234.27 1.44.676 1.841.97.231.168.944.223.944.223-1.13-.2-1.492-.492-1.9-.445-.207-.183-1.422.973-1.465 1.283-.81.925.182.25.262.292.036.018.037.045-.12.104-.369.137-2.062.249-2.41.303-1.332.018.36.043.36.043.007.097-1.178.41-1.45.383-.937.303.48-.998.3-1.254 1.01-1.034-1.503-1.38-1.78-1.586-1.3-1.16-.136-.316.072-.385.076-.026-.65.92-.633.757.025-.228.72.107.591-.04.52.249-.634-.157-1.264-.311-.195.217-.627-.1-.98-.183-.304-.025-.657-.177-.99-.27-.324-.108-1.085.624-1.392.515-.885.65-.637-.676-.838-1.098.056-.292.074-.486 0-.633-.113-.218.064.244.05.067-.016-.21.782.04.936-.18.85.273 1.658-1.357 1.844-1.571 1.352-.952-1.142.643-1.142.643-.778.222.423-1.09.747-1.385-.075-.52 1.87-.168 2.098-.196.164-.02-1.858-.71-1.858-.71s.782.969.587.968c.533.963-1.705.386-2.436.116-.91.417-.817-.091-1.033-.328-.465-.077-1.473-1.613-1.415-2.05-1.05-1.145 1.098.382 1.58.386.17 0 0-.682.076-.754.223-.213.598-.747.84-.897.308-.458.66-.077.83-.15.51.037 1.39.788 1.573.738 1.057.917-.156.473-.122.463.3.34.315-.996.718-1.261-.376-.738 1.66-.358 2.045-.38 1.08-.136.137.5.137.5.557-.03.203-.467.758-.496.322-.016-.264 1.193-.29 1.053-.739 1.075.36-.988.053-1.64.528-.528-.375-.638-.61-.945-.24-.314-.494-.585-.682-.858-.203-.298-.14-.626-.102-.84.07-.394.077-.78.156-.956.032-.324 1.167.462 1.32.484.958.74.044-.035.044-.035.054-.034.014.316.024.318.294.367.52.17 1.09.252.286.04.58-.047 1.206.045.404.059 1.752-.937 1.741-1.121 1.19-1.162-1.005-.828-1.539-1.13-.685-.334.111-.584-.03-.658-.133-.705-1-.681-.783-.537.055.036-.066.246.11.28l.95.42-.086.256 1.254.24 1.95.77z"/><path d="M66.69 47.29c-.519.16-1.293-.085-1.337-.238.773-.976-1.449-.245-1.449-.245-1.54-.566.051.535.065.528.006-.004.872-.765.374-.69-.42.064-.555.392-.895.495-.14.358-1.58-.18-1.916-.05-.987-.358-1.099 1.307-1.196 1.385-.838 1.185 1.26.438 1.26.438-.483.388-.95-.576-1.48-.123-.14.12-.667.07-.913.166-.505-.086-.578.202-.79.268-.449.14-.409.14-.677.212-.266.089-.42 1.027-.802 1.124-.096.944-1.598-1.105-2.049-1.158-1.07-1.22.216.416.144.803-.034.179-1.047.114-1.123.183-.322.29-.35.518-.178.667.13.183.475.278.78.364.242.108 1.575.195 1.63.289.057.097-1.049-.29-1.638-.083-.236.083-.648.105-.97.176a6.33 6.33 0 0 0-1.044.104c-.449-.02-.418.232-.78.295-.177.189-.963.152-1.43.23-.374.054-.726.239-1.052.305-.31.177-.988-.65-1.225-.594-.747-.684-.002 1.07.036 1.409.013.115-.24-1.11-.22-1.058.083.22-.737-.091-1.065.208-.966-.25-.673.889-.815 1.384-.105.367-.312-.036-.187.139.048.066-.9.393-.983.47-.926.254-.465.343-.465.343-.465.345-.34-.217-.34-.217-.427-.138-.754.21-.929.294-.69.124-.592-.211-.799-.135-.559-.248-1.707.69-2.085.822-1.08.467-.055.104-.093.117-.38.215-1.026.066-1.394.183-.58-.09-1.672.247-1.954.36-1.027.03-.566-.58-.572-.578-1.293-.282.078 1.19.084 1.636.001.1-1.57 1.226-1.637 1.294-.073.074 1.14 1.222 1.218 1.236 1.202 1.106-.597-1.438-.597-1.438-.505-1.42-.015-.46.235-.506.008-.512.667-.205 1.12-.308 3.427-.853 10.142-2.857 1.455.68-.066-.317 0-.011 0-.011a5.265 5.265 0 0 0-.008-.195c-.009-.196-.172-.135-.172-.135-.172-.134.911-.162.911-.162.912-.163-.589-.096-.589-.096-.588-.097-.127 1.13-.127 1.13-.127 1.129.03.038.03.038.03.039-1.046-.72-1.046-.72-1.045-.72.558-.54.558-.54-.507.206-1.53 1.692-2.146 1.936-.244.096-.27.189-.254.22.088.06-.43.14-.255.124-.259.084.884-.022 1.523-.137.444.02.085.836.507.75.005.84 2.601.02 3.43-.295 1.384.33.955.06 1.177-.085.917-.03 2.14-1.848 2.324-2.21.123-.244.153 1.446.368 1.419.542-.07-.947-.405-1.118-.253-1.836-.155-.367 2.079.332 1.763.035-.016 1.32-1.625 1.355-1.646.284-.168.508-.416.784-.551.222-.235 1.346-.152 1.607-.251.804.097 1.568.526 1.584.52 2.501.165-.574-1.655-.574-1.655 0-.534.256.252.256.252l-.017.263c-.646.558-1.489.422-1.844.776-1.338.395-.96.005-.393-.03-.048-1.29.604-.4.604-.4.605-.4.718-.344.718-.344.72-.344.006.017.006.017.272 0 1.117-.852 1.456-.85.967-.83-.88-.496-.53-.355-1.26-.416 2.075-.056 2.77.264.792-.618-.613 1.814-.613 1.814l.985-1.064c.323.397.147.263.141.22-.006-.042-.535.102-.667.91-.06.368-.776 1.906-.855 2.118-.795 1.715.025-.263.405-.235.037-.296 1.7.514 1.723.528.15.09-1.36.465-1.157.715.132.162.33.678.505.769.198.472.15-.034.336-.016.096-.134 2.144-.552 2.504-.61 1.552-.553.126-.14.126-.14.157-.143 1.215-.55 1.242-.552 1.76-.63.365.107.442.228.046.074.013-1.143.62-1.275.303-.067.585-.132.89-.144.286-.046-.284-.091.014-.08-.453-.07.51-.145 1.108-.164-.276-.22 1.331-.253 1.751-.262.254-.005 1.012-.08 1.09-.154.23-.223.772-.48.98-.382.54-.142-.374.986-.228 1.238-.488 1.134.634.68.92.15-.15-.082-.093-.13-.062-.182.13-.23-.893-.493-.902-.962 0-.096.448-.31.62-.602.513-.218-.216-.216-.02-.448.24-.282 2.25-1.602 2.74-1.504.236.048-.575-.681-.39-.396-.768-.557.798.99 1.194 1.54.168.233-.51 1.406-.51 1.406 1.027-.308 2.532-.013 3.073-.165 2.818-.065.797-.187.661-.11.081.314-.04-.1.133-.167.025.053.01-.016.01-.016.012-.016-.42.815-.42.815.041-.016.615-.998.682-.998.414-.002 1.06-.178 1.452-.212.543-.184 1.1.438 1.382.396.74.464 1.166.39 1.375.338.9.422 1.712-1.053 1.87-1.117 1.352-.951-1.142.643-1.142.643-.285.295.921-1.155 1.041-1.713-.304-.4 1.343-.065 1.37-.156 1.37-.13-1.456-1.124-1.857-1.425-.122-.092 1.53 1.338 1.491 1.246-.055-.13-.59.285-.487.154-.386.314.417-.251.975-.52.13.082-.414-1.171-.025-1.338-.568-1.083 1.495.06 2.147-.117.678.39.691-.364 1.01-.46.421-.294.885-.574 1.235-.682.462-.454.945-.07 1.22-.145.578.044 1.491.79 1.674.724 1.514.746-.122-.444-.316-.905-.052-.123-.48-1.297-.483-1.36-.007-.137.96-.373.773-.44.735-.263-.903.364-1.705.41-.227.52-.54-.098-.935-.092-.225-.123-1.595 1.314-2.027 1.325-1.567 1.319-.534-.953-.642-1.291.66-.263-.239-.031-.432-.001a1.375 1.375 0 0 0-.292.084s.337-.07.582-.134c.398-.087.42-.243.732-.332.327-.226 1.8.497 2.253.356 1.237.653.58-.232.805-.357.618-.353.94-.411 1.03-.787.052.06.14-.504-.082-.783-.13-.166-.433-.45-.68-.517-.247-.07.702-1.027.443-1.07.588-1.001-1.848-.32-2.618-.223-.64-.226.193-.376.073-.356-.035-.332-.786-.298-1.28-.143-.23-.377-.864-.044-1.277.138-.373-.191-.442.503-.752.675-.08.348-1.173.415-1.438.555-.725.169-.31.13-.378.167-.407.184.553.932.373 1.036.61.908.48.436-.15.353-.333-.044-2.588.05-2.814.088-.45.078-.676.125-.657-.018-.04-.052.663-.337.993-.654.666-.17-.133-.331.13-.63-.29-.226-.228-1.045.136-1.475.242-.285 1.883-.558 1.802-.698-.134-.233.028-.235-.11-.341.094.008-.157-.311-.44-.273.057-.087-.46.122-.768.24-.206.093-1.028.12-1.294.23-.744.012-.386.057-.55.14-.42.097-.34-.05-.77.19-.409.228-.705.93-1.338 1.11-.552.156-.76.125-.813-.014-.02-.14-.11-.06.082-.34.055-.033-.743.252-.503-.138-1.094.646 1.32-1.896 1.286-2.184-.01-.086-.226.36-.447.429l.552 1.342-2.19.077-1.297.483-.977.185-.875.035zM28.948 29.413c-.428.059-.796-1.695-.806-1.865.773-.976-1.449-.245-1.449-.245-1.47-.596.091.59.22.527.058-.03.993-.842.584-.87-.336-.021-.403.235-.69.275-.094.29-1.504-.3-1.818-.218-.872-.405-.895 1.2-.922 1.21-.838 1.185 1.26.438 1.26.438-.66.23-1-.686-1.546-.275-.149.112-.684.03-.935.08-.496-.123-.555.122-.748.142-.45.089-.404.03-.66.04-.255.004-.39.855-.74.879-.048.859-1.567-1.453-1.958-1.601-.21-.08.957 1.03.85 1.116-.394.314-.69.303-.583.498-.169-.014.483.529.48.754-.002.145-.17.273-.68.37-.262.05.435.102.073.078.435.008-1.297-.624-2.092-.74-.354-.53-1.002-.147-1.416-.147-.493-.054-.802-.053-1.085-.001-.41-.025-.24.27-.378.397-.13.118-.48.137-.467.262.03.25-.163.515-.432.633-.258.23-.98-.593-1.232-.507-.26.09.345 1.455.43 1.706.034.106.085-.662-.066-.614-.06-.783-1.063-.495-1.443-.466-.744-.582-.306.008-.482.023-.378.016-1.013-.677-1.474-.631-.658-.702-1.9.394-2.384.513-1.052.285-.71.406-.825.437-.7.41-.779-.095-.952-.043-.89-.053-1.22.41-1.319.603-.062.12.175-.17.053-.06-.085.079-1.11.594-1.015.642-.84.556.82.209 1.566.208.28.077.298-.202.583-.208.168-.207-.186.008.234 0-.309.017.91-.6 1.521-.57.134-.552 1.596.383 1.78.636.325.209-1.213 1.265-1.206 1.282-1.233 1.232 1.202 1.106 1.202 1.106 1.274 1.267-.658-1.46-1.04-1.694-.598-1.438-.29-.46-.29-.46-.565-.626-.518-.032-.864.282-.41.373-1.044.655-2.133.92-.233.057-.328.1-.315.15.013.04.126-.094.326-.048.2-.147.327-.032.67.024.198-.074 1.724-.03 2.193.048 1.04-.141-.338-.05-.224-.026-.019.03 1.043 1.455 1.57 1.605.337.097.802-.917 1.052-.893.432.04-.518-.432-.545-.14-1.088-.257.816.944 1.272 1.204.123.07-1.272.879-1.13.812.295-.14.732-.252 1.12-.393.45-.102.22-.16.604-.285-.013-.065 1.233-.27 1.76-.416.41-.006-.078.788.116.71.202-.081 2.084-.674 2.084-.674-.653.499-.744 1.202-1.103 1.504.012.64.805-.46.683-.33 1.32-.885 1.186 1.054 1.196 1.08 1.343.865-1.509-.444-1.509-.444-1.508-.445-.385.943-.385.943-.355 1.017 1.48-1.16 2.073-1.777.863-.647-.06-.096-.06-.096.081-.244 1.028-.154 1.097-.236.232-.275.87.2.87.2.19.484-.025-.373-.344-.613-.318-.24-.485-.143-.713.676-.104.372-.024.628-.193.856.04.247-.803-.115-1.007.103-.55-.376-.265-.64-.19-.17.05.3.788 1.503.895 1.777.09.23.91.095 1.028.28.82-.183.198.33.29.476.103.168.726-.54.836-.412.727-.604-1.417-.002-1.205.325-1.572-.37 1.582-.06 2.416.229.418.144-.37 1.796-.14 1.79.306-.007.931-.37 1.3-.5.548-.376.263-.192.518-.304.141-.175.206-.296.606-.497.314-.157.643.865.807.723.213-.185.46-.506.7-.452.29-.236 2.21.755 2.482.93 2.12.804.08.865-.102.218-.057.44-.008.084-.02-.157-.018-.408-.227-1.482-.177-1.853.013-.101 1.581-.917 1.632-1.2 1.638-1.025-.672-.76-.6-.583.016.036 1.102-.314 1.215-.25.176.1.357.323.44.655.144.283-.045-.546-.038-.227.007.299.126 1.78.126 1.78 1.015-.127.76-.276 1.16-.287-.273-.106.17-.11.191.057-.587.02.737.43 1.268.655.48-.273.83-.138.758-.042-.023.03-.7.15-.685.154.413.11.044.834.43.884-.1.733 1.181-.003 1.81-.16.203-.132.6-.26.937-.417.14-.168-.772-.265-.527-.43-.959-.231 1.483-.495 2.033-.806.44-.001-.376.252-.33.204.19-.196 1.84-1.55 1.81-1.745-.025-.163-1.003-1.24-.893-1.32-.777-1.144.726-.505 1.52-.33.15-.327-.294.787.064.895-.48.765 1.794.786 2.366.882.812.525.227.31.282.318.478.344.711.103.998.066.408.002.706-.192.946-.353.2-.142-.09.546.007.4.096-.143.707-1.224.722-1.357.018-.168.144-.486-.06-.637.006-.33-.094.173-.516.04.018.347-.4.13-1.01-.045.146.304.064-1.38-.53-1.612.87-1.138-2.792.833-3.336 1.03-.176.063.527-.826.527-.826s1.464.14 1.742.133c1.292.14-.843-.558-.843-.558-.356-.57 2.15.968 2.86.95 1.966.935.862-.224.42-.88-.625.46-.15-.086-.082-.31.06-.195-.803-1.475-.896-1.54-.222-.15-.083.205-.3.109.008.323-.66-.447-1.03-.522-.16-.227-.275-.425-.49-.442-.113-.375-.196.1-.47.126.025.14.391.995.041 1.04.57.984-1.374.418-2.087.256-.502.429-1.147-.763-1.382-.897-.616-.58 1.08-.138 1.08-.138-.483-.275-1.21.61-1.555.597-.36-.013-.286-.238-.28-.39.218-.246-.613 1.037-.485.873-.409.928 1.69-1.417 2.273-2.215.872-.475.274-.495.293-.695.031-.32-.094-.528-.14-.712-.079-.317.028-.57-.07-.713.055-.226-.373-.362-.614-.334-.206-.096.651.81.462.883.631.866-.908.108-1.65.11-.307-.034-.743.32-1.136.332-.5.016-.86-.16-1.33-.11-.453.048-.593-.07-.592-.227.03-.188 1.358-1.272 1.57-1.514 1.203-.902-.52-.242-.52-.242-.38-.403.707-.691.821-.78.423-.331.27-.301-.8-.153l-.95-.11-.724.518-1.637.376-.407.12zM39.845 3.486c-.23.064 1.204-1.157 1.24-1.39.832-1.36-1.678-.565-2.046-.568-.077 0 .51 1.295.43 1.285-.226-.03-.07.183-.114.158.195.225.111.1-.008.143-.063.022-1.223-.57-1.316-.428-.12.18-1.085 1.474-1.215 1.56-1.056 1.327 1.415-.19 1.397-.21-.004-.003-1.322-.391-1.358-.334-.238.38-.36.457-.198.633.162.176.411.515.018.665-.21.08-.4-.003-.698-.108-.213-.124-.33.572-.585.535-.22-.032-1.38-1.986-1.366-1.756.018.302.671.687.658 1.102-.013.415-.994.607-.944.905.032.192-.164.32-.413.374-.286.08-.615.082-.959.08-.398.025.315.033.02.06-.31.026-1.492-.418-1.587-.244-.068.126-.1.147.077.199.077.004.42.005.742.04.225-.05.956.185 1.19.272.364.132.122.045.162.076.166.122.062.437-.47.774-.362.228-1.31-.356-2.106.032-.219.107.295.736.582.895.618.603.613-.66.883-.633.416.042.131.263.417.318.26.05.384.61.476 1.13.092.519-.027.245.175.054.297-.282-.22-.091.116-.085.335.006 1.057.172 1.057.172-.474.724-1.04.952-1.1 1.2-.417.099-.38.387-.033.267-.23-.054.531-.683.994-.905.141-.548-.193.195.128.168.24-.02 1.467-.392 1.467-.392.076.39-.1.022-.08-.082.021-.104-.78.085-.873.745-.056.4-.58.048-.507.227-.458-.351.823.818 1.14 1.293.167.25-1.24 1.564-1.184 1.85.073.372 1.53 1.605 1.874 1.607 1.632 1.11-.068-2.058.106-2.534.105-.286.544.46.79.449.248-.012.543-.062.838-.101.294-.04.52-.385.654-.617.143-.25.287.003.422.364.136.353.253.635.36.778.106.14.03.029.09-.864.008-.123.954-.7 1.037-1.024.083-.326-1.287-.498-1.086-.271.106.12.298 1.617.59 1.955.293.337.716-.446.716-.446.681-.173-.096-.92-.02-.868-.929-.64.962.259 1.255.656.08.108-1.37.986-1.293 1.027.291.155.712.24 1.066.21.418.002.137-.031.44-.203-.173-.101.958-.466 1.3-.856.242-.275-.36.32-.382.026-.023-.296 1.267-.06 1.588-.227 1.24.365.71.15.86.065.898.03 2.213-1.723 2.364-2.196.085-.267.038 1.326.053 1.057.015-.271-1.838-1.07-2.303-1.424-1.61-.521-.576.795-.655.728-.64-.542.684-2.333.684-2.333s.106-.053.3-.035c.134-.08 1.217.138 1.34.063.124-.076.882.192.626-.16-.2-.275-.518-1.038-.898-1.227-.369-.72-.54-.557-.977-.598-.26-.33-.887.046-1.416.145-.404.076-1.353-.421-1.584-.438-.242-.018-.24-1.398-.069-1.541.168-1.47 1.247-.332 1.516-.257.157.043.375.082.35-.115-.063-.512-.207-.65-.43-.621-.215.047.016-.59-.338-.361-.354.228-3.024.698-3.48.794-.303.064.367-.853.75-1.067.722-.918-.16.55.083.504.464-.087 1.74-1.083 1.348-.973l-1.276.39z"/><path d="M39.884 11.092c-.302.086.03-.405.121-.78.09-.376-2.043-.052-2.352-.094-.297-.04-.93 1.238-.752 1.54.18.302 1.42-.111 1.242.16-.158.244-.337.427-.756.368-.42-.06-1.92-.771-2.073-.524-.208.34-.668 1.843-.324 2.11.343.266 2.75-.266 2.404-.131-.185.072-.646-.008-1.12-.16-.51-.12-1.304-.502-1.699-.611-.406-.112-.563.089-.55.313.015.27.005.353-.104.446-.11.093.024 1.027.067 1.293.028.172-.81-.978-1.086-1.03-.784-1.195.442-.064.321-.068.165-.045-1.662-.12-2.232.093-.28.105-.238.508-.307.635-.072.135.017.215.244.232.19.045 1.6.042 1.913.028 1.023.048.081-.467.081-.467.723-.496.457.148-.608.765-.402.234-.922.494-1.627.844-.193.096.184.27.4.322.473.149.395.049.62.057.324.012.668.132.913.18.23.044-.195-.366-.245-.064-.05.303.666 1.797.843 1.626.261-.252.603-1.438.76-1.72.157-.28-.457-.252-.457-.252-.52.81-.672 1.267-.635 1.526.055.236.095-.451.395-.505.174-.813-.076.238.287.29.272.037.93.168.93.168.065.348-.099-.091.04-.253.14-.161.05.005-.03.595-.05.358-.312.203-.3.359-.235-.167-.88.907-.736 1.253.088.209 1.237.073 1.29.35.064.333-.074.363.065.517-.079-.02-.569.352-.239.437.238.062.962-.521 1.204-.532.217-.01.89.24 1.224.248.334.009-.906 1.008-.788.8.125-.221 1.584.95 1.876 1.05 1.62 1.246-.303-1.656-.369-2.457-.026-.322.264.263.294-.198.007-.11.046-.46.153-.666.108-.206.218-.585.394-.383.093.108.261.483.406.842.144.359.256.507.256.507.897-.231.815-.247.74-.038-.074.208.77.478 1.01.608.255.138-.14.113.005.122-.378-.083.33 1.048.52.842.006.986.323-.778.41-1.366.046-.318-1.005-1.37-1.018-1.54-.02-.265.745-.893 1.07-.892.821-.54-.409.355-.11.484-.467.473 1.473.454 2.064.423.34-.018-.044-.035-.032-.246a.85.85 0 0 0-.17-.616c-.086-.148-1.086.516-1.27.355-.155-.136 1.496-.76 1.496-.76s.511.237.633.1c.547.149 1.598-1.53 1.491-1.93-.07-.265-.286 1.325-.466 1.074-.176-.246-1.963-.92-2.296-1.124-1.509-.444-.385.944-.385.944-1.01.559.164-1.531.026-1.863-.082-.2-1.11.213-1.37.193-.212-.016.592-.041.705-.232.912-.107 1.662.01 1.63-.314-.027-.263-1.612-1.602-1.638-1.817-.055-.457.14-.853.037-.793.14-.213-.133.443-.48.797-.257.262-1.157-.062-1.498.01-.267.057-.258-1.357-.094-1.541.281-1.658 1.742-.085 1.215.064l.114.056-1.107.402zm-7.52 69.033c-.526-.123.692-.798.187-1.013-.243-.103-2.083-.113-2.46.159-.376.272-.07 1.878-.252 1.918-.162.036-.014-.075-.116-.443-.103-.37-.214-.753-.372-.713-.432.108-.632-.158-1.242-.274-.245-.046-1.255 1.03-1.373.964-.118-.067 1.917-.84 1.891-.72-.04.197-1.909-.458-1.902-.25.002.09-.555-.132-.878-.256-.586-.257-.728-.15-.97-.244-.358-.14-.354-.31-.49-.266-.095.03.426.948.69 1.05.96 1.07.815-1.118-.244-1.413-.85-1.224.512.313.405.6-.067.178-1.158.094-1.4.059-.258-.038.016.165.463.378s1.02.462 1.272.577c.37.169.76.508 1.097.497.25-.008.37-.467.347-.458-.022.009-.313.432-.313.432-.712.163-.963.19-.85.263.021-.005.853.244 1.243.284.354.037.373-.058.373-.058.024.28.273.007-.008.365-.256.325-.92-.75-.88-.304.017.2.624 1.023.926 1.348.302.325.418-.688.782-.565.182.062-.24-.286-.09-.064.15.22.89.995 1.013.959.198-.058.084-.536.152-.347.068.189-.608 1.299-.39.908.04-.071.635-.47.878-.224.13.13.475.043.475.043.777.19.394.346.396.432.001.086.138-.257.32-.14.261.166-.483.776-.198.894-.634.622 1.35.1 1.854-.107.2-.082.074-.45.09-.535.02-.13-.74-.041-.398.084-.58.189.885-.17 1.576-.067.385.056 1.543.842 1.586.76.062-.12-1.536.83-1.917.575-.38-.253 1.66-.603 1.66-.603s-.459-1.578-.376-1.785c.084-.206.42.5.196.236-.155-.184-.347-.348-.527-.41-.202-.124-.424-.383-.624-.4-.21-.015-.373.265-.633.16-.263-.103-.083-.345.173-.4.256-.054.417-.055.425-.192.016-.261.895-.436.73-.417-.164.019-1.96.136-2.477 0-.345-.092-.068.97.337.907.405-.064.967-1.216.624-1.296l-1.715-.893zm-9.63-53.786c-.526-.123.692-.798.187-1.013-.243-.103-2.083-.113-2.46.159-.376.27-.07 1.878-.252 1.918-.162.036-.014-.075-.116-.444-.103-.368-.214-.752-.372-.712-.432.108-.632-.158-1.242-.274-.245-.047-1.255 1.03-1.373.963-.118-.066 1.917-.838 1.891-.718-.04.195-1.909-.46-1.902-.25.002.09-.555-.133-.879-.257-.585-.258-.727-.15-.97-.245-.357-.138-.353-.31-.488-.266-.096.03.425.948.688 1.05.96 1.07.816-1.117-.244-1.412-.85-1.224.513.313.406.6-.067.178-1.158.094-1.4.059-.258-.038.016.165.463.378s1.02.462 1.272.577c.37.168.76.508 1.097.497.25-.008.37-.468.347-.46-.023.01-.313.434-.313.434-.712.162-.963.19-.85.263.021-.005.853.244 1.243.284.354.037.372-.058.372-.058.025.28.274.007-.007.365-.256.325-.92-.75-.88-.304.017.2.624 1.022.926 1.348.302.325.418-.69.782-.565.182.062-.24-.286-.09-.065.15.222.89.996 1.013.96.198-.058.084-.536.152-.347.068.188-.608 1.299-.39.907.04-.07.635-.468.878-.223.13.13.475.043.475.043.777.19.394.346.396.432.001.086.138-.257.32-.14.261.166-.483.776-.198.893-.634.623 1.348.102 1.854-.106.2-.082.074-.45.09-.535.02-.13-.74-.041-.398.084-.58.188.885-.17 1.576-.067.384.056 1.543.842 1.586.76.062-.12-1.536.829-1.917.575-.38-.254 1.66-.603 1.66-.603s-.459-1.578-.376-1.785c.084-.206.42.5.196.236-.155-.184-.347-.348-.527-.41-.202-.124-.424-.383-.624-.4-.21-.015-.373.265-.633.16-.263-.103-.083-.345.173-.4.256-.054.417-.056.425-.192.016-.262.895-.436.73-.417-.164.019-1.96.136-2.477-.001-.345-.091-.068.972.337.908.405-.064.967-1.216.624-1.297l-1.715-.892zm34.084-9.362c.48-.247.088.15.612-.014.251-.08-1.235-.203-1.307-.1-.07.105.49 1.49.601 1.34.1-.131.843-.25 1.333-.625.49-.377.97-.77 1.063-.902.258-.364-1.75-.74-1.21-1.05.215-.123.017 1.076.587 1.095.57.018 3.17-.706 3.11-.814-.095-.175-.808-.767-.95-.922-.06-.066-.158-.333.177-.46.046-.297.773-.192 1.26-.301.395-.088 1.02-.246 1.076-.337.053-.086.19.804-.092.906-.32 1.07-2.632-.96-1.994-1.728-.57-1.293 1.122.067 1.507.229.316.132-.318.007-.07-.15.221-.14-.008.026-.312.217-.305.19-.732.433-.997.51-.39.112.99-.55.74-.323-.185.168-.597-.134-1.043-.01-.447.123-1.052.616-1.052.616.435-.586.41-.85.313-.83-.195-.061-.042.367-.259.603-.218.237-.71.354-.71.354-.2-.197-.12.384-.14-.071-.017-.414-.075-1.323-.394-1.636-.144-.14.154.49.008.714-.146.224-.618-.8-.974-.658-.18.072-.968-.213-1.14.105-.174.319.284 1.223.214 1.33-.113.174-.52-.731-.7-.82-.18-.088-1.057.894-.967 1.332.016.08.692.627.348.598-.183-.015-.536-.793-.536-.793-.714.36-1.243.468-1.115.443.128-.024.664-.541.45-.511-.307.043-1.604.625-1.798.792-1.344.712.193.413.495.558.087.042-.1-.185-.064-.125.067.112-1.13.284-1.39.44-1.08.063-.665-.514-.708-.478-.334.28.668 1.345.72 1.57.031.13-.91 1.308-.626 1.22.284-.088 2.996-.335 2.996-.335s-1.32-1.532-1.959-1.612c-.638-.08-.884.832-.543.888.238.039.49.01.787.03.273-.044.557-.272.871-.278.305-.005.668.268.923.18.267-.09.147-.124-.01.09-.158.212-.525.537-.443.646.158.209 1.2.066 1.41-.025.21-.09-1-.224-.519-.455.321-.155.204 1.235.213 1.493.01.258.173-.576.486-.738l-.463-1.047zM35.788 42.26c-.214-.047 1.31-.897 1.102-.98-.198-.08-2.545.718-2.694.75-.132.027.18 1.135.05 1.165-.177.042 1.217-.603.968-.648-.2-.035-.636-.34-.657-.247-.017.075-1.332-.674-1.329-.594.002.05-.845 1.259-.87 1.274a156.08 156.08 0 0 0 1.956-.704c-.078.024-.053.048-.164.01-.11-.035-.682-.29-1.478-.4-.21-.027.526.393.731.48.152.065.177.114.315.11.204-.006.718.872.718.872-.436.093-1.126-1.246-1.036-1.435.09-.19 1.632.742 1.632.742.01.107-.866-.266-.98-.13-.105.126.04.33.055.502.014.154.194.232.49.327.15.047 1.388.076 1.49.048.161-.044-.832-.104-.655-.404.016-.027-.134.198-.035.292.053.05.17.204.17.204.634.146.5.266.648.355.32.19.38.094.412-.081.013-.075.226.11.44.186.214.074.042-.73.078-.796.05-.091.31.884.31.884s.447-1.11.265-1.312c-.095-.106-.847-.566-1.026-.42-.179.147.232.88.077.824-.215-.08.112-.808.12-.913.012-.2-.87.935-1.293.83-.28-.07.882-.05.602-.111zm2.83 9.772c-.272-.056 1.552-1.192 1.29-1.29-.25-.094-2.63.716-2.82.753-.167.032.05 1.104-.114 1.14-.224.05 1.266-.567.95-.62-.253-.042-.803-.401-.83-.292-.02.09-1.397-.678-1.394-.582.002.062-.902 1.254-.992 1.252-.09-.002 1.896-.76 1.808-.735-.1.028.028.072-.028.05-.057-.023-.622-.27-1.63-.4-.267-.034.632.425.892.53.192.076.144.148.318.143.26-.007.847.878.847.878-.553.11-1.225-1.22-1.089-1.405.136-.185 1.755.745 1.755.745.013.128-.837-.274-.982-.11-.133.148-.019.339.001.542.02.184.247.277.623.39.19.057 1.471.087 1.6.054.205-.053-.802-.026-.578-.383.02-.033-.114.157.011.269.067.06.207.248.207.248.804.175.528.28.717.387.203.114.342.14.437.122.095-.018.15.03.17-.074.018-.09-.108-.8.161-.742.27.058 1.324 1.362 1.37 1.283.064-.11-.865-1.75-.865-1.75s.204.497-.026.256c-.12-.126-.126-.085-.169-.013-.042.072-.299-.574-.496-.643-.272-.096-.358.915-.349.79.016-.24.307.006-.227-.12-.357-.083.657-.727.301-.8zm15.361 11.06c-.166.134.906-1.03.674-.934-.224.093-2.357.98-2.347 1.126.01.129.18 1.553.195 1.682.022.176 1.472-.782 1.3-.62-.14.13-.862.215-.688.309.142.076-1.205-.472-1.046-.407.102.042-.758 1.438-.8 1.657-.045.22 1.987-.3 2.005-.227.02.082 0-.218-.1-.43-.103-.212-.613-.493-1.099.054-.128.145.6.043.843-.048.18-.067.628.185.667.07.058-.168.458.48.458.48.035.429-.614-.97-.602-1.302.011-.332 1.36.372 1.36.372.214.082-1.026-.346-.795-.14.21.19.28.496.621.626.308.118.527.039.814-.12.144-.08 1.286-.188 1.266-.292-.032-.167-.096-.26-.626-.653-.048-.035-.602.176-.383.175.116 0 .53.05.53.05.505-.385.583.17.81.125.485-.097.346-.483.01-.655-.14-.073.073-.065.29-.173.214-.108.044-1.1-.074-1.185-.163-.117-.092 1.318-.092 1.318s.383-1.72-.077-1.744c-.24-.012-1.054-.352-1.26-.076-.207.276.21 1.15.042 1.227-.23.106-.239-1.042-.443-1.135-.39-.178-.927 1.044-1.277 1.294-.234.167.331-.364.114-.19zm7.393-36.837c-.25.07.193-.855.187-1.055.773-.976-1.449-.245-1.449-.245-1.46-.627-.232.442-.022.3.12-.082 1.157-.93.877-.966-.247-.032-.233.244-.445.328.012.333-1.313-.207-1.55-.065-1.09-.262-1.035 1.658-1.01 1.986.017.227 2.12-.29 2.003-.115-.13.198-.467.3-.84.31-.41.04-1.13-.195-1.567-.248-.7-.202-.893-.002-1.156.02-.37.03-.326.07-.475.31-.23.37.145 1.484.251 1.71.342.832-.67-1.174-.67-1.174.214.452 1.717.995.95 1.288-.23.088-.89-.194-1.3-.272-.623-.313-.7-.107-1.014-.167-.48-.055-.867-.123-1.145-.097-.287.028.613.174.63.48.018.293-.13-.002-.44.13-.277-.316-.973.349-1.305.647-.242.218-.374.43-.333.675.031.187.23.413.046.487.064.198-.622.098-1.08.08-.334-.022-.696.07-1.07.043-.383.084-1.168-.837-1.53-.861-.836-.797-.313.73-.48 1.026-.107.185-.45-.944-.517-.824-.075.137-.606-.357-.464-.281-.35-.466.772.206 1.33.32.307.043.412-.624.69-.546.508-.558.352.892.32 1.524-.927.255-.465.344-.465.344-.472.487-.324.05-.3.169-.307-.04-.412.425-.43.652-.03.327.002.302-.956.77-.24.117-1.262.677-1.08.773-.78.592 1.117.229 2 .222.464.074.655-.226 1.053-.245.466-.022.077.19.295.232.254.049-.13-.244.008.103-.376-.133.852 1.438 1.188 1.835.18.214-1.193 1.353-1.056 1.223.29-.274 1.962.44 2.46.04 1.855.583.241-2.973.292-3.61.026-.338.322.408.322.408-.493.756-.838 1.257-1.02 1.674-.235.41-.305.442-.218.588.006-.195.23.15.434.135.19-.026.412-.272.656-.358.26-.29.38-.333.643-.431.151-.256 1.582-.353 1.822-.39.182-.03-1.198.028-1.198.028.11.57.23 1.502.416 1.402.185-.1.467-1.19.333-.226-.06.439-1.192.02-1.28.254-1.207-.295.61.347.863.95.642-.34-.947.818-1.01 1.195-.06.352.926.497.976.755.08.408-.356.835-.21 1.08-.345.45.67.604 1.133.692.31.13-.216 1.028.025 1.018.314-.014 2.403-.59 2.73-.606.241-.011.764.183.834.006.485.1 1.386-1.62 1.32-2.006-.045-.265-.15 1.349-.045 1.165.126-.218-1.315-.664-1.284-.56-1.405-.09.481 3.208.838 1.839-.365.867.941-.907 1.012-1.136.863-.646-.06-.096-.06-.096.15-.49.345-.346.366-.67.008-.12 1.453.08 1.351-.298 1.332-.212-1.98-2.716-1.606-2.29l.26.257c.104.117.46.39.57.73.35.32-.198.146-.18.45.016.304.311-.181.311-.181.994-.252 2-.542 2.123-.268.75-.074.405.68.118 1.252-.196.39-1.024 1.085-.81 1.2.284.15 1.095-.585 1.364-.543.642-.812-1.509-.572-1.41-.562-1.15-.543 1.883-.61 2.558-.74.712-.82-.305.777-.213.796-.64.8.576-.48.773-.753.177-.247-.227-.251-.244-.468-.022-.288-.608-.385-.416-.514-.399-.1.22 1.02.854.995-.043 1.25 1.363-.527 2.062-.83.3-.422 2.212.263 2.458.146 2.164.263-.168-.253-.444-.688-.07-.112-.047-.37-.042-.46.016-.296-.32-.766-.566-1.066-.387-.415 1.084-1.043.82-1.247 1.064-.933-1.7-.5-2.38-.462-.25.014.62-.37.62-.37s.203-.05.4-.06c.242-.067.246-1.327.442-1.382.157-1.388.612.34.573.34-.017 0-.977-.134-1.15-.371-.196-.268-.996-.69-1.173-.86-.63-.223.41-.318.396-.33.15-.56.451-.706.193-.72.687-.358-.633-.046-1.29.12.07-.18-1.373.84-1.694.94-.26.08.095-.54-.06-.55-.264-.02-.455-.186-.378-.39-.065-.247-1.02-.48-.756-.8-1.008-.374 1.62-.802 2.215-1.228.317-.228-.34-.147-.364-.347-.07-.56 1.07-1.673 1.013-1.833 1.081-1.077-1.688-.74-2.44-.215-1.343-.74-.444.402-.507.85-.04.283-.91 1.532-1.146 1.58-.332.07.417.39.572.062.926.156.55-.652.77-1.238.35-.33.398-1.304.328-1.74-.044-.278-.186-.505-.43-.437l-1.259 1.053-.397-.265z"/><path d="M41.685 19.366c-.335.068.035-1.112.088-1.36.856-1.375-1.53-.64-1.95-.658-.105-.004.442 1.29.305 1.276-.33-.032-.259.186-.375.17.11.24-.04.145-.219.186-.113.027-1.324-.554-1.478-.384-.13.146-1.13 1.43-1.307 1.508-1.204 1.345.863.096.755-.083 1.226.383-.716-.26-1.149-.353-.195-.042-.629-.24-.665-.198-.347.409-.186.769.117 1.005.302.235.851.336.277.497-.23.065-.214.875-.57.816-.15.752-1.785-1.58-2.31-1.847-1.167-1.428.202.27.244.667.01.096-.954-.04-.95.024.027.324-.22.547-.408.74-.188.193-.366.383-.293.703.03.137.956.27.77.32.703.135-.935-.402-1.733-.444-.298-.487-.912-.072-1.315-.05-.495-.034-.827-.02-1.15.037-.459-.02-.36.27-.588.38-.245.119-.708.135-.788.242-.075.1-.012.278.133.318.15.152-.012-.715.26-.716.003-.768 1.28.492 1.735.543.538.494.404-.81.53-.794.742-.765.32-.172-.19.35-.668-.512-.14.173-.224.3-.115.182-.464-.303-.679-.048-.342.406-1.586 1.838-2.397 2.13-.24.086-.642.475-.395.497-.166.37.602-.256 1.314-.335.22-.28.726-.02 1.326-.006.525.013 1.258-.367 1.473-.336.38.053-.66 1.06-.679 1.548-.018.488 1.006.535 1.3.33.29-.202.381-.596.694-.767.112-.39-.266-.266.02-.316.224-.04.842-.662.842-.662-.577.648-.59 1.307-.74 1.634.237.366-1.343 1.538-1.337 1.636-1.206 1.647 2.25 1.006 3.26.39 1.83.724.18-2.678.206-3.263-.583-1.771.245.28.29.373l.266.399c.11.419.15-.045.196-.12.045-.073.096.23-.038.94-.082.43-.212.49-.325.688-.135.027-.41.3-.444.6-.026.236 1.08.496 1.184.885.08.3-.45.448-.382.645-.482.217.268 1.664.676 1.798.114 1.209.61-.327.96-.643.18-.162-.715-1.048-.543-1.054.24-.008 1.157-.52 1.543-.494.88-.52-.408.386-.214.485.271.138 1.491.032 1.643-.162.157-.2-.245-.005-.11.19-.37.367.521.77.78.984.25.23-.364 1.15-.246.969.11-.167 1.96-1.044 2.013-1.63.012-.13.13-.41-.084-.907-.213-.497.676-2.217.968-1.974.156.13 1.391 1.615 1.245 2.203-.146.588-3.182-.166-3.182-.166.994-.185 1.173.783 1.513.91.071 1.115 1.544-.547 1.803-.55.127 0-.662.565-.489.633.34.134 1.465.315 1.786.34.823.108 1.605.545 1.64.546 2.385.578.421-1.17.062-1.982 0-.534.255-.282.255-.282-.143-.325-.293.124-.328-.21-.022-.211-.286-.937-.118-1.03-.122-.714.591-1.411 1.06-1.356.45-1.23 1.675-.017 2.184.297 1.12-.083 1.392.469 1.453.594.744-.292-.573.35-.657.283-.007-.005.516-.86.517-.87.016-.22-1.897-.982-2.19-1.098-1.723-.604.46-.77.46-.77-.205-1.035-1.852 1.27-2.043 1.65-.06.12.892-.86.892-.86s-.084.01.196-.007c.05-.01.132.026.553-.077-.279-.006.41.98.675.72.15-.147.83-1.885.647-2.07-.234-.237 1.167.097.898-.023 1.126.267-1.542.143-2.554.025-.378.506-.659.255-.994.143-.313.275-.884-.526-1.197-.734-.27-.18 1.22-.725 1.026-.735-.265-.015-.292-.218-.377-.318.06-.218 1.06-.71 1.045-.814 1.128-.764-.575-.253-.902-.434-.104-.058-.396-1.377-.416-1.493-.07-.412-.16-.585-.25-.557-.116-.006-1.11.143-1.277.408-1.06.158-.772.358-.833.643-.069.319.837.51.314.592-.332.05.562-.387.587-.558 1-.412.343-.392.354-.472.374-.655-.93-.08-1.486-.077-.116 0 .352-.666.206-.637l-.92.149-1.975.2zM53.105.9c-.327.076 1.432-.12 1.484-.393.772-.976-1.45-.245-1.45-.245.103-.55.474.79-.193.718-.32-.035-.242.19-.353.19.122.257-.017.193-.18.252-.113.042-1.327-.52-1.484-.321-.128.16-1.122 1.453-1.292 1.535-1.195 1.356.896.08.797-.08 1.23.39-.714-.245-1.142-.33-.19-.038-.62-.232-.653-.187-.225.3-.34.607-.174.813-.016.286.63.372.783.508.13.114.361 1.056.021 1.164-.224.072-1.225-1.18-1.594-1.324-.755-1.207.506-.093.425-.12-.033-.26-1.907-.433-2.328-.156-.159.104.005.52.017.687.026.357-.277.522-.522.659-.246.136.59.293.66.645.03.152-.013-.22-.245-.166-.168-.408-.75.04-1.195.065a10.474 10.474 0 0 0-1.284-.024c-.543-.06-.59.16-.995.21-.19.165-1.01.097-1.408.175-.307.06-.532.262-.61.38-.073.113-.403-.586-.262-.546-.18-.708 1.007.568 1.464.604.534.489.407-.822.55-.815 1.22-.787 1.436-.153.378.692-.587-.594.018-.018.018-.018.017-.017-.178-.75-.178-.75-.432-.547-1.318 1.104-1.619 1.733-.242.508-.13 1.094-.73 1.338-.234.095-.54-.076-.342-.058-.106-.197.216.087.8.107-.02.066 1.001-.342 1.627-.33.478.01.096.84.295.873.247.04.44.306.582.524.152.282-.007.22.102.357.124.157-.523.442-.32.28.282-.222.165-1.018.624-1.2.003-.805 1.668.013 2.204.077.345.042-.965 1.134-.965 1.134-.56.716.34 2.285.228 2.56 1.202 1.106-.598-1.438-.598-1.438-.77-1.018-.25-.03.13-.22.03-.62.773-.465 1.25-.701.378-.267.747-.7 1.051-.83.291-.126.552.103.552.103.108.462.196.09.233-.008.037-.097-.149-.053-.28.73-.078.474.734.606.65.843.804.138-1.149.478-1.404.89-.146.234.234 1.74.318 2.095.077.33.23.558.39.653.186.132-.699-.626-.476-.67-.738-.78 1.702-.423 2.435-.306.362.057-.832.894-.597.885.234-.01.653-.06 1.021-.187.436-.092.18-.19.49-.378.324-.198 1.213-.433 1.342-.62.152-.222-.389.85-.257 1.06-.356 1.507 2.144 1.566 2.493.372 1.124.31.138-.12-.13-.424-.216-.243.622-1.81.636-1.99.008-.096 1.19.614.99.47 1.008.62-3.24-1.52-3.437-1.556-.036-.006 1.092 1.402 1.151 1.458.1.095 1.15-.444 1.351-.343 1.267-.444-.048.93-.048.93l.848.2c.967-.204 2.8.297 2.797.349 1.53.614-1.446-.476-2.048-.405-.23.028-.082.32.06.383.331.147.885.22 1.177.26.445.01.04-.553.208-.575-.057-.623.536-1.358.772-1.441.237-1.39 1.127.03 1.205.036.027.002.15-.004.133-.18-.026-.28.093-.417.292-.496.203-.06 1.011-.912 1.324-.893.831-.81-1.15-.46-.912-.326-1.344-.388 2.077.02 2.703.065.216.015-.813 1.523-.803 1.375.015-.241.18-.802.01-1.09.1-.574-.727-.55-1.009-.775-.506-.167-1.096-.237-1.233-.355-.194-.17-.237.91-.237.91s.264-.397.621-.565c.345-.453 2.405.163 2.804-.047 2.302.163.355-.458-.055-1.047-.16-.228-.27-.6-.43-.782a5.926 5.926 0 0 0-.918-.815c-.383-.3 1.138-.805.927-.894 1.05-.766-1.412-.252-2.383-.142-.215-.101.452-.43.122-.367-.353.066-1.763.6-1.972.588-.258-.016-.473-1.42-.42-1.582-.156-1.3-.025-.034-.025-.034.076-.343-.222-.38.165-.508.224-.074.672-.317.633-.578-.067-.455.334-.977.29-1.061.372-.414.74-.21.402.112.768-.13-.557.336-1.206.62-.413.182-1.915 1.217-2.208 1.268-.324.057-.515-.15-.378-.428-.032-.328.325-.734.654-1.132.175-.423-.653-.74-.467-.986.174-.232 1.887-.33 1.584-.26l-1.448.518.766-.79z"/><path d="M50.222 11.223c-.32.065.597.118.693-.164.096-.283-2.03.142-2.36.11-.317-.03-.964 1.208-.797 1.45.166.243 1.397-.25 1.208-.045-.112.122-.106.378-.38.356-.074.217-1.603-.59-1.968-.67-.274-.06-.497 1.52-.59 1.627-.222.256 1.425.559 1.776.386.352-.173-.636-.795-1.004-.694-.197.054-.813-.15-1.113-.22-.526-.203-.569-.021-.703-.04-.265-.034-.09-.061-.072.16.016.203.155 1.12-.04 1.204-.197.084-1.396-1.838-1.35-1.64.03.13.59.23.393.36.403.149-1.14.113-1.698.293-.588-.16-.56.26-.735.404-.224.183-.366.37-.443.47-.077.103 1.09.19 1.331.203 1.024.048.082-.467.082-.467.798-.43 1.565.007.51.547-.164-.035-.18-.04-.224-.017-.356.19-.445.653-1.298.953-.205.07-.165.095.006.11.17.005.478.127.792.13.314.003.248-.87.468-.84.244.033.694.992.74 1.433.044.44-.198-.478-.009-.606.28-.19.003-.743.245-.655.242.089 1.02.8 1.02.8-.554.61-.953.19-.973.345-.202-.573-.682.485-.342.483-.57.253.72.172 1.254.053.285-.063.611-.674.611-.674.142.525.064-.14-.108.747-.078.404-.33.186-.285.332.045.146-.657 1.11-.544 1.528.068.25.315.454.62.51.325.136.443-.171.821-.22.382-.05-.017.109.292.099.23-.008.165-.667.628-.777.463-.11 1.77.52 1.894.363.134-.167-1.007 1.197-.937 1.38-1.123 1.52 2.132 1.044 2.53.292.108-.204-1.615-2.98-1.59-3.238.007-.082-.14-.482.045-.364.187.118.681.688.87.84.1.08.2.012.342.239.143.227.328.74.328.74.956-.174 1.04-.315.96-.192-.083.123-.503.375-.249.473.363.139 1.647.026 1.98-.005.911-.162-.589-.096-.589-.096.665-.06.718.948.65.322-.02-.2.17-.33.421-.486.28-.115-.457-1.018-.115-1.164-.579-.918 1.973-.615 2.552-.635.28-.01-1.056.742-1.046.612.015-.183.015-.352-.09-.54-.036-.17-.828-.287-.96-.425-.116-.12.423-.221.423-.221s-.446.95-.157.886c-.277.888 2.333-.29 2.637-.83.13-.23-.523-.576-.667-.718-.188-.185 1.013-1.342.755-1.464.983-1.22-.123.864-1.038 1.072.91.963-2.934-.625-3.649-.832-.37-.107.458 1.194.353 1.189-.34-.02.813-1.128 1.175-1.654.363-.526-.125-.565-.172-.835-.059-.343.67-.36.57-.36.661.104.898.692.323.836-.329.082-2.213-.911-2.523-.864-.426.064.084-.44.34-.656.254-.216.492-.165.072-.08l-1.276-.415zm-19.054 33.24c-.343.058.888-.566.991-.82.103-.253-2.018.203-2.37.175-.338-.027-1 1.197-.848 1.42.153.226 1.373-.292 1.17-.108-.12.11-.127.362-.418.338-.09.215-1.637-.59-2.019-.67-.29-.063-.527 1.51-.627 1.606-.237.23 1.422.516 1.783.33.36-.185-.62-.816-1.013-.725-.21.049-.847-.151-1.168-.213-.55-.201-.614-.015-.764-.028-.277-.023-.115-.046-.096.147.018.183.144 1.09-.063 1.167-.207.076-1.418-1.855-1.368-1.675.032.116.58.21.365.338.383.143-1.184.108-1.77.288-.61-.156-.604.266-.798.409-.25.182-.41.366-.494.458-.082.09 1.094.175 1.352.186 1.023.048.082-.466.082-.466.85-.434 1.73.022.601.524-.16-.04-.172-.05-.21-.031-.379.174-.502.618-1.42.889-.22.064-.174.083.012.095.185.002.517.122.856.123.338.002.296-.873.532-.846.26.03.708.96.75 1.375.04.415-.205-.525-.004-.64.298-.17.046-.706.307-.605.26.1 1.052.82 1.052.82-.592.547-1.006.095-1.028.233-.203-.59-.66.475-.292.487-.55.266.752.21 1.3.108.297-.056.633-.663.633-.663.152.472.081-.1-.103.699-.083.362-.344.128-.305.258.04.13-.666 1.078-.545 1.453.073.224.327.41.643.455.335.122.466-.192.86-.245.398-.053.017.105.347.096.247-.007.197-.66.674-.76.477-.1 1.796.545 1.93.405.215-.225-.899 1.38-.81 1.608.09.226 2.584.179 2.674-.636.01-.074-.898-2.058-1.158-2.551-.26-.494-.167.044.033.18.107.073.324.33.542.634.218.304.37.338.37.338 1.022-.156 1.14-.04 1.068.147-.07.187-.338.25-.066.338.388.124.595.043.925.027.175-.15 1.598-.236 1.83-.368.21-.118-1.167-.23-1.2-.496-.024-.18.048.868.36.832.27 1.084 1.033-.18 1.6-.403.428-.118-.276-1.07-.006-1.262.251-.18 2.017-.18 2.03-.328.016-.164-1.213-.007-1.56-.062-1.06.24-.092.003-.16-.013a12.414 12.414 0 0 0-1.179-.19s.402.057.805-.006c.476.024.168.802.466.65.307-.157 2.216-.89 1.956-1.104-.2-.167-.09-.001-.426-.127-.019.155.45-1.34-.12-1.5.886-1.156-.416 1.045-1.284 1.267-.413.105-3.6-1.123-3.75-1.13-.362-.016-.164.835.498.686.661-.15 2.65-1.946 2.6-2.19-.063-.307-.29-.45-.533-.366-.304-.013.237.423-.122.652-.36.23-.024.887-.48.945-.455.058-.568-.93-.679-1.38-.11-.448.035-.64-.415-.565l-.747.266zM23.655 55.39c-.4.198.244-.728.177-.902.764-1-1.465-.29-1.473-.313-1.554-.55-.434.494-.313.4.083-.063 1.044-.845.53-.718-.338.083-.392.434-.654.563-.042.38-1.387-.13-1.63.024-1.062-.273-1.169 1.516-1.236 1.735-.944 1.534 1.688.46 1.771.524.022.017-1.29-.35-1.348-.26-.109.166-.615.154-.845.286-.502-.054-.575.264-.787.36-.436.172-.377.203-.62.305-.237.132-.354 1.116-.68 1.265-.013.994-1.48-1.168-1.827-1.221-.205-.031.973 1.117.892 1.248-.28.453-.499.428-.33.566-.09-.08.63.333.653.574.013.143-.13.322-.577.573-.206.116.553.26.253.34.5.19-1.162-.227-1.91-.143-.323-.422-.946.055-1.348.135-.452.01-.738.06-1.02.147-.404.012-.27.315-.477.437.054.25-.509.254-.67.373-.118.086-.173.295-.13.39.112.25-.42-.308-.645-.117-.683-.516-.172 1.28-.228 1.762-.03.25-.274-.837-.162-.68.064.09-.548-.402-.642-.292-.665-.503-.18.176-.336.287-.173.12-.61-.463-.892-.302-.527-.55-1.677.695-2.105.958-1.02.314-.654.462-.747.52-.676.48-.753.05-.944.18-.712.038-1.216.565-1.48.82-.823.329-.705.185-.808.434-.38-.045-1.082 1.233-1.067 1.578.006.146 1.063-.105 1.018-.022-.052.1-.266-.042-.179-.022-.127-.171-.69.023-.404-.043-.609-.07.443-.854 1.082-1.043-.14-.71 1.18-.05 1.625-.153.563.135-.74 1.122-.503 1.075-.355 1.058 2.993.687 3.53.618 1.66 1.048-.228-1.678-.86-1.59-.598-1.438-.29-.46-.29-.46-.29-.46-.027-.065-.027-.065a2.65 2.65 0 0 1-.067-.317c-.338-.28-.493.462-.782 1.055-.186.372-.41.638-.686 1.09a5.91 5.91 0 0 1-1.769 1.787c-.21.133.625.053.654.097.912-.163-.588-.096-.588-.096-.538-.023.255 1.182.74 1.107.301 1.063 1.023-.277 1.621-.582.394-.147-.308-1.116.054-1.32-.582-.98 1.883-.767 2.575-.73.405.02-.778.837-.602.8.438-.094.803.142 1.025.424.288.302-.2.714-.059.93.155.236.946.308 1.233.026.244-.24-.17.495.104.256-.207.565 2.18-.55 2.728-1.075 1.533.016.83-.68.75-1.045.354.092.916-1.683.916-1.683l-.09 1.872c-.474.728-2.336.84-2.59 1.253-2.346.925-.703 2.188.194 1.572-.216.827 1.223-.914 1.425-1.09.863-.645-.06-.095-.06-.095.005-.153.918-.01.982-.067.944-.038 1.83.253 1.952.107 2.173-.22-.089-2.394-.447-2.85-.104-.665.08.043.08.043l-.018.263c.348.445.037-.385.007-.51-.03-.126.17-.834.222.094.023.422.577.417.507.795.51.098.378.699.202 1.243.586.065-.468.953-.63 1.44-.114.337.385-.191.576.053.125.159-1.5-.388-1.419-.413-1.586-.646.787-1.05 1.025-1.397.46-.77-.714.785-.714.785-.463.42.853-1.132 1.243-1.64.386-.43-.054-.284.06-.425-.018-.312-.116-.528.22-.79-.38-.15.283.778.824.58.328-.121 1.28-1.794 1.483-1.865.24-.084 2.17.379 2.458.36 1.655.504-.027.548-.027.548.711.502.951.02 1.073-.38.087.25-.114-.61-.07-.876.023-.156 1.785-.693 1.834-.78.105-.186.378-.434.55-.493.265-.188 1.45-.602 1.608-.597 1.157-.54.06-.06.06-.06.09-.057-.098-1.295-.07-1.292.468-1.23.897 1.18.883 1.17-.025-.033-.905-.088-.906-.09-.01-.02.216-.416.057-1.267-.016-.083.521-.265.702-.05.617-.074 1.384.237 1.62.625 1.256.1.554.789.59 1.236.025.325-1.004 1.462-.76 1.519.124.028.02.13.05.332-.14.172-.108.453-.12.752-.157.26-1.355.635-1.364.928-1.347.53 1.434.97 1.633 1.042.02.007-.845.31-.845.31.954-.455 2.773-1.53 3.194-1.692 2.263-1.21-.783-.67-1.213-.12-1.187-.758.02.4.39.78-.066-.294-.706.923-.566 1.087.125.145 1.957.157 2.023.155.388-.014.867.229 1.205.15.464.212.691-.148.978-.297.33-.105.584-.367.816-.584.226-.22-.022.39.128.153-.17.425.626-1.093.782-1.693.188-.315.325-.54.343-.72.265-.393.481.07.405-.103-.099-.224-.038-.443-.136-.642-.08-.163 1.285-1.273 1.37-1.43 1.353-.95-1.14.644-1.14.644-.997.377.161-.803.611-1.037.014-.47 2.05-.197 2.495-.348 1.292.142-.843-.557-.843-.557-.274-.751 2.04.636 2.536.512 1.416.836.148.047.208-.362-.53.293.066-.506.2-.902.076-.225-.778-1.513-.8-1.62-.039-.18.184.184-.014.123.095.396-.612-.29-1.054-.284-.259-.18-.493-.32-.816-.274-.24-.302-.455.29-.795.424.005.237.316 1.14.058 1.194-.17.034-1.532-.382-1.532-.382s-.453-.655-.19-.783c-.298-.736 1.9-.495 2.448-.72 1.185-.18.347.414.448.37.667.269 1.177-.66 1.456-.97.551-.502-.336.59-.604.32-.145-.144 1-1.777.687-1.88a4.557 4.557 0 0 0-.84-.19c-.29-.04-.592-.025-.898-.023-.308.033-.425-.01-.74.024-.184.008-.822-.012-1.215.065-.375-.052.33.877.016.96.435.88-1.154.152-1.847.178-.29-.022-.686.337-1.02.353-.353.329-.533.073-.838.029-.324-.047-.732-.23-.97-.164-.358.1.686-.837.658-.964 1.203-.902-.52-.241-.52-.241-.549-.361.453-.665.54-.816.536-.594.371-.833.435-.976.106-.236-.114-.29-.334-.656-.184-.307-.16-.294-.302-.397.013.087-.98.004-1.162.078-.653.13-.17.055-.17.055-.375.138.647.935.472 1.153.774.958.671.68-.15.856-.455.097-2.896.35-3.377.567-.429.193-.66.249-.678.059-.078-.102.551-.5.77-.926.595-.29-.3-.576-.17-.951-.507-.286-.703-1.081-.682-1.292.012-.126 1.412-.176 1.1-.022l-.564.576-.806.318-1.14.479-1.46.29zm40.7 13.52c-.344.059.888-.565.99-.82.103-.252-2.017.203-2.37.175-.338-.026-1 1.198-.847 1.422.153.224 1.373-.293 1.17-.11-.12.11-.127.363-.419.339-.09.215-1.637-.59-2.018-.671-.29-.063-.528 1.51-.627 1.607-.238.23 1.422.516 1.783.33.36-.185-.62-.816-1.013-.725-.21.048-.847-.151-1.168-.214-.55-.2-.614-.015-.765-.027-.276-.023-.114-.047-.095.147.018.182.144 1.09-.063 1.167-.208.076-1.418-1.855-1.369-1.675.032.116.58.21.366.337.383.144-1.184.11-1.77.29-.61-.157-.604.264-.799.408-.249.182-.41.366-.493.458-.082.09 1.094.175 1.352.186 1.023.048.081-.467.081-.467.85-.433 1.73.023.602.524-.16-.038-.172-.05-.21-.03-.379.173-.503.618-1.42.889-.22.064-.175.083.012.095.184.002.517.122.856.123.338.002.296-.873.532-.846.26.03.708.96.75 1.375.04.415-.206-.525-.004-.64.298-.17.045-.706.306-.605.261.1 1.053.82 1.053.82-.592.547-1.006.095-1.028.233-.203-.59-.66.475-.292.486-.55.267.751.212 1.3.109.297-.057.633-.663.633-.663.151.47.08-.1-.103.698-.084.363-.344.129-.305.259.038.13-.666 1.078-.545 1.452.072.225.327.412.642.456.336.122.466-.192.86-.245.398-.053.017.105.347.096.247-.007.198-.66.675-.76.477-.1 1.796.545 1.93.405.214-.225-.899 1.38-.81 1.607.09.227 2.583.18 2.674-.635.008-.074-.898-2.058-1.159-2.552-.26-.493-.166.045.034.182.106.072.324.328.542.632.218.304.37.34.37.34 1.021-.157 1.14-.042 1.068.145-.07.188-.338.25-.066.338.388.125.595.044.924.028.175-.151 1.598-.236 1.832-.368.21-.118-1.168-.23-1.202-.496-.023-.18.05.867.36.832.271 1.084 1.033-.18 1.601-.403.428-.12-.276-1.07-.006-1.262.25-.18 2.017-.18 2.03-.328.015-.164-1.213-.007-1.562-.062-1.06.239-.09.003-.16-.013a12.413 12.413 0 0 0-1.178-.19s.403.057.806-.006c.476.024.168.802.466.65.307-.158 2.216-.89 1.955-1.105-.2-.166-.089 0-.426-.126-.018.155.451-1.341-.12-1.5.887-1.156-.415 1.045-1.284 1.267-.413.105-3.6-1.123-3.748-1.13-.363-.016-.165.835.496.685.662-.15 2.65-1.945 2.6-2.188-.063-.31-.289-.45-.532-.367-.304-.014.237.422-.123.652-.359.23-.023.887-.479.945-.455.058-.568-.93-.68-1.38-.11-.448.036-.64-.414-.565l-.747.266zM26.806 13.658c-.23.064 1.204-1.157 1.24-1.39.832-1.36-1.678-.565-2.046-.567-.077 0 .51 1.295.43 1.284-.226-.03-.07.183-.114.158.195.225.111.1-.008.143-.063.022-1.223-.568-1.316-.428-.12.182-1.085 1.475-1.215 1.56-1.056 1.327 1.415-.19 1.397-.21-.004-.003-1.322-.39-1.358-.334-.238.38-.36.458-.199.634.163.176.412.514.02.664-.212.08-.4-.003-.699-.108-.213-.123-.33.572-.585.535-.22-.032-1.38-1.986-1.366-1.756.018.302.671.688.658 1.102-.013.415-.994.608-.945.905.032.192-.163.32-.412.374-.287.08-.615.082-.959.08-.398.026.315.033.02.06-.31.027-1.492-.417-1.587-.243-.068.125-.1.147.077.198.077.004.42.006.742.04.225-.05.956.185 1.19.272.364.132.122.045.162.076.165.123.062.437-.47.774-.362.229-1.31-.356-2.106.033-.22.107.295.735.582.894.618.603.613-.66.883-.633.416.042.13.263.417.318.26.05.384.61.476 1.13.092.52-.027.245.174.054.298-.282-.218-.091.117-.085.335.006 1.057.172 1.057.172-.474.725-1.04.952-1.1 1.2-.417.099-.38.387-.033.267-.23-.054.531-.682.994-.904.141-.55-.194.195.128.167.24-.02 1.467-.392 1.467-.392.075.39-.1.022-.08-.082.021-.104-.78.085-.873.745-.056.4-.58.049-.507.227-.458-.351.823.818 1.14 1.293.167.25-1.24 1.564-1.184 1.85.073.372 1.53 1.605 1.874 1.608 1.632 1.11-.068-2.06.106-2.535.105-.286.544.46.79.449.248-.011.543-.061.838-.1.294-.04.52-.386.654-.618.143-.248.287.004.422.365.136.353.253.634.36.777.106.14.03.03.09-.864.008-.123.954-.698 1.037-1.024.083-.326-1.287-.497-1.087-.27.107.12.3 1.616.591 1.954.293.337.716-.446.716-.446.681-.173-.096-.92-.02-.868-.929-.64.962.259 1.255.656.08.108-1.37.986-1.293 1.027.291.156.712.24 1.066.21.417.002.137-.031.44-.203-.173-.101.958-.466 1.3-.856.242-.275-.36.32-.382.026-.023-.296 1.267-.06 1.587-.226 1.24.364.71.149.86.065.898.03 2.214-1.724 2.365-2.197.085-.267.038 1.326.052 1.057.015-.271-1.837-1.07-2.302-1.423-1.61-.522-.577.794-.655.727-.64-.542.684-2.332.684-2.332s.106-.054.3-.036c.134-.08 1.217.139 1.34.063.124-.075.882.192.626-.16-.2-.275-.518-1.038-.898-1.227-.369-.718-.54-.557-.977-.598-.26-.33-.888.046-1.416.146-.404.076-1.353-.422-1.584-.44-.242-.017-.24-1.397-.069-1.54.168-1.47 1.247-.331 1.516-.257.157.043.375.083.35-.115-.063-.512-.207-.65-.43-.62-.215.046.016-.59-.338-.362-.355.228-3.024.699-3.48.794-.304.064.367-.853.75-1.067.722-.918-.16.55.083.504.464-.087 1.74-1.082 1.347-.973l-1.276.39z"/></g></g></svg>