<svg xmlns="http://www.w3.org/2000/svg" width="196.846" height="439.88" viewBox="0 0 52.082 116.385" version="1.1"><g fill="#3c3000" fill-opacity="1" stroke="none" stroke-width="1.115" stroke-linecap="butt" stroke-linejoin="miter" stroke-opacity="1"><path d="M25.094 74.856c-.145 0-.814.462-1.396.716-.732.32-2.334 1.03-2.334 1.03.055.143 2.508-.929 2.99-1.016.278-.05.725.342.725.342z" fill="#3c3000" fill-opacity="1" stroke="none" stroke-width=".295"/><path d="M27.112 114.851c.18-3.07-.082-15.55-.082-15.55v-33.71l-.902-40.183.574-12.495s-.086-6.23-.169-9.185c-.033-1.177-.252-4.665-.323-3.49-.055.896-.246 8.36-.246 8.36l-.164 6.293-.656 11.326-.165 20.226-.164 30.654-.41 22.023s.337 5.587.082 8.36c-.039.427-.243 1.117-.275 1.545-.097 1.285.135 2.34-.068 3.611-.147.926-.73 2.314-.723 2.575.06 2.11 3.612.991 3.691-.36z" stroke-width=".295"/><path d="M25.588 44.491s1.637-.407 2.112-.85c1.028-.964 1.271-3.05 2.378-4.092 3.41-3.203 10.347-6.358 10.766-6.52.402-.157 7.508-.449 9.043-.247.875.115 1.642 1.468 2.195 1.374 0 0-1.135-1.433-2.05-1.6-2.174-.395-6.625-.164-6.625-.164s-1.846-.018-2.645.246c-1.33.44-3.814 1.836-3.814 1.836l-5.7 3.568-1.23.871s-.793.578-1.067 1.17a6.14 6.14 0 0 0-.41 1.21c-.185.776-.632 1.611-1.337 1.987-.505.27-1.719.001-1.719.001zm.488 1.78s-1.166-1.14-1.88-1.876c-.335-.346-.925-1.023-1.322-1.212-.627-.3-1.549.031-2.19-.16-.82-.245-2.04-1.192-2.04-1.192s-1.729-1.592-2.732-2.05c-1.906-.868-3.877-1.272-5.768-1.227-1.119.026-3.39 1.155-3.282.798 0 0 1.564-.88 2.474-1.11a4.57 4.57 0 0 1 1.414-.138c1.542.092 3.396.353 4.922 1.056.43.2.81.407 1.214.61.41.203 2.232 2.135 3.662 2.655.735.267 1.873-.314 2.17-.146 1.182.67 2.87 2.212 2.87 2.212zm.872 32.87c1.805.328 1.7.402 2.06.8a160.766 160.766 0 0 0 3.877 4.06c.397.402 1.593 1.685 1.958 1.866.858.425 1.92.067 3.424.164 1.188.077-3.355.29-3.568.154-1.206-.774-2.71-2.54-3.537-3.384-1.238-1.265-1.333-1.67-2.656-2.553-.56-.373-1.558-.369-1.558-.369zm-.54-17.208s2.583.484 3.76 1.132c1.496.823 4.032 3.277 6.652 5.065.942.642 2.92 2.217 4.505 2.824.61.234 1.553.41 2.09.56.982.274 2.221.425 3.058.588 1.398.272 2.638.14 3.787.55.636.227 1.2.51 1.563.994.21.28-1.44-.677-2.215-.738-2.923-.23-5.838-.55-8.477-1.182-2.512-.602-4.279-2.698-6.46-4.275-1.544-1.116-3.01-2.79-4.749-3.566-1.049-.468-3.404-.533-3.404-.533z" stroke-width=".295"/><path stroke-miterlimit="4" d="M26.408 61.933l-6.824-2.556s-2.07-.566-2.294-.602l-1.422-.222c-.37-.133-.367-.43-.367-.43-.11-.125-3.662-.978-4.315-1.006-.41-.018-.594.3-.977.218-2.216-.472-5.788-1.078-6.39-1.568-.89-.726-.67-1.638-1.434-2.2-.6-.444-1.3-.392-2.24-.71-.788-.268 1.858.075 2.55.536.775.516.996 1.997 1.415 2.175 1.66.706 4.82 1.25 6.16 1.36.43.036-.148-1.61-.448-1.767-1.1-.58-4.065-.74-4.282-1.056-.316-.464-1.39-3.153-1.303-3.54.031-.144.907 2.33 1.58 3.295.277.397 3.68.733 4.463.986.2.064.246 1.062.65 1.47.33.33 4.736 1.626 5.641 1.405.56-.137-.182-2.645-.672-2.813-.95-.325-3.29-.453-3.32-.52-.073-.167.038-1.526.064-1.704.012-.08.206.592.361 1.375.055.276 2.934.13 3.418.45.408.27.834 2.543 1.468 3.375.25.327 2.877 1.354 3.15.897.124-.208.398-3.71.276-3.826-.308-.295-4.402-2.897-4.444-3.095 0 0 4.436 2.378 5.066 2.841.302.222-.062 3.266.596 4.333.353.573 3.49.504 3.49.504z" stroke-width=".741" paint-order="normal"/><path d="M26.023 59.538s.877-.423 1.444-.606c.79-.255 1.666-.977 2.458-1.23.43-.136.65-.076 1.081-.21.542-.17.947-.625 1.526-.828.605-.21 2.013-.402 2.013-.402s.596-.667.742-1.208c.176-.657.063-2.226.063-2.226s-.137 1.486-.423 2.162c-.155.365-.342.767-.679.975-.419.26-.946.063-1.462.212-.293.085-.91.254-.91.254s.402-.69.677-.975c.386-.399 1.335-.996 1.335-.996s2.08-1.679 2.586-2.458c.311-.48-2.268 1.716-2.268 1.716s-1.44.822-2.077 1.484c-.434.45-1.187 1.568-1.187 1.568s-1.333.136-1.822.34c-.58.24-.775.885-1.272 1.017-.63.167-1.64-.424-1.64-.424zm-1.19 25.232s-1.27 1.347-2.159 1.715c-.815.34-2.779.657-2.779.657s-.955 1.287-1.693 1.68c-1.088.58-4.298 1.131-4.298 1.131s-2.5.978-3.386 1.68c-.92.726 1.818-.878 3.43-1.35 1.486-.438 3.204-.488 4.515-1.17.785-.408.98-1.183 1.78-1.57.664-.32 1.627-.183 2.257-.364.593-.17.598-.373 1.172-.584.35-.129 1.134-.116 1.134-.116zm.18-16.968s-.65 1.87-1.563 2.408c-.42.25-1.097.01-1.547.225-.793.376-1.304 1.385-2.087 1.775-1.196.596-2.575.45-3.845.636-.9.131-1.737.403-2.579.242-.603-.115-1.617-.71-1.617-.71-.47.294.748.773 1.336.953.628.193 5.228-.355 5.228-.355s1.22-.199 1.76-.43c.91-.388 1.166-1.208 2.04-1.625.444-.214 1.64-.187 1.64-.187.312-.175 1.437-.15 1.17-.603zm-.007 8.68l-2.41.235-2.494 1.044-1.914-1.044-1.827-.058-1.363-.957 1.131 1.16 1.392.232L17 77.5l-.26.841.608.957L17 78.37l.29-.667.725-.464 1.914.928 2.9-.899h1.334l.715.592zm.222-29.622s3.335-.15 4.976-.434a37.121 37.121 0 0 0 5.704-1.482c1.34-.46 2.89-.836 4.06-1.638 1.392-.957 3.316-3.346 3.458-3.715.094-.247.445-3.18.58-3.172 0 0-.147 1.065-.207 1.574-.04.343-.162.965-.074.982.222.042.636-.237.775-.499.095-.177-.103-.558-.037-.614.063-.054.226.362.15.597-.124.372-.647.53-.877.847-.082.113-.075.274-.145.396-.394.69-1.55 1.743-1.516 1.838.087.24.54.123.765.027.384-.164.578-.766.967-.892.22-.07.403.007.496.12 0 0-.298-.105-.474-.015-.343.177-.524.755-.898.94-.24.117-.508.001-.826.137-.77.332-1.283 1.3-1.959 1.794-.61.448-2.045.988-2.045.988s.443.518.751.545c.612.055 1.157-.448 1.66-.802.383-.27.745-.86 1.005-.989.477-.236-.564.93-.985 1.256-.497.384-1.06.793-1.729.75-.41-.025-.628-.472-1.07-.526-1.07-.13-2.145.621-3.145 1.047-.18.077.095.037-.15.028-.168-.007-.532.1-.7.107-.569.025-2.418.977-3.69 1.226-.814.16-1.662.06-2.485.165-.42.054-1.25.24-1.25.24z" stroke-width=".295"/><path d="M33.865 45.612s2.328-1.43 3.122-2.117a23.444 23.444 0 0 0 2.598-2.656c.575-.685 1.29-1.392 1.66-2.206.44-.97.701-2.885.658-3.13-.03-.165-.548-1.25-.472-1.29 0 0 .02.01.153.305.09.2.227.574.28.554.134-.05.573-.19.562-.377-.007-.127-.16-.175-.143-.226.016-.05.223.087.257.24.055.24-.54.292-.562.538-.008.088.05.173.05.261.012.5-.189 1.4-.14 1.44.126.1.52-.038.61-.163.153-.213.24-.468.32-.564.156-.188-.135.417-.277.638-.092.142-.487.12-.614.297-.308.43-.27 1.118-.474 1.606-.184.44-.962 1.198-.547 1.16 1.02-.093 2.343-.813 2.22-.68-.128.14-1.077.566-1.484.68-.224.061-.838.17-1.094.284-.62.278-.957 1.034-1.358 1.59-.073.1.004.271-.13.346-.094.051-.197-.056-.286.003-.298.198-.987 1.314-1.593 1.862-.388.352-.878.573-1.289.898-.21.166-.597.535-.597.535zm-7.737-12.24s-1.632-.573-2.287-1.11c-.536-.439-.916-1.05-1.256-1.655-.709-1.257-1.407-2.594-1.598-4.025-.17-1.277.427-3.765.437-3.839.166-1.168-.72 2.566-.635 3.894.038.593.47 1.737.47 1.737s-.494-.58-.7-.898c-.358-.55-.912-1.742-.912-1.742-.23-.28.55 1.51.964 2.19.208.343.541.598.746.941.45.752.6 1.656 1.04 2.414.3.514.627 1.035 1.076 1.426.61.528 2.115 1.171 2.115 1.171zm6.6 12.856s-.36-1.172-.328-1.77c.025-.49.215-.965.416-1.41.42-.935.89-1.894 1.626-2.604.656-.633 2.326-1.338 2.373-1.363.736-.396-1.766.667-2.488 1.273-.322.27-.794.998-.794.998s.123-.526.218-.778c.163-.434.611-1.25.611-1.25.064-.25-.63.947-.844 1.47-.108.261-.114.56-.224.82-.24.572-.693 1.038-.94 1.607-.168.387-.328.792-.36 1.213-.047.568.22 1.698.22 1.698zM26.125 22.21c.227-.04 4.76-2.03 7.036-3.035 1.093-.482 2.02-.984 3.064-1.436 1.95-.84-1.953 1.12-2.98 1.63-1.66.826-3.517 1.39-5.134 2.308-.684.388-1.873 1.312-1.873 1.312zm.002 11.161s4.165-3.143 4.211-2.706c0 0-1.908 1.457-2.57 2.05-.786.703-1.764 1.845-1.764 1.845zm.026-17.74s-2.783-2.548-3.359-3.013c-1.322-1.065 3.327 3.788 3.327 3.788z" stroke-width=".295"/><g stroke-width=".504"><path d="M22.626 34.908s.058-.39.004-.532c-.116-.308-.545-.546-.67-.878-.389-1.02-.453-2.8-.45-2.906.001-.1.571-1.66.752-1.975.102-.178.463-.224.492-.35 0 0-.41.116-.528.3-.279.433-.626 1.415-.626 1.415s-.168.397-.182.593c-.023.327.057.987.057.987l.262 1.55.08.342s.053.223.156.335c.07.076.142.136.225.196.151.11.292.28.31.466.014.133-.152.371-.152.371z"/><path d="M26.104 36.835s-1.016-.357-1.656-.56c-.3-.095-.86-.235-1.116-.435-.404-.316-.648-1.084-1.01-1.453-.46-.47-1.413-.94-1.413-.94s-1.462-.567-2.099-1.08a13.141 13.141 0 0 1-3.024-3.508c-.467-.785-.925-2.803-1.042-2.587 0 0 .27 1.43.555 2.15a5.2 5.2 0 0 0 .542 1.035c.701 1.03 1.612 2.21 2.584 2.99.275.22.53.4.796.6.267.2 1.925.7 2.773 1.483.435.403.658 1.42.86 1.558.811.555 2.233 1.113 2.233 1.113z"/><path d="M17.99 32.34s-.848-.01-1.257-.11c-.456-.11-.835-.558-1.303-.529-.378.024-.628.336-.992.44-.305.086-.653.032-.95.155-.266.11-.703.506-.703.506s.334-.477.582-.61c.216-.116.723-.129.723-.129s-.208-.115-.274-.208c-.088-.125-.16-.285-.14-.437.023-.195.844-.21.844-.21s-.342.197-.513.202c-.332.008-.124.242-.04.337.097.113.23.23.38.238.367.017.622-.462.99-.494.524-.045.992.378 1.514.451.23.033.478.074.694-.007.151-.056.37-.312.37-.312.222.09.461.723.461.723z"/></g></g></svg>