<svg xmlns="http://www.w3.org/2000/svg" width="207.851" height="444.655" viewBox="0 0 54.994 117.648" version="1.1"><g fill="#7b7400" fill-opacity="1" stroke="none" stroke-width="1.091" stroke-linecap="butt" stroke-linejoin="miter" stroke-opacity="1"><g stroke-width="1.115"><path d="M25.784 76.119c-.144 0-.813.463-1.395.716-.733.32-2.335 1.03-2.335 1.03.056.143 2.509-.928 2.99-1.015.278-.05.725.341.725.341z" fill="#7b7400" fill-opacity="1" stroke="none" stroke-width=".295"/><path d="M27.802 116.115c.18-3.07-.082-15.552-.082-15.552v-33.71l-.902-40.181.574-12.495s-.086-6.231-.17-9.185c-.032-1.178-.25-4.666-.322-3.49-.054.895-.246 8.36-.246 8.36l-.164 6.292-.656 11.327-.164 20.226-.164 30.653-.41 22.024s.336 5.587.082 8.36c-.04.427-.243 1.117-.275 1.544-.097 1.286.134 2.34-.068 3.611-.148.927-.731 2.314-.724 2.575.06 2.11 3.613.992 3.69-.36z" stroke-width=".295"/><path d="M26.278 45.754s1.638-.407 2.112-.85c1.028-.963 1.27-3.051 2.379-4.092 3.408-3.202 10.347-6.358 10.766-6.52.402-.157 7.507-.449 9.043-.247.874.115 1.642 1.468 2.194 1.374 0 0-1.134-1.433-2.05-1.6-2.174-.394-6.624-.163-6.624-.163s-1.846-.019-2.645.246c-1.332.44-3.815 1.835-3.815 1.835l-5.7 3.568-1.23.872s-.792.577-1.067 1.168a6.14 6.14 0 0 0-.41 1.21c-.185.777-.632 1.612-1.336 1.988-.506.27-1.72.001-1.72.001zm.489 1.78s-1.167-1.14-1.88-1.875c-.336-.347-.926-1.023-1.322-1.213-.628-.3-1.55.032-2.192-.16-.818-.245-2.04-1.192-2.04-1.192s-1.728-1.592-2.731-2.049c-1.906-.869-3.876-1.272-5.768-1.228-1.118.027-3.39 1.155-3.282.798 0 0 1.565-.88 2.474-1.109a4.57 4.57 0 0 1 1.415-.138c1.542.092 3.395.352 4.922 1.056.43.198.809.406 1.213.608.409.204 2.233 2.136 3.663 2.657.735.267 1.872-.314 2.168-.147 1.184.671 2.87 2.212 2.87 2.212zm.87 32.87c1.806.328 1.7.403 2.062.8a160.766 160.766 0 0 0 3.876 4.06c.397.403 1.594 1.686 1.958 1.866.858.425 1.92.067 3.425.164 1.188.077-3.356.29-3.568.154-1.207-.774-2.712-2.54-3.538-3.383-1.237-1.265-1.332-1.672-2.655-2.553-.56-.373-1.56-.37-1.56-.37zM27.1 63.196s2.582.485 3.76 1.132c1.495.823 4.03 3.277 6.652 5.065.94.642 2.919 2.217 4.504 2.825.61.234 1.553.41 2.089.56.983.274 2.223.425 3.06.587 1.397.272 2.638.141 3.786.55.636.228 1.2.51 1.563.995.21.278-1.44-.677-2.214-.739-2.923-.23-5.838-.55-8.478-1.182-2.511-.601-4.278-2.697-6.46-4.275-1.543-1.116-3.01-2.79-4.748-3.565-1.05-.468-3.404-.533-3.404-.533z" stroke-width=".295"/><path stroke-miterlimit="4" d="M27.099 63.196l-6.825-2.556s-2.07-.566-2.294-.601l-1.421-.223c-.37-.132-.368-.429-.368-.429-.11-.125-3.662-.978-4.315-1.007-.41-.017-.593.3-.976.219-2.217-.472-5.79-1.078-6.39-1.569-.891-.726-.671-1.638-1.434-2.2-.602-.444-1.3-.392-2.241-.71-.788-.268 1.858.076 2.55.536.775.517.996 1.997 1.415 2.175 1.66.707 4.82 1.249 6.16 1.361.429.036-.147-1.61-.447-1.768-1.101-.579-4.066-.739-4.282-1.056-.316-.463-1.39-3.153-1.304-3.54.03-.144.908 2.329 1.58 3.295.277.397 3.68.733 4.463.986.2.065.246 1.063.65 1.469.33.33 4.736 1.627 5.64 1.406.56-.137-.18-2.645-.671-2.813-.95-.325-3.29-.453-3.32-.519-.072-.167.039-1.527.064-1.704.012-.08.207.592.36 1.374.056.277 2.936.129 3.419.45.409.271.834 2.543 1.468 3.375.25.327 2.878 1.354 3.15.898.125-.209.399-3.71.277-3.827-.308-.294-4.402-2.897-4.444-3.094 0 0 4.435 2.377 5.066 2.84.302.223-.063 3.266.595 4.333.353.573 3.49.504 3.49.504z" stroke-width=".741" paint-order="normal"/><path d="M26.714 60.801s.876-.423 1.443-.606c.79-.255 1.667-.977 2.459-1.229.43-.137.649-.076 1.08-.212.543-.17.947-.624 1.526-.826.605-.212 2.014-.403 2.014-.403s.596-.667.74-1.208c.178-.656.065-2.225.065-2.225s-.138 1.485-.424 2.161c-.154.365-.341.767-.678.975-.42.26-.946.063-1.462.212-.294.085-.912.255-.912.255s.403-.69.678-.975c.387-.4 1.336-.996 1.336-.996s2.078-1.68 2.585-2.459c.312-.479-2.267 1.717-2.267 1.717s-1.44.822-2.077 1.483c-.434.451-1.187 1.569-1.187 1.569s-1.334.136-1.823.339c-.58.24-.774.885-1.271 1.017-.63.167-1.641-.424-1.641-.424zm-1.192 25.232s-1.27 1.347-2.158 1.716c-.815.338-2.778.657-2.778.657s-.956 1.286-1.693 1.679c-1.09.58-4.298 1.131-4.298 1.131s-2.5.979-3.386 1.68c-.92.727 1.817-.878 3.43-1.351 1.486-.437 3.204-.486 4.514-1.168.785-.409.98-1.184 1.78-1.57.665-.32 1.627-.183 2.258-.365.592-.17.598-.373 1.172-.584.349-.128 1.134-.116 1.134-.116zm.18-16.967s-.65 1.87-1.561 2.408c-.422.248-1.097.01-1.548.224-.793.376-1.304 1.386-2.086 1.775-1.197.596-2.575.45-3.845.636-.9.132-1.737.404-2.58.243-.602-.115-1.617-.71-1.617-.71-.471.293.749.772 1.336.953.628.193 5.229-.355 5.229-.355s1.218-.2 1.758-.43c.91-.389 1.168-1.209 2.04-1.626.445-.213 1.64-.187 1.64-.187.314-.174 1.438-.15 1.17-.603zm-.006 8.68l-2.41.235-2.493 1.044-1.914-1.044-1.827-.058-1.363-.957 1.13 1.16 1.393.232-.522.406-.261.84.609.958-.348-.928.29-.667.725-.464 1.914.928 2.9-.9h1.334l.715.593zm.222-29.623s3.336-.15 4.977-.433a37.121 37.121 0 0 0 5.703-1.483c1.34-.459 2.89-.835 4.06-1.638 1.392-.956 3.316-3.345 3.458-3.715.095-.246.445-3.18.58-3.172 0 0-.146 1.066-.207 1.574-.04.344-.161.966-.073.982.222.042.636-.236.775-.498.094-.178-.103-.558-.038-.615.063-.053.227.362.15.597-.123.372-.647.53-.876.847-.083.114-.075.274-.145.397-.395.689-1.55 1.742-1.516 1.838.087.24.54.123.764.027.384-.165.578-.766.968-.893.218-.07.403.007.496.12 0 0-.298-.105-.475-.014-.342.176-.523.754-.897.938-.24.119-.51.002-.827.139-.77.331-1.282 1.298-1.96 1.794-.61.447-2.043.987-2.043.987s.442.518.75.546c.612.054 1.157-.448 1.66-.802.384-.271.745-.86 1.005-.99.477-.236-.563.931-.984 1.256-.498.385-1.06.794-1.73.751-.41-.026-.627-.472-1.07-.526-1.07-.131-2.145.62-3.145 1.047-.18.077.095.037-.15.027-.168-.006-.532.1-.7.107-.568.025-2.417.978-3.69 1.227-.814.16-1.661.059-2.485.164-.42.054-1.25.24-1.25.24z" stroke-width=".295"/><path d="M34.555 46.876s2.329-1.431 3.123-2.118a23.52 23.52 0 0 0 2.597-2.656c.575-.684 1.29-1.392 1.66-2.205.44-.97.702-2.886.658-3.132-.03-.164-.548-1.25-.472-1.29 0 0 .02.012.154.306.09.199.227.574.28.554.133-.05.572-.19.562-.377-.007-.126-.161-.174-.144-.226.017-.05.223.088.258.24.055.24-.542.292-.563.538-.007.089.049.173.05.262.012.5-.19 1.398-.14 1.439.126.1.52-.038.61-.162.153-.214.24-.468.32-.564.157-.188-.135.416-.277.637-.091.142-.486.12-.613.297-.308.43-.27 1.119-.475 1.606-.184.44-.961 1.198-.546 1.16 1.019-.092 2.343-.812 2.22-.68-.13.14-1.078.566-1.485.68-.223.061-.838.17-1.094.285-.62.277-.956 1.033-1.358 1.589-.072.1.004.272-.13.346-.094.052-.197-.056-.285.003-.3.198-.988 1.314-1.593 1.863-.388.35-.88.572-1.29.897-.21.166-.596.536-.596.536zm-7.737-12.242s-1.632-.572-2.287-1.109c-.535-.439-.915-1.051-1.255-1.654-.71-1.258-1.408-2.595-1.598-4.026-.17-1.276.426-3.765.436-3.839.166-1.168-.72 2.567-.634 3.895.037.592.47 1.737.47 1.737s-.495-.58-.702-.899c-.357-.549-.91-1.742-.91-1.742-.23-.28.55 1.51.964 2.19.207.343.54.598.746.942.45.751.6 1.656 1.04 2.413.299.515.626 1.036 1.076 1.426.608.529 2.114 1.172 2.114 1.172zm6.6 12.857s-.36-1.171-.328-1.77c.026-.49.216-.964.417-1.412.42-.932.889-1.892 1.625-2.602.657-.633 2.327-1.338 2.373-1.363.736-.396-1.766.667-2.488 1.274-.322.27-.793.997-.793.997s.123-.525.217-.777c.164-.434.612-1.251.612-1.251.063-.25-.63.947-.845 1.47-.108.262-.113.559-.223.82-.24.572-.693 1.038-.94 1.607-.168.387-.328.792-.362 1.213-.046.569.22 1.698.22 1.698zm-6.602-24.018c.227-.04 4.76-2.031 7.036-3.035 1.094-.482 2.02-.984 3.064-1.435 1.95-.842-1.952 1.12-2.98 1.63-1.66.825-3.517 1.388-5.134 2.307-.683.388-1.872 1.312-1.872 1.312zm.002 11.161s4.165-3.143 4.212-2.705c0 0-1.908 1.456-2.571 2.05-.786.702-1.764 1.845-1.764 1.845zm.026-17.741s-2.782-2.547-3.358-3.011c-1.323-1.066 3.327 3.788 3.327 3.788z" stroke-width=".295"/><g stroke-width=".504"><path d="M23.316 36.171s.058-.39.005-.532c-.117-.308-.546-.546-.672-.878-.388-1.021-.451-2.8-.45-2.906.003-.1.573-1.66.753-1.974.103-.179.463-.224.492-.352 0 0-.41.118-.528.3-.28.435-.625 1.416-.625 1.416s-.17.397-.183.593c-.023.327.057.988.057.988l.263 1.548.078.344s.055.222.158.334c.07.076.14.136.225.197.15.109.29.28.31.465.013.133-.153.372-.153.372z"/><path d="M26.794 38.098s-1.016-.356-1.655-.559c-.301-.095-.86-.236-1.116-.436-.405-.315-.648-1.084-1.01-1.453-.461-.47-1.413-.94-1.413-.94s-1.463-.567-2.1-1.08a13.141 13.141 0 0 1-3.024-3.508c-.466-.784-.925-2.802-1.041-2.587 0 0 .269 1.431.554 2.151.13.33.298.676.542 1.034.702 1.03 1.612 2.211 2.585 2.99.274.219.53.399.795.599.268.202 1.925.7 2.773 1.484.436.403.658 1.42.86 1.559.812.554 2.233 1.112 2.233 1.112z"/><path d="M18.679 33.603s-.847-.01-1.255-.11c-.456-.109-.836-.558-1.304-.528-.378.023-.628.336-.992.439-.305.087-.653.033-.95.155-.266.111-.703.506-.703.506s.334-.477.582-.61c.216-.116.723-.129.723-.129s-.207-.114-.274-.208c-.088-.125-.16-.285-.14-.436.024-.196.844-.21.844-.21s-.342.196-.513.201c-.331.009-.124.243-.04.338.097.112.23.23.38.237.368.018.622-.462.99-.494.525-.045.993.379 1.515.452.229.032.477.073.694-.008.15-.056.369-.312.369-.312.223.09.462.723.462.723z"/></g></g><path d="M26.614 16.804c1.753.975 3.634 1.2 5.387 2.175.727.22 4.146.187 4.932.24.557.037 1.658.496 2.2.72.512.21.613.391.613.391l.428.021 3.753.494 2.654.278s2.806 1.462 2.769 2.537c-.024.701-1.834-.11-1.834-.11l.072.754-.478.616c.517.63-.757.673-.792 1.03l-1.598-1.16s-.091.651-.154 1.013c-.063.358-.923.336-.923.336s-.902-1.304-.22.685c.1.295-.806.137-1.398-.2-.583-.33-1.007-.647-1.086-.668-.265-.085-.21.626-.5.779-.64-.562-1.043-.838-1.408-.098.137.344-.182.655-.456.675-.528.037-1.062-1.165-1.062-1.165s.047.835-.184 1.085c-.277.3-.85-.204-.85-.204s-1.04-2.95-.861-1.163c.14 1.418-1.08-.585-1.137-.162-.05.36-1.095-.792-1.354-1.066 0 0 .745 1.41.159 1.203-.646-.228-1.645-.27-1.838-1.568 0 0 .057 1.387-.732 1.324-.915-.073-1.064-1.797-1.064-1.797l-.158 1.075-.98-2.949s-.078.754-.838.97c-.53.152.206-1.736-.068-1.545-.274.192-.15-2.042-.86-.695s-1.148 1.613-1.19 1.292c-.04-.32.715-4.966.715-4.966zm-.133-2.593c-1.28.195-2.304-.255-3.585-.06-.497-.024-3.075-.56-3.578-.69-.356-.094-1 .264-1.382.28-.36.015-.254-.1-.254-.1l-.275-.08-2.66-.649-1.717.011.165-.293s-1.784.364-1.96.98c-.113.403.916.212.916.212l-.24.366.212.502c-.402.237.41.518.367.727l1.263-.121c-.067-.206-.261-.11-.29.108-.025.216.784.662.784.662s.615-.61-.18.379c-.118.147.53.312.964.242.427-.069.75-.162.805-.158.182.007.227.403.38.55.507-.188.625-.39.717.104-.15.167-.046.51.122.578.325.129.887-.45.887-.45s-.106.51-.007.7c.118.226.512.028.512.028s1.198-1.43.757-.453c-.35.775.708-.33.666-.078-.035.215.988.083 1.2-.019 0 0-.781.32-.375.323.448.002.944.244 1.304-.452 0 0-.173.918.335 1.043.588.145.96-.983.96-.983l-.246.89 1.25-1.449c.093-.085-.065.304.37.582.307.194.156-.96.292-.796.137.165.527-1.23.724-.32.197.908.267 1.35.352 1.177.085-.173.677-3.054.677-3.054zm-.02 27.108c-2.08 1.056-3.916.919-5.997 1.974-.863.24-5.804.583-6.738.643-.662.042-1.706 1.185-2.35 1.427-.608.229-.32.03-.32.03l-.513.016-4.887.223-3.153 1.103.33-.587S0 47.947.048 49.101c.032.753 1.667-.33 1.667-.33l-.194.718.62.769c-.532.649 1.024.683 1.067 1.065l1.988-.833c-.135-.413-.287-.297-.21.09.075.386 1.627.924 1.627.924s.684-1.514-.118.625c-.12.318 1.058.283 1.76-.081.692-.359 1.194-.702 1.289-.724.315-.093.673.681 1.019.844.759-.606.865-1.16 1.302-.366-.16.369.14.906.464.926.629.038 1.269-1.27 1.269-1.27s.103.991.378 1.258c.33.321.893-.28.893-.28s1.225-3.113 1.02-1.192c-.16 1.523 1.127-1.07 1.198-.616.06.387 1.606-.239 1.912-.533 0 0-.987.862-.29.638.766-.248 1.675-.175 1.899-1.57 0 0 .176 1.776 1.115 1.705 1.087-.084 1.18-2.298 1.18-2.298l-.103 1.652 1.336-3.127c.183-.17.144.53 1.048.76.632.16-.327-1.732 0-1.527.326.204.28-2.398 1.13-.955.85 1.443 1.06 2.13 1.107 1.786.048-.344-.45-5.515-.45-5.515z" stroke-width=".289"/><path d="M26.264 40.099c-2.012.241-3.886-.048-5.897.193-.77-.023-4.025-.844-4.794-.993-.545-.105-1.755-.056-2.35-.033-.561.021-.72.118-.72.118l-.416-.086-3.756-.547-2.631-.435s-3.184.32-3.52 1.047c-.217.474 1.79.355 1.79.355l-.328.487.245.523c-.711.301.49.627.402.873l1.925-.4s-.137.456-.2.712c-.064.254.765.44.765.44s1.31-.66-.025.51c-.198.173.722.28 1.403.193.67-.085 1.185-.198 1.268-.193.283.005-.015.467.21.637.805-.225 1.285-.316 1.378.264-.248.198-.051.48.203.557.492.15 1.417-.53 1.417-.53s-.333.548-.2.769c.162.265.884.062.884.062s2.008-1.728 1.223-.576c-.623.914 1.232-.138 1.142.158-.077.252 1.32-.273 1.66-.395 0 0-1.197.767-.565.766.695-.001 1.664.204 2.295-.618 0 0-.532.914.244 1.056.899.165 1.635-.952 1.635-.952l-.22.755 1.953-1.74s-.185.521.466.844c.454.225.402-1.209.597-1.017.196.192.847-1.33 1.06-.263.215 1.065.543 1.346.692 1.14.15-.204 1.029-3.483 1.029-3.483zm.255 7.297c1.638 1.192 3.415 1.853 5.053 3.046.683.356 3.925 1.227 4.668 1.473.527.174 1.56.807 2.067 1.117.48.293.57.455.57.455l.406.128 3.546 1.355 2.509.905s2.622 1.833 2.56 2.631c-.04.52-1.736-.563-1.736-.563l.05.585-.47.337c.475.61-.734.307-.776.566l-1.485-1.29s-.103.465-.172.72c-.07.253-.884.01-.884.01s-.822-1.215-.226.458c.088.248-.767-.108-1.32-.516-.544-.402-.937-.751-1.012-.787-.25-.134-.214.415-.494.453-.593-.59-.967-.902-1.332-.442.12.294-.19.444-.45.387-.501-.11-.977-1.153-.977-1.153s.024.64-.201.767c-.27.152-.801-.377-.801-.377s-.91-2.488-.787-1.099c.098 1.102-1.007-.722-1.073-.42-.057.258-1.02-.882-1.257-1.155 0 0 .67 1.254.12.945-.607-.34-1.552-.634-1.702-1.66 0 0 .019 1.057-.728.803-.865-.295-.963-1.629-.963-1.629l-.176.767-.856-2.473s-.092.546-.818.51c-.506-.026.24-1.251-.025-1.179-.265.072-.09-1.574-.797-.748-.707.826-1.13.91-1.16.659-.032-.252.802-3.543.802-3.543zm.199-23.492c-1.884.767-3.734 1.624-5.652 2.301-.754.266-4.59-.443-5.435-.402-.6.03-1.29-.326-1.886-.123-.477.162-1.136.997-1.136.997l-4.493.405-2.852.219s-2.98 1.15-2.95 2.257c.02.732 1.946-.349 1.946-.349l-.078.593.514.484c-.555.497.814.53.85.81l1.718-.911s.098.511.165.796c.068.282.992.264.992.264s.01.721.237.539c.227-.183 2.054-.427 2.054-.427s-.22.117.09-.209c.356-.373.025.184.41.094a1.877 1.877 0 0 1 1.009.061c.344.132 1.552.348 2.03.568.583.27-1.145-.404-.875-.234.39.246.49.53.49.53l1.142-.916-.21.784 1.32-.091s1.116-2.32.926-.915c-.152 1.115 1.158-.46 1.22-.127.054.284 1.178-.623 1.456-.838 0 0-.8 1.108-.17.946.694-.18 1.766-.212 1.973-1.233 0 0-.06 1.091.787 1.041.983-.058 1.144-1.413 1.144-1.413l.169.846 1.054-2.32s.083.593.9.764c.57.119-.221-1.366.073-1.216.294.15.16-1.606.923-.547.763 1.06 1.235 1.269 1.279 1.016.044-.252-.768-3.905-.768-3.905zM25.67 68.919l-3.837 1.858c-.53.14-3.116-.358-3.69-.325-.405.023-1.28-.1-1.28-.1l-.77.805-3.05.327-1.935.177-2.097.981 1.415.56-.053.478.349.391c-.377.4.552.428.578.654l1.165-.736s.066.413.112.643c.046.227.674.213.674.213s.007.582.16.435c.155-.147 1.394-.344 1.394-.344s-.148.094.063-.17c.24-.3.015.15.277.077a1.08 1.08 0 0 1 .685.049c.233.107 1.053.28 1.377.459.396.217-.776-.327-.593-.19a.93.93 0 0 1 .332.429l.775-.74-.142.632.896-.073s.758-1.873.628-.738c-.102.9.787-.372.83-.103.035.23.798-.503.987-.676 0 0-.544.894-.116.763.47-.145 1.2-.171 1.34-.995 0 0-.042.88.534.84.667-.046.776-1.14.776-1.14l.115.682.716-1.872s.056.479.61.616c.387.096-.15-1.103.05-.981s.11-1.297.627-.441c.517.855.837 1.023.867.82.03-.204-.52-3.153-.52-3.153zm1.209-59.051c1.305.285 2.659.202 3.964.487.504 0 2.547-.83 3.055-.95.36-.084 2.003.166 2.003.166l2.753-.485 1.737-.34 2.13.433-1.056.946.195.47-.18.49c.452.306-.347.582-.3.818l-1.241-.434s.07.436.103.681c.03.243-.52.397-.52.397s.177.592-.003.484c-.25-.195-.328 1.368-.763 1.121-.303-.24-.724-.905-.88-1.1-.553-.69-.352.815-.506.97-.17.17-.68-.98-.907-.713-.227-1.944-.096 2.816-.824.44 0 0-.288-.621-.513-.526-.398.168.416 1.097.033 1.295-.287.149-1.244-1.695-.777-.58.37.885-.8-.166-.752.118.04.242-.852-.296-1.07-.421 0 0 .53 1.006.118.988-.454-.02-.875-.098-1.254-.895 0 0 .31.881-.202.995-.594.131-1.03-.949-1.03-.949l.113.723-1.133-1.288s.027.083-.412.37c-.306.201-.484-1.182-.62-1.005-.135.177-.23-1.26-.412-.255-.183 1.005-.41 1.262-.498 1.063-.09-.198-.532-3.334-.532-3.334zm-.477 43.844c-3.207.057-4.587-.797-6.325-.87-1.492-.642-3.875-.279-5.203-.315-1.766-.172-2.39.59-3.598.62-1.478.035-2.87-.361-5.901-.322-1.432.032-3.668-.522-4.481.323-.635.659-1.01 1.109.134.12.256-.22.01.982-.16 1.265-2.287 1.473.629.248.987 2.14.012.297-.515-1.103-.515-1.103-.821.63-.535 1.193-.1 1l1.557-.539c.094-.036-.95 1.106-1.01 1.56-.057.449 2.12.546 2.12.546s-.752-.105-.363-.219c2.056-.6 2.44.126 2.44.126s-2.65 1.639-1.33 1.408c.753-.131.684-.329 1.008 1.393.148.79 1.143-1.1 1.42-.842.307.285-.423.4-.015.852.499.554.947-.674 1.156-.347.303.472-.09.905.24 1.01.645.204 1.594-.992 1.594-.992s-.824 1.108-.396 1.263c.868.315.844.244 1.31.11.605-.176 2.262-3.23 1.41-1.115-.673 1.678.976.069.976.069.226-.403 2.115-.44 2.51-.704 0 0-1.494.752-.746.653.823-.11 1.649.239 2.34-1.281 0 0-.28 1.995.648 2.12 1.076.147 1.779-2.32 1.779-2.32l-.564 1.919 2.412-3.262c.22-.198-.125.607.668 1.064.957-.054 1.97-1.05 2.272-1.883 1.33-1.7 2.014-2.887 2.103-3.917z" stroke-width=".289"/><path d="M25.79 47.146c3.189-.299 6.27-1.394 7.982-1.65 1.914-.794 1.96-.54 2.975-.685.592-.323 2.255.323 4.17.173 1.613-.125 4.12-.742 6.839-1.008 1.423-.128 3.555-.871 4.48-.2.72.525.186.908-1.088.142-.285-.17.003.977.21 1.213 2.476 1.077 1.456.14 1.366 1.884.03.267-.842-1.006-.842-1.006.902.478.446 1.02-.013.893l-1.516-.31c.093-.035 1.39.873 1.512 1.275.12.398-1.87.76-1.87.76s-.063-.24-.465-.3c-2.123-.316-1.224.375-1.224.375s1.955 1.225.612 1.161c-.764-.036-.505-.218-.584 1.367-.036.728-1.288-.866-1.528-.603-.263.29 1.486.259 1.145.711-.417.553-1.882-.484-2.044-.167-.234.458-.01.84-.322.97-.612.254-1.695-.722-1.695-.722s1.33.898.928 1.084c-.817.379-1.075.321-1.555.25-.625-.092-2.7-2.655-1.56-.842.904 1.437-1.256.138-1.256.138-.281-.338-1.524-.134-1.954-.329 0 0 1.437.453.682.445-.832-.01-2.29.446-3.188-.848 0 0 1.083 1.768.18 1.982-1.046.25-2.215-1.928-2.215-1.928l.04 1.764-2.42-2.693c.22-.199.372.494-.35.992-.957.055-2.303-.705-2.72-1.422-1.557-1.386-2.1-2.419-2.333-3.336zm1.487-22.261c2.649.912 5.036.954 6.683 1.442 1.936-.099 2.082.672 3.129.979.593.233 2.06 1.313 3.395 1.715.702.93 2.476.692 4.043 1.017 1.585.328 3.454.754 5.692 1.513 1.475.515 3.513.364 4 1.457.38.854-.112 2.53-.883 1.185-.173-.3.962-.374 1.017-.042 1.755 2.2-.524.545-1.7 2.258-.137.283.128-.982.128-.982.587.889-.074 1.522-.445 1.186l-1.13-1.192c-.05.006.764 1.968.633 2.428-.13.455-2.594-1.777-2.594-1.777s.475 1.77.118 1.528c-1.884-1.276-2.112-1.254-2.112-1.254s1.648 2.614.372 1.943c-.727-.382-.377-.666-1.443.893-.49.715-.216-1.44-.615-1.283-.44.172.358.393-.258.694-.754.367-1.387-.6-1.744-.354-.515.355-.278.629-.665.618-.76-.02-1.046-1.372-1.046-1.372s.486 1.244-.024 1.25c-1.037.012-1.153.038-1.58-.25-.556-.375-1.137-4.47-1.15-2.132-.01 1.854-1.081.883-1.081.883-.065-.467-1.454-2.472-1.754-2.862 0 0 .443 2.07-.292 1.72-.81-.384-1.818-.245-1.892-1.951 0 0-.208 1.38-1.227 1.189-1.18-.223-1.496-1.895-1.496-1.895l-.132 1.421-.817-4.277c.162.126-.294 1.12-1.313 1.294-.972-.377-1.497-2.101-1.458-3.01-.662-2.098-1.208-2.735-.864-3.763zm-.92 4.444c-2.454.832-3.953 1.265-5.104 1.554-1.151.29-1.954.434-3.017.69-1.063.255-2.386.621-4.577 1.353-.82.282-2.24.406-2.51 1.004-.212.467.064.88.493.144.095-.164.018.032-.013.213-.976 1.205-.052.428.6 1.365.078.155-.144-.479-.144-.479-.326.487.075.764.28.58l.71-.63s-.363.812-.29 1.064c.072.249 1.176-.34 1.176-.34s.09.608.288.476c1.048-.699.917-.617.917-.617s-.85 1.342-.14.975c.405-.209.21-.364.804.49.272.391.402-.796.623-.71.245.095-.447.378-.104.543.419.2.717-.458.915-.324.286.194.16.353.377.347.42-.01.685-.81.685-.81s-.35.717-.065.72c.577.006.643-.018.88-.175.31-.205.529-2.17.536-.89.005 1.015.807.091.807.091.036-.255.736-.937.903-1.15 0 0-.433 1.055-.024.864.45-.21 1.17-.316 1.212-1.25 0 0 .063.986.63.881.657-.122.634-1.354.634-1.354l.196.75.487-2.164s.113.528.68.624c.54-.206.907-1.02.885-1.518.368-1.148.462-1.754.27-2.316zm.613-8.221c-2.516.269-3.8.207-4.967.268-1.02-.22-2.416.07-3.59.195-1.104.118-2.32.652-4.493.877-.841.093-2.005-.212-2.347.146-.267.28-.051.573.463.143.115-.096-.243-.167-.296-.052-1.11.673-.104.731.419 1.41.056.11.416-.54.416-.54-.382.278-.332.384-.106.288l.708-.383c.077.045-.43.549-.39.72.04.17 1.27-.112 1.27-.112s.069.647.28.583c1.117-.337.738-.877.738-.877s-.684 1.106.06.946c.422-.09.02-.276.494.342.218.284.556-.39.763-.31.228.088-.487.195-.172.34.386.176 1.016-.212 1.194-.104.257.158-.11.099.102.119.416.039.727-.331.727-.331s-.427.418-.15.451c.567.068.728.114.98.038.33-.1.724-1.38.569-.55-.123.658.783.182.783.182.067-.161.748-.78.939-.9 0 0-.374.995.052.916.469-.086 1.124-.456 1.283-1.057 0 0-.23.718.34.713.66-.007.937-.642.937-.642l.05.296.575-1.059c.22-.073.154.38.698.505.557-.074 1.05-.723 1.09-1.048.507-.703.63-1.009.514-1.394z" stroke-width=".289"/><path d="M27.077 20.316c-2.84-.88-3.966-1.347-5.015-1.792-1.05-.445-2.02-.869-4.55-1.665-.633-.194-1.611-.745-1.985-.51-.293.184-.246.55.278.302.117-.055.002.027-.077.12-1.038.285-.175.231-.05 1.073 0 .126.06-.347.06-.347-.372.145-.2.485-.002.467l.673-.061s-.504.32-.538.502c-.033.18.888.316.888.316s-.14.4.035.409c.92.047.808.038.808.038s-1 .42-.41.516c.334.054.256-.123.37.642.052.352.525-.293.643-.145.13.164-.42.027-.246.275.21.303.623.044.71.211.126.241-.008.28.136.371.282.18.717-.178.717-.178s-.464.271-.278.398c.38.258.43.272.64.283.27.015 1.056-1.051.643-.29-.327.603.504.408.504.408.107-.135.792-.23.972-.283 0 0-.63.434-.298.5.367.074.877.328 1.209-.207 0 0-.28.613.129.8.474.216.86-.523.86-.523l-.115.53 1.028-1.066s-.097.362.246.667c.424.116.932-.204 1.08-.508.618-.518.878-.835.935-1.252zm-.104 58.473c2.488 1.892 4.28 2.795 5.492 3.581 1.396.507 1.693 1.28 2.773 2.068 1.075.784 2.563 2.165 4.783 3.839.829.636 2.667 1.144 2.722 1.86.043.557-.458.846-.637-.074-.04-.206-.292-.166-.335.028.61 1.625-.123.91-1.287 1.565-.156.12.873-.632.873-.632.168.627-.726.612-.886.34l-.616-.988c.077.045.1 1.03-.094 1.25-.192.217-1.145-.868-1.145-.868s-.312.81-.485.593c-.913-1.15-1.037-1.59-1.037-1.59s.723 2.036.058 1.363c-.378-.383-.316-.518-1.374.078-.485.273-.061-.887-.356-.897-.324-.01.355.57-.113.586-.573.02-.38-.76-.668-.712-.417.07-.564.134-.811.035-.485-.193-.493-.986-.493-.986s.1.858-.23.739c-.672-.243-.645-.241-.852-.501-.27-.339.256-2.428-.307-1.153-.446 1.011-.974-.223-.974-.223.07-.27-.542-1.508-.642-1.793 0 0 .23 1.6-.162 1.232-.432-.405-1.286-1.202-.93-2.153 0 0-.668 1.03-1.28.68-.71-.406-.006-1.46-.006-1.46l-.597.453.194-2.082c.22-.073-.25.504-.95.355-.537-.44-.58-1.573-.34-2.06.07-1.306.179-1.875.645-2.354zm-.207-72.058l-1.47-.474c-.162-.097-.736-.656-.87-.794-.096-.097-.141-.052-.141-.052l-.255-.282-.064.046-.805-.972-.477-.446-.048.292-.216-.022-.091.132-.19.001.072.185c-.22.012-.06.052-.132.12l.247.175s-.153.139-.223.213c-.07.074.226.161.226.161s-.188.184-.104.183c.084 0 .173.12.173.12s-.232.127.018.247c.142.068-.124.189-.042.236.06.034.194-.036.206.044.013.089-.206-.044-.198.087.01.16.28.103.273.187a.41.41 0 0 1-.077.202L23 6.316l-.25.136.218.209s.812-.317.39-.04c-.333.218.299.099.215.183-.072.072.346.067.447.068 0 0-.427.105-.29.179.152.08.317.26.633.07 0 0-.314.23-.176.366.16.158.562-.112.562-.112l-.212.215.803-.327s-.154.145-.082.324c.05.125.35-.339.35-.255 0 .084.473-.325.288.04s-.175.493-.098.445c.077-.048.98-.992.98-.992zm-.052 7.718c.82.403 1.388.246 2.21.648.303.094 1.217.1 1.524.19 1.016.294-.135.287-.135.287l1.483.243-.01.362s.705-.137 1.484.092c.257.075-.174.203-.174.203l1.463.169.329.22.044.219.277.212-.23.084c.312.255.05.112.11.253 0 0 .002.243-.81-.369-.241-.183.46.544.512.688.05.142-1.17-.724-1.17-.724s.882.99.76.895c-.122-.094-.335-.085-.335-.085s-.057.305-.701-.394c-.192-.207.56.9.41.851-.111-.036-.258-.247-.33-.189-.08.064.33.19.23.297-.123.132-.48-.22-.525-.136-.065.121-.025.264-.025.264l-1.09-1.37.748 1.296-.46-.056s-.97-1.183-.543-.47c.34.566-.502-.241-.437-.073.056.143-1.028-1.431-1.176-1.542 0 0 1.03 1.674.78 1.587-.276-.096-1.093-1.075-1.426-1.594 0 0 .757 1.508.463 1.476-.34-.036-.744-.724-.744-.724s.038.385-.13.339c-.41-.112-.657-1.094-.657-1.094s-.19-.24-.161.015c.037.351-.025.603-.335.376-.124-.09-.514-1.86-.491-1.33.023.531.023 1.052-.057.924s-.76-1.971-.76-1.971zm.226-5.303c-1.417.157-2.316-.598-3.733-.441-.512-.051-2.007-.751-2.525-.815-1.715-.21.167.675.167.675L18.38 7.89l-.05.726s-1.127-.822-2.443-.978c-.434-.05.248.54.248.54l-2.422-.808-.578.18-.112.4-.492.206.362.347c-.557.263-.103.183-.227.417 0 0-.048.482 1.39-.1.429-.174-.851.721-.961.966-.11.243 2.044-.523 2.044-.523s-1.622 1.276-1.405 1.185c.218-.09.564.093.564.093s.036.65 1.217-.235c.35-.263-1.082 1.348-.826 1.37.189.015.468-.29.575-.118.118.19-.575.118-.43.41.176.36.825-.063.883.14.084.293-.008.545-.008.545l2.033-1.87-1.46 1.99.762.25s1.803-1.593.973-.51c-.657.859.866-.087.728.195-.118.241 1.942-2.04 2.204-2.144 0 0-1.99 2.52-1.564 2.544.469.025 1.982-1.282 2.622-2.052 0 0-1.513 2.404-1.027 2.57.562.194 1.349-.856 1.349-.856s-.133.734.15.774c.69.098 1.273-1.66 1.273-1.66s.354-.33.262.157c-.126.668-.07 1.217.478 1.008.22-.084 1.18-3.294 1.046-2.258-.134 1.037-.23 2.072-.075 1.88.154-.191 1.6-3.324 1.6-3.324zm-.047-3.453c.37-.23.446-.613.816-.842.114-.113.343-.596.456-.713.373-.389.086.22.086.22l.468-.663.147.192s.118-.446.406-.743c.095-.097.04.199.04.199l.433-.692.173-.062.102.09.157-.037-.022.166c.183-.034.058.032.132.073 0 0 .102.125-.353.24-.136.034.34.036.412.084.072.046-.59.248-.59.248s.629.043.56.059c-.07.016-.12.134-.12.134s.114.189-.336.17c-.133-.006.513.167.455.222-.042.04-.167.01-.16.078.007.075.16-.078.18.031.025.134-.21.142-.186.21.034.097.104.15.104.15l-.84-.13.724.273-.137.216s-.732-.096-.33.046c.32.113-.224.142-.138.195.073.044-.85-.194-.932-.173 0 0 .95.319.852.407-.108.097-.717.025-1.014-.066 0 0 .813.378.727.518-.1.162-.485.021-.485.021s.17.179.11.244c-.15.16-.618-.216-.618-.216s-.147-.024-.034.094c.155.161.244.325.074.372-.07.02-.9-.69-.674-.427.226.263.442.533.37.51-.074-.024-1.008-.618-1.008-.618zm-.706 30.09c1.337.487 2.573.114 3.91.6.532.09 2.335-.088 2.878-.007 1.8.27-.471.496-.471.496l2.758.09-.28.593s1.494-.37 2.872-.158c.455.07-.49.368-.49.368l2.773-.027.493.29-.07.349.396.288-.516.185c.434.353.018.173.036.392 0 0-.17.396-1.336-.435-.348-.248.52.793.518 1.016-.002.222-1.795-.939-1.795-.939s1.034 1.432.86 1.304c-.175-.128-.603-.07-.603-.07s-.33.51-1.104-.497c-.23-.3.465 1.352.202 1.304-.195-.037-.335-.35-.52-.24-.202.12.52.24.243.437-.338.24-.792-.261-.941-.115a.784.784 0 0 0-.24.438l-1.173-2.012.55 1.961-.87.005s-1.071-1.73-.737-.655c.265.853-.82-.29-.811-.03.007.223-1.007-2.122-1.22-2.273 0 0 .836 2.52.402 2.43-.477-.1-1.39-1.529-1.676-2.306 0 0 .414 2.303-.143 2.313-.647.01-.954-1.028-.954-1.028s-.2.62-.498.58c-.73-.098-.516-1.65-.516-1.65s-.202-.353-.33.059c-.178.565-.483.988-.932.683-.182-.123.319-2.93-.017-2.069-.336.862-.711 1.712-.777 1.52-.067-.193-.087-3.062-.087-3.062zM23.854 58.37c1.327.387 4.275-1.417 5.602-1.03 1.326.387.859 1.499 2.185 1.886 1.025.084 5.879.85 6.91.703.734-.104 1.62-.594 1.62-.594l2.018-.375-.746-.297 6.66.129 5.223-1.106-1.78.849.785.34.077.983 1.076.467-.72 1.339c.645-.157-.73-1.622-.63-1.156l-.56 1.108c-.545.03-.563.743-.497 1.224.065.477-1.303.258-1.303.258s.235 1.233-.131.993c-.366-.24-.286-.007-.286-.007s-.15.628-1.632.383c-.844-.14-.23 1.48-.738 1.431-.376-.036-.713-.712-1.025-.437-.343.302 1.363.597.906 1.077-.56.587-1.804-.514-2.04-.168-.34.501-.307 1.11-.307 1.11l-2.157-2.076 1.283 2.458-1.848-1.121c-.095.834-3.106-3.257-2.151-1.012.757 1.78-1.137.115-1.04.673.082.476-1.89-1.444-2.334-1.724 0 0 .927 2.6.088 2.495-.924-.116-1.853.191-2.63-1.421 0 0 .739 1.206-.303 1.34-1.208.155-2.255-1.75-2.255-1.75l.463 1.015-3.103-2.707c.843-.45 1.066.614.177 1.099-.622.339-.652-2.556-.926-2.236-.275.32-1.655-2.356-2.02-.435-.367 1.921-.448 1.773-.63 1.373-.184-.4-.395-5.792-.395-5.792zm1.966 11.028c-.854 1.261-1.524 1.943-2.38 3.204-.394.388-3.224 1.982-3.693 2.267-.333.202.005 1.001.005 1.001l-.524.132.05.198-3.616 1.277-1.56 1.827 1.53-.04-.783.382.13.252-.126.64.65-.115c-.217.627.17.616.272.865l.26-1.568c.27.582.744 1.086.864 1.33.118.242.22-.634.22-.634s.383.787.46.552c.077-.235.464-.406.464-.406s.527.743 1.062.124c.304-.352-.027.216.167.02.143-.145.01-.36.22-.34.234.021-.293.53.04.595.41.08.68-.624.883-.544.293.114.31.29.31.29l.392-1.12-.054.35 1.04.147c-.158-.237-.135-3.13.157-1.771.23 1.077.243-.642.374-.352.11.247.737-.636.835-.916 0 0-.22.897.093.563.344-.37.644-.215.47-1.22 0 0 .463 1.072.932.778.543-.34.299-1.922.299-1.922l.26.867.054-2.66c.1.179-.105.929.408.848.359-.056-.084-1.387.126-1.333.21.053-.47-1.672.265-.913.736.759.749.926.702.68-.047-.247-1.361-3.698-1.361-3.698zm.89-65.642c.11-.36-.142-.62-.032-.98 0-.134-.212-.546-.217-.682-.018-.45.25.068.25.068l-.168-.662.277.014s-.27-.322-.282-.667c-.004-.114.195.084.195.084l-.22-.655.09-.143.155-.013.095-.12.119.107c.119-.134.072-.02.165-.043 0 0 .184.005-.087.355-.081.104.303-.193.4-.212.095-.02-.272.508-.272.508s.54-.371.498-.318c-.042.052.015.149.015.149s.245.033-.132.305c-.112.08.548-.229.547-.162-.001.05-.126.11-.065.144.067.038.065-.144.17-.096.13.06-.053.211.02.234.109.032.208.018.208.018l-.78.455.805-.303.066.206s-.666.406-.227.233c.348-.138-.064.22.048.195.095-.022-.84.424-.89.488 0 0 1.024-.419 1.018-.308-.007.122-.555.463-.87.6 0 0 .963-.3 1.009-.17.052.153-.372.317-.372.317s.282-.006.287.068c.012.181-.673.266-.673.266s-.137.08.05.074c.257-.008.462.027.364.16-.04.054-1.287.182-.89.186.396.005.79.019.712.051-.078.033-1.313.289-1.313.289z" stroke-width=".289"/><path d="M27.096 4.434c-.226-.199-.158-.479-.385-.678-.055-.091-.08-.457-.133-.552-.175-.313-.144.148-.144.148l-.16-.517-.186.122s.054-.328-.082-.568c-.045-.078-.1.137-.1.137l-.121-.534-.12-.06-.114.054-.116-.043-.038.12c-.138-.042-.058.017-.133.04 0 0-.125.078.209.204.1.038-.29-.007-.365.02-.075.025.399.234.399.234s-.53-.032-.478-.014c.05.02.052.108.052.108s-.156.122.219.153c.11.01-.476.068-.447.113.02.033.133.023.105.071-.031.053-.105-.071-.158.005-.065.092.125.121.082.167-.06.066-.135.096-.135.096l.73-.01-.684.124.04.166s.63.005.254.065c-.3.049.136.124.048.152-.075.024.76-.054.82-.03 0 0-.885.132-.834.205.056.08.578.088.852.053 0 0-.792.188-.77.296.028.125.39.063.39.063s-.198.11-.17.163c.067.128.577-.093.577-.093s.128-.002-.004.07c-.18.1-.31.207-.185.257.05.02.968-.4.695-.237-.273.165-.541.335-.474.325.068-.01 1.03-.338 1.03-.338z" stroke-width=".289"/></g></svg>