<svg xmlns="http://www.w3.org/2000/svg" width="268.281" height="542.575" viewBox="0 0 70.983 143.556" version="1.1"><g fill="#502d16" stroke="none" stroke-width="1.412" stroke-linecap="butt" stroke-linejoin="miter" stroke-opacity="1"><path d="M31.448 75.742c-.26 0-1.465-.832-2.512-1.288-1.317-.574-4.2-1.852-4.2-1.852.1-.258 4.513 1.67 5.38 1.826.5.09 1.304-.615 1.304-.615z" fill="#502d16" stroke="none" stroke-width=".164"/><path d="M31.037 142.85c-.53-3.692-.183-10.732-.183-10.732-.405-15.27-.127-16.703-.357-20.406-.556-11.903.238-31.104.238-31.104l1.725-46.642-1.377-15.026s-.003-4.773.242-8.325c.097-1.416.68-8.33.892-6.916.161 1.077.083 14.416.083 14.416.78 9.096 1.678 10.89 1.787 18.565l.47 33.085-.5 5.83s.303 30.16.602 34.984c1.105 12.136.521 20.595 2.21 29.784-1.57 3.623-3.71 3.707-5.832 2.487z" stroke-width=".374"/><path d="M32.583 81.117c.764-1.82 1.652-1.983 1.652-1.983s3.478-3.01 4.565-4.582c1.206-1.745 2.49-7.43 3.906-9.88 3.136-5.424 6.068-6.76 8.305-10.672 1.102-1.927 1.566-3.894 2.456-6.19.941-2.428.987-1.983 3.247-7.557 1.174-2.893.902-3.504.588-7.23-.063-.744-.91-22.39-.683-21.668.496 1.588 1.964 18.135 2.077 19.548.29 3.61 1.5 6.396.243 9.352l-3.539 8.33-1.347 4.358c-1.776 5.744-2.795 2.954-8.104 12.02-1.026 1.86-3.683 9.818-3.683 9.818s-.236 1.41-1.4 2.747c0 0-2.524 2.282-2.618 2.544-3.352 4.435-2.952 4.913-5.69 7.743-.84 1.042-.31-5.897.025-6.698zm.616-31.488c-.114 1.226-.906-2.31-.906-2.31s-2.79-3.125-3.61-3.754c-.91-.698-2.8-3.62-3.965-4.668-2.58-2.318-4.095-2.36-5.947-4.038-.912-.827-1.573-1.833-2.488-2.922-.966-1.151-.878-.887-3.138-3.506-1.173-1.36-1.209-1.773-1.976-3.972-.153-.44-.216-12.973-.135-12.506.18 1.026-1.235 10.808-.942 11.64.75 2.127.926 4.01 2.147 5.386l3.443 3.875 1.596 2.15c2.103 2.835 1.848.996 6.19 4.855.864.808 3.858 4.687 3.858 4.687s1.193 2.363 1.99 2.838c1.48.885 2.713 4.76 2.814 4.886 2.43 1.702.486-3.625 2.283-2.686.592.387-1.11-1.077-1.16-.538zm.163 12.71s-1.613-.622-2.08-1.3c-1.013-1.47-1.252-4.657-2.342-6.246-3.356-4.89-10.189-9.71-10.6-9.957-.397-.24-7.394-.685-8.906-.376-.86.176-1.617 2.24-2.16 2.098 0 0 1.116-2.188 2.02-2.442 2.14-.604 6.521-.251 6.521-.251s1.817-.028 2.604.376c1.312.673 3.756 2.802 3.756 2.802l5.614 5.448L29 53.82s.78.883 1.05 1.786c.183.61.303 1.192.404 1.847.182 1.186.622 2.46 1.316 3.035.498.412 1.693.002 1.693.002zm-1.194-39.7s-1.145-.471-1.476-.985c-.719-1.115-.889-3.531-1.663-4.736-2.382-3.707-7.23-7.36-7.524-7.548-.28-.181-5.248-.52-6.32-.285-.612.133-1.148 1.699-1.534 1.59 0 0 .793-1.658 1.433-1.851 1.52-.457 4.63-.19 4.63-.19s1.29-.021 1.848.285c.93.51 2.666 2.124 2.666 2.124l3.984 4.13.86 1.01s.553.668.746 1.352c.13.463.215.904.286 1.4.13.9.442 1.867.934 2.302.354.312 1.202 0 1.202 0z" stroke-width=".374"/><path d="M50.59 57.562s-1.196-1.573-1.9-2.554c-.33-.461-.865-1.304-1.412-1.745-.866-.7-2.685-1.364-3.654-2.026-1.233-.842-2.659-2.373-2.659-2.373s-1.842-2.286-3.242-3.393c-2.66-2.104-5.76-4.046-9.045-5.708-1.942-.983-6.647-2.473-6.209-2.545 0 0 3.315.978 5.041 1.68a24.07 24.07 0 0 1 2.53 1.193c2.586 1.415 5.588 3.187 7.712 4.875.6.476 1.103.91 1.655 1.365.557.46 2.321 2.99 4.41 4.507 1.074.779 3.442 1.518 3.832 1.86 1.56 1.368 3.365 3.593 3.365 3.593z" stroke-width=".374"/><path d="M46.712 61.87s-.442.207-.929-.151c-.229-.17-.67-.445-.817-.705-.234-.411-.148-1.228-.323-1.68-.224-.577-.883-1.275-.883-1.275s-1.072-.92-1.435-1.583c-.688-1.26-1.123-2.698-1.3-4.2-.103-.887.285-2.986.097-2.803 0 0-.325 1.475-.356 2.254-.014.358-.002.739.073 1.152.216 1.187.558 2.574 1.114 3.58.157.285.313.525.47.787.156.265 1.43 1.166 1.872 2.147.227.505.024 1.56.15 1.747.5.746 1.77 2.106 1.77 2.106zm-14.676 51.497c2.586-.59 2.435-.724 2.954-1.438 1.388-1.914 3.67-4.91 5.555-7.305.57-.723 2.284-3.032 2.807-3.357 1.23-.765 2.752-.12 4.908-.295 1.703-.138-4.81-.521-5.114-.277-1.73 1.393-3.887 4.57-5.07 6.088-1.774 2.275-1.91 3.006-3.806 4.593-.803.67-2.234.664-2.234.664zm1.373-9.663s-2.756-.123-4.395-1.12c-2.083-1.266-6.565-5.748-10.526-8.73-1.422-1.071-4.613-3.82-6.583-4.578-.759-.292-1.764-.336-2.38-.47-1.13-.244-2.379-.123-3.277-.175-1.5-.088-2.497.655-3.897.172-.775-.267-1.534-.683-2.297-1.62-.438-.536 1.901.967 2.653.818 2.834-.562 5.74-.924 8.68-.496 2.796.406 6.266 4.38 9.643 7.059 2.39 1.895 5.21 5.049 7.468 6.122 1.363.648 3.538-.07 3.538-.07zm.481-37.245s-2.51-.95-4.132-1.36c-2.264-.573-4.77-2.194-7.035-2.76-1.233-.308-1.859-.172-3.093-.476-1.552-.383-2.71-1.402-4.367-1.856-1.73-.475-5.76-.904-5.76-.904s-1.708-1.497-2.124-2.712c-.505-1.474-.182-4.997-.182-4.997s.393 3.336 1.213 4.854c.442.818.977 1.72 1.94 2.189 1.2.58 2.71.14 4.185.475.84.19 2.608.572 2.608.572s-1.153-1.55-1.94-2.19c-1.105-.895-3.82-2.236-3.82-2.236s-5.95-3.77-7.4-5.52c-.892-1.076 6.49 3.855 6.49 3.855s4.12 1.845 5.942 3.33c1.242 1.013 3.397 3.522 3.397 3.522s3.815.306 5.215.76c1.66.54 2.216 1.989 3.64 2.285 1.801.375 4.695-.951 4.695-.951zm-.006-26.235s1.182-2.04 2.012-3.18c1.158-1.59 2.12-4.215 3.281-5.8.632-.863 1.048-1.044 1.683-1.904.797-1.081 1.153-2.531 1.99-3.726.873-1.248 3.128-3.562 3.128-3.562s.526-2.133.378-3.4c-.18-1.533-1.519-4.468-1.519-4.468s.852 3.115.86 4.84c.003.93-.02 1.98-.44 2.852-.524 1.086-1.563 1.426-2.332 2.428-.437.57-1.363 1.754-1.363 1.754s.18-1.913.44-2.852c.365-1.317 1.542-3.797 1.542-3.797s2.307-6.165 2.598-8.397c.18-1.372-2.6 6.499-2.6 6.499s-1.847 3.599-2.446 5.777c-.408 1.485-.87 4.72-.87 4.72s-2.169 2.103-2.85 3.175c-.81 1.27-.67 2.808-1.42 3.752-.948 1.194-3.1 1.422-3.1 1.422zm-1.257 45.22s-2.219-3.41-3.77-4.343c-1.422-.857-4.852-1.664-4.852-1.664s-1.67-3.257-2.957-4.25c-1.9-1.468-7.507-2.865-7.507-2.865s-4.366-2.477-5.914-4.251c-1.607-1.84 3.175 2.22 5.99 3.419 2.596 1.105 5.597 1.23 7.886 2.957 1.37 1.034 1.71 2.996 3.11 3.974 1.16.812 2.841.464 3.942.924 1.034.432 1.045.944 2.047 1.478.61.325 1.98.294 1.98.294z" stroke-width=".374"/><path d="M17.316 91.312c-.064-.345-.86-3.185-.68-4.724.06-.528.355-.958.295-1.393-.243-1.733-.302-2.772-.616-3.622-.368-.997-2.78-2.142-2.09-1.592.623.496 1.35.886 1.73 1.638.47.932.672 2.29.51 3.406-.066.46-.288 1.07-.563.99a4.431 4.431 0 0 1-1.56-.79c-.26-.202-.19-1.33-.45-1.64-.502-.602-2.31-2.417-1.81-1.667.314.476 1.226 1.082 1.653 2.01.211.46.084 1.02.381 1.45.404.588 1.551 1.125 1.96 1.802.291.483.185 1.514.185 1.514l-.112 1.828zm35.84-35.935s1.617-3.138 2.632-3.888c.47-.347 1.22-.015 1.721-.313.883-.525 1.451-1.934 2.322-2.478 1.33-.832 2.865-.628 4.278-.887 1.002-.184 1.933-.564 2.87-.34.67.162 1.8.992 1.8.992.524-.41-.833-1.078-1.487-1.33-.699-.27-5.818.495-5.818.495s-1.355.278-1.956.6c-1.013.543-1.3 1.687-2.27 2.27-.495.297-1.826.26-1.826.26-.348.244-2.56.05-2.263.682zm-8.937 6.758s2.927.068 4.334.423c1.572.397 2.868 1.962 4.487 1.879 1.306-.068 2.182-1.536 3.443-1.88 1.058-.286 2.247.244 3.287-.103.948-.316 1.773-1.317 2.452-1.722.835-.497-1.173 1.637-2.034 2.087-.75.392-2.505.418-2.505.418s.714.404.94.73c.3.434.54.99.47 1.513-.09.674-1.097 1.722-1.097 1.722-.53-.266.642-1.076.627-1.67-.012-.436-.522-1.2-.522-1.2s-.79-.804-1.305-.835c-1.273-.075-2.17 1.574-3.443 1.67-1.815.137-3.417-1.345-5.217-1.617-.79-.12-1.647-.272-2.4 0-.524.188-1.287 1.065-1.287 1.065zM30.83 84.303s2.833 1.286 4.353 1.402c1.242.095 2.498-.23 3.69-.59 2.485-.753 5.056-1.623 7.083-3.246 1.808-1.45 4.127-5.425 4.205-5.534 1.238-1.725-2.255 4.23-4.017 5.852-.785.723-2.77 1.674-2.77 1.674s1.363-.14 2.028-.295c1.147-.27 3.351-1.133 3.351-1.133.648-.078-2.593 1.278-3.978 1.649-.695.187-1.445.104-2.14.295-1.519.419-2.839 1.408-4.353 1.845-1.03.297-2.102.568-3.172.516-1.448-.07-4.206-1.107-4.206-1.107zm.74-67.3s3.094-.312 4.467-.976c1.121-.542 2.043-1.453 2.892-2.364 1.77-1.901 3.555-3.945 4.491-6.368.835-2.16.841-6.764.854-6.898.203-2.113.178 4.792-.53 7.079-.316 1.02-1.555 2.84-1.555 2.84s1.11-.806 1.606-1.276c.855-.81 2.327-2.663 2.327-2.663.52-.394-1.599 2.408-2.61 3.425-.507.51-1.197.817-1.7 1.33-1.104 1.127-1.748 2.645-2.837 3.784-.74.774-1.532 1.548-2.483 2.04-1.286.669-4.192 1.159-4.192 1.159zm1.574 10.382c.188-.087 3.943-4.335 5.828-6.478.907-1.03 1.673-2.1 2.54-3.064 1.614-1.797-1.619 2.392-2.469 3.48-1.376 1.76-2.915 2.963-4.254 4.924-.566.83-1.55 2.8-1.55 2.8zm-.536 15.75s-7.493-5.654-7.577-4.867c0 0 3.433 2.62 4.626 3.687 1.413 1.264 3.172 3.32 3.172 3.32z" stroke-width=".374"/><g stroke-width=".33"><path d="M57.196 42.279s-2.068-1.168-3.143-1.552c-1.2-.428-2.498-.094-3.612-.808-.899-.575-1.148-1.75-1.947-2.46-.67-.596-1.635-.792-2.278-1.413-.586-.565-.915-1.46-1.29-1.965-.463-.62.415 1.39.906 1.996.43.526 1.652 1.263 1.652 1.263s-.6-.07-.84.018c-.318.117-.624.326-.705.645-.104.41.34 1.406.34 1.406.44.072-.182-.86-.024-1.184.117-.237.664-.45.664-.45s.753-.12 1.122.075c.912.484 1.131 1.767 2 2.345 1.238.824 2.73.663 4.058 1.254.585.26 1.223.529 1.683.99.32.32.637 1.12.637 1.12z"/><path d="M50.992 40.252s-.352-3.444-.088-3.32c0 0 .171 1.584.28 2.164.128.687.441 1.635.441 1.635z"/></g><g stroke-width=".388"><path d="M32.342 12.42s-.507-1.934-.908-2.81c-.45-.976-1.427-1.57-1.648-2.66-.178-.88.4-1.714.365-2.612-.03-.753-.482-1.453-.48-2.204.002-.684.36-1.405.45-1.926.108-.641-.615 1.062-.697 1.712-.07.566.2 1.737.2 1.737s-.314-.405-.51-.5c-.262-.124-.574-.188-.82-.051-.316.176-.668 1.025-.668 1.025.217.308.425-.612.72-.704.215-.068.673.14.673.14s.522.387.62.724c.243.834-.42 1.715-.263 2.577.227 1.23 1.213 2.04 1.638 3.19.187.506.4 1.05.388 1.597-.008.38-.315 1.039-.315 1.039z"/><path d="M29.907 7.479s1.924-2.22 2.004-1.987c0 0-.88 1.026-1.174 1.43-.349.478-.75 1.22-.75 1.22z"/></g><g stroke-width=".278"><path d="M11.29 87.915s-1.44 2.19-2.57 2.835c-1.218.693-3.94 1.046-4.653 1.278-.962.312 3.25.233 4.537-.198 1.18-.396 2.974-2.326 2.974-2.326z"/><path d="M7.995 91.855s-1.156.18-1.575.545c-.45.393-.644.77-.88.99-.27.25-.029-.45.3-.892.303-.406 1.41-.9 1.41-.9z"/></g><g stroke-width="2.562"><path d="M18.748 35.367s-.108-1.516.333-2.477c.56-1.221 2.727-3.961 4.106-6.32.496-.847 1.796-2.77 2.086-3.897.111-.434.07-.987.105-1.332.062-.635-.085-1.31-.113-1.806-.048-.826-.519-1.325-.344-2.122.097-.441.276-.884.74-1.36.266-.275-.408 1.102-.278 1.504.49 1.515.873 3.083.826 4.72-.044 1.556-1.997 3.71-3.248 5.73-.885 1.428-2.43 3.174-2.874 4.48-.267.787.322 3.602.322 3.602z" stroke-width=".678"/><path d="M24.504 25.766c.185-.057 1.69-.675 2.543-.675.293 0 .547.134.781.073.933-.244 1.498-.343 1.944-.57.522-.264.994-1.658.738-1.245-.232.373-.4.796-.786 1.052-.48.317-1.212.514-1.832.497-.257-.007-.604-.09-.579-.245.05-.295.138-.582.333-.905.094-.155.716-.19.87-.35.297-.314 1.175-1.42.796-1.1-.24.204-.514.742-.995 1.036-.237.144-.552.11-.77.3-.295.26-.516.922-.86 1.189-.246.19-.817.198-.817.198l-1.008.055z" stroke-width=".678"/><g stroke-width=".504"><path d="M25.98 22.249s-1.293-.647-1.717-1.225c-.458-.623-.825-2.09-.997-2.466-.233-.506.08 1.794.398 2.47.292.622 1.463 1.48 1.463 1.48z"/><path d="M23.611 20.697s-.173-.62-.399-.826c-.244-.222-.463-.304-.598-.42-.154-.13.244-.044.508.108.241.14.582.714.582.714z"/></g></g><path d="M35.376 128.79c.967-.414 2.662-.46 4.253-1.04.302-.11-.265 2.88-.567 2.973-1.486.455-3.686 4.532-3.686 4.532s-.494-6.252 0-6.464zm6.61-59.131s4.958-.37 7.401-.895c2.882-.62 5.73-1.538 8.502-2.657 2.001-.807 4.311-1.485 6.063-2.855 2.088-1.633 4.994-5.655 5.212-6.272.146-.41.724-5.277.926-5.27 0 0-.24 1.769-.34 2.613-.068.57-.259 1.604-.129 1.628.33.06.95-.415 1.162-.853.143-.298-.142-.92-.044-1.015.095-.091.33.59.21.982-.19.62-.97.9-1.318 1.432-.125.192-.117.457-.223.662-.6 1.154-2.338 2.939-2.289 3.096.124.394.8.184 1.136.017.573-.285.873-1.288 1.454-1.511.326-.125.6-.004.735.179 0 0-.44-.162-.705-.005-.512.304-.792 1.267-1.352 1.585-.36.205-.755.02-1.23.259-1.15.575-1.932 2.194-2.946 3.038-.916.762-3.057 1.707-3.057 1.707s.647.842 1.104.877c.908.068 1.728-.784 2.48-1.387.577-.462 1.126-1.45 1.515-1.673.476-.273-.067.516-.668 1.235a8.98 8.98 0 0 1-.82.879c-.747.653-1.59 1.35-2.584 1.304-.608-.03-.923-.76-1.578-.833-1.587-.18-3.2 1.104-4.694 1.845-.27.133-.33.625-.693.618-.25-.005-.323-.384-.573-.365-.844.06-3.61 1.703-5.504 2.16-1.214.294-2.47.157-3.696.362-.626.104-1.86.44-1.86.44zm17.046-37.847s-2.499-2.74-3.553-4.276c-1.245-1.813-2.318-3.768-3.248-5.795-.67-1.462-1.576-3.013-1.824-4.653-.295-1.954.19-5.623.387-6.07.132-.296 2.31-3.23 2.198-3.33 0 0-.776 1.08-1.154 1.59-.255.344-.68 1.003-.764.949-.21-.136-.303-.711-.193-1.057.075-.235.548-.426.544-.528-.005-.098-.48.15-.617.425-.215.433.065.984-.02 1.45-.03.169-.17.309-.217.474-.266.933-.238 2.79-.345 2.85-.27.15-.529-.31-.625-.572-.164-.448.187-1.145-.014-1.564-.113-.235-.323-.308-.49-.28 0 0 .322.139.384.359.122.427-.219 1.093-.079 1.552.09.295.4.398.535.77.33.9-.077 2.179.04 3.156.106.882.783 2.49.783 2.49s-.782.126-1.047-.09c-.528-.427-.536-1.31-.635-2.021-.076-.546.133-1.363.036-1.683-.118-.392-.228.314-.27 1.01a6.78 6.78 0 0 0-.006.898c.07.736.171 1.547.733 2.03.344.296.89.06 1.282.357.951.716 1.17 2.237 1.6 3.404.077.21-.142.508.058.69.138.126.372-.043.498.096.426.465 1.084 2.772 1.876 3.99.508.78 1.26 1.35 1.82 2.089.285.377.782 1.192.782 1.192z" stroke-width=".374"/></g></svg>