<svg xmlns="http://www.w3.org/2000/svg" width="284.57" height="560.597" viewBox="0 0 75.292 148.325" version="1.1"><g fill="#754e35" fill-opacity=".861" stroke="none" stroke-width=".284" stroke-linecap="butt" stroke-linejoin="miter" stroke-opacity="1"><path d="M35.7 90.322c-.203 0-1.137.646-1.95 1-1.023.446-3.26 1.438-3.26 1.438.077.2 3.503-1.296 4.176-1.417.388-.07 1.012.477 1.012.477z" fill="#754e35" fill-opacity=".861" stroke="none" stroke-width=".075"/><path d="M38.518 146.371c.25-3.913-.115-19.82-.115-19.82v-42.96l-1.26-51.21.802-15.924s-.12-7.94-.236-11.706c-.046-1.5-.35-5.946-.45-4.447-.077 1.14-.345 10.654-.345 10.654l-.229 8.02-.916 14.434-.23 25.777-.229 39.065-.573 28.068s.47 7.12.115 10.655c-.055.544-.34 1.423-.384 1.968-.135 1.638.188 2.983-.095 4.602-.206 1.18-1.02 2.95-1.01 3.282.083 2.687 5.045 1.263 5.155-.458z" stroke-width=".075"/><path d="M38.29 85.194s2.286.57 2.95 1.19c1.435 1.343 1.774 4.26 3.321 5.713 4.76 4.473 14.451 8.88 15.036 9.107.562.22 10.486.626 12.63.344 1.222-.16 2.294-2.05 3.065-1.919 0 0-1.584 2.002-2.864 2.234-3.034.552-9.25.23-9.25.23s-2.579.025-3.695-.344c-1.86-.616-5.327-2.564-5.327-2.564l-7.962-4.983-1.719-1.217s-1.105-.807-1.49-1.633a8.6 8.6 0 0 1-.572-1.69c-.258-1.084-.882-2.25-1.866-2.776-.706-.376-2.4-.002-2.4-.002zM35.624 71.39s-1.686 1.938-2.7 3.177c-.476.582-1.28 1.698-1.948 2.09-1.057.617-2.975.48-4.112.957-1.447.608-3.328 2.304-3.328 2.304s-2.546 2.74-4.245 3.7c-3.23 1.82-6.803 3.033-10.439 3.611-2.15.342-7.026-.42-6.65.027 0 0 3.407.666 5.255.668.848 0 1.76-.066 2.77-.29 2.901-.646 6.32-1.625 8.902-3.094.728-.414 1.352-.824 2.03-1.234.683-.415 3.248-3.65 5.733-4.837 1.277-.61 3.728-.207 4.213-.534 1.943-1.31 4.433-3.968 4.433-3.968zm2.664 24.917c2.52.458 2.373.562 2.878 1.117 1.353 1.485 3.578 3.81 5.413 5.67.555.563 2.226 2.355 2.735 2.607 1.198.594 2.682.094 4.783.23 1.66.106-4.687.404-4.983.214-1.685-1.08-3.787-3.547-4.94-4.726-1.73-1.766-1.862-2.334-3.71-3.566-.78-.52-2.176-.515-2.176-.515zm-2.768-.207s-3.607.677-5.252 1.582c-2.088 1.15-5.63 4.576-9.29 7.074-1.315.896-4.077 3.096-6.292 3.944-.852.327-2.169.573-2.917.782-1.373.383-3.105.594-4.273.821-1.953.38-3.685.197-5.289.77-.888.316-1.675.71-2.183 1.387-.292.39 2.01-.945 3.093-1.03 4.083-.323 8.154-.77 11.84-1.652 3.508-.84 5.976-3.767 9.023-5.97 2.156-1.56 4.203-3.897 6.632-4.98 1.465-.654 4.754-.745 4.754-.745z" stroke-width=".075"/><path stroke-miterlimit="4" d="M38.16 88.791l3.36 2.997s1.041.751 1.158.813l.734.39c.183.16.15.382.15.382.043.112 1.845 1.312 2.191 1.435.216.078.35-.133.545-.012 1.131.703 2.971 1.72 3.238 2.184.395.688.176 1.341.521 1.885.273.43.651.5 1.118.887.391.325-.983-.349-1.302-.804-.356-.512-.31-1.663-.514-1.863-.808-.793-2.435-1.697-3.139-1.99-.224-.095-.099 1.237.044 1.403.523.61 2.088 1.194 2.17 1.467.116.4.391 2.596.302 2.876-.032.102-.226-1.9-.478-2.735-.104-.343-1.884-1.129-2.273-1.442-.1-.08-.014-.84-.185-1.21-.14-.3-2.348-1.97-2.856-1.945-.314.016-.195 2.024.048 2.228.47.394 1.706.857 1.714.911.02.138-.189 1.146-.222 1.276-.015.06-.045-.478-.04-1.093 0-.217-1.553-.557-1.776-.875-.188-.268-.163-2.05-.41-2.776-.097-.286-1.386-1.472-1.582-1.17-.09.138-.623 2.737-.57 2.843.13.27 2.028 2.875 2.03 3.03 0 0-2.106-2.487-2.39-2.936-.138-.214.394-2.454.161-3.362-.126-.487-1.807-.926-1.807-.926z" stroke-width=".189" paint-order="normal"/><path d="M35.454 98.702s-.838.405-1.38.58c-.756.243-1.592.933-2.35 1.174-.41.13-.62.073-1.032.202-.518.163-.905.597-1.458.79-.578.202-1.924.385-1.924.385s-.57.637-.709 1.154c-.169.627-.06 2.127-.06 2.127s.13-1.42.404-2.066c.148-.348.327-.733.648-.93.4-.249.905-.06 1.398-.204.28-.08.87-.243.87-.243s-.384.66-.647.932c-.37.38-1.276.951-1.276.951s-1.987 1.605-2.47 2.35c-.299.458 2.166-1.64 2.166-1.64s1.376-.786 1.985-1.418c.414-.43 1.134-1.499 1.134-1.499s1.274-.13 1.741-.324c.554-.23.74-.846 1.215-.972.602-.16 1.568.405 1.568.405z" stroke-width=".075"/><path d="M35.277 100.456s-1.185 1.495-2.013 1.904c-.76.375-2.592.73-2.592.73s-.892 1.426-1.58 1.862c-1.015.643-4.01 1.255-4.01 1.255s-2.332 1.086-3.16 1.864c-.857.806 1.697-.974 3.2-1.499 1.388-.484 2.99-.54 4.213-1.296.732-.453.914-1.313 1.66-1.742.62-.356 1.52-.203 2.107-.405.553-.19.558-.414 1.093-.648.326-.142 1.06-.129 1.06-.129zm3.01 11.746c.202.203 1.723 2.155 2.873 2.57.395.14.847-.002 1.113.233 1.058.934 1.738 1.403 2.153 2.067.487.78-.015 3.768-.024 2.826-.007-.85.113-1.77-.2-2.464-.388-.86-1.21-1.606-2.06-1.873-.353-.11-.887-.115-.98.205a6.834 6.834 0 0 0-.29 1.954c0 .353.808.722.883 1.116.145.764.425 3.38.177 2.56-.158-.518-.087-1.716-.496-2.53-.202-.4-.653-.487-.79-.97-.187-.655.057-2.073-.19-2.77-.175-.495-.938-.787-.938-.787l-1.313-.598zM35.584 80.47s-.562 2.027-1.349 2.61c-.364.27-.947.011-1.337.243-.685.407-1.126 1.501-1.802 1.924-1.033.645-2.225.487-3.32.688-.779.143-1.5.438-2.229.264-.52-.125-1.397-.77-1.397-.77-.407.318.646.837 1.154 1.033.542.21 4.516-.385 4.516-.385s1.052-.216 1.52-.466c.785-.42 1.008-1.31 1.761-1.762.385-.23 1.418-.202 1.418-.202.27-.19 1.241-.164 1.01-.653zm-.01 12.124l-3.364.328-3.484 1.458-2.673-1.458-2.552-.08-1.903-1.337 1.58 1.62 1.944.324-.73.567-.364 1.174.85 1.337-.485-1.296.405-.932 1.012-.648 2.673 1.296 4.05-1.255h1.864l1 .827zm1.982-39.65s2.91 3.645 4.577 5.266c1.967 1.913 4.114 3.648 6.36 5.225 1.62 1.138 3.318 2.58 5.184 3.24 2.225.788 6.504 1 7.037.856.357-.095 3.957-2.108 4.06-1.949 0 0-1.324.71-1.948 1.058-.422.236-1.224.611-1.17.724.135.285.79.524 1.2.466.278-.04.546-.575.663-.547.112.027-.222.553-.552.658-.52.168-1.128-.294-1.675-.293-.197 0-.372.14-.567.162-1.103.12-3.242-.32-3.322-.203-.2.295.305.712.598.886.5.3 1.34.024 1.802.36.26.188.324.46.273.658 0 0-.127-.422-.374-.547-.48-.242-1.283.028-1.798-.243-.33-.175-.42-.573-.835-.82-1.007-.598-2.52-.383-3.635-.74-1.007-.322-2.795-1.498-2.795-1.498s-.222.925 0 1.296c.44.736 1.456.94 2.268 1.215.622.212 1.585.136 1.944.324.66.345-1.514.128-2.227-.08-.843-.247-1.767-.547-2.268-1.337-.308-.485.018-1.097-.284-1.64-.73-1.317-2.464-1.914-3.767-2.694-.235-.14-.6.06-.79-.223-.13-.196.086-.443-.06-.628-.495-.62-3.09-1.928-4.415-3.16-.85-.789-1.432-1.829-2.228-2.672-.407-.43-1.296-1.216-1.296-1.216zm-1.502-21.65s-2.2.997-3.38 1.087c-.964.074-1.939-.178-2.864-.458-1.93-.585-3.925-1.26-5.499-2.52-1.404-1.125-3.204-4.212-3.265-4.297-.96-1.339 1.75 3.285 3.12 4.544.61.561 2.15 1.3 2.15 1.3s-1.059-.108-1.575-.23c-.89-.21-2.6-.88-2.6-.88-.505-.06 2.011.993 3.087 1.28.54.146 1.122.082 1.66.23 1.18.325 2.205 1.093 3.38 1.432.8.23 1.633.44 2.463.401 1.125-.054 3.266-.86 3.266-.86zm1.318-6.474c.228-.057 4.804-2.837 7.102-4.239 1.104-.673 2.04-1.374 3.093-2.005 1.968-1.176-1.97 1.565-3.007 2.277-1.677 1.153-3.55 1.94-5.184 3.222-.69.543-1.89 1.833-1.89 1.833zm-.23 7.561s5.817-4.39 5.882-3.779c0 0-2.665 2.035-3.59 2.863-1.098.981-2.464 2.577-2.464 2.577zM37.18 7.92s-2.64-2.517-3.187-2.976C32.738 3.89 37.15 8.687 37.15 8.687zm1.147 118.54s2.105.915 3.62.87c1.634-.05 6.063-1.165 6.063-1.165-2.323 1.125-4.09 1.612-5.777 1.878-1.547.244-4.068-.327-4.068-.327zm-3.32 5.59c-1.107-.113-3.043-.125-4.86-.284-.346-.03.301.785.646.81 1.7.125 4.213 1.236 4.213 1.236s.564-1.704 0-1.762z" stroke-width=".075"/></g></svg>