<svg xmlns="http://www.w3.org/2000/svg" width="301.072" height="540.928" viewBox="0 0 79.659 143.121" version="1.1"><g fill="#8e8b8b" fill-opacity="1" stroke="none" stroke-width="1.182" stroke-linecap="butt" stroke-linejoin="miter" stroke-opacity="1"><path d="M37.805 57.873c-.311 0-1.75.994-3 1.54-1.575.685-5.02 2.212-5.02 2.212.12.308 5.393-1.995 6.429-2.182.597-.108 1.558.735 1.558.735z" fill="#8e8b8b" fill-opacity="1" stroke="none" stroke-width=".137"/><path d="M36.685 141.97c-.457-3.759-.158-10.927-.158-10.927s.679-7.405.722-11.11c.049-4.11-1.84-3.318-2.056-8.79-.48-12.12.414-30.838.414-30.838l2.306-49.196-1.467-15.299s.22-7.629.432-11.245c.084-1.442.643-5.712.826-4.273.139 1.096.629 10.235.629 10.235l.419 7.705L40.429 32.1l.42 24.764.418 37.53s-1.714 9.808-1.457 14.72c.216 4.103 2.506 12.245 2.506 12.245s.719 2.528.434 5.937c0 0-1.035 6.39-.953 6.914.248 1.574.668 2.14 1.186 3.697.377 1.134 1.867 2.833 1.848 3.152-.153 2.582-7.944 2.566-8.145.912z" stroke-width=".313"/><path d="M37.119 76.39s2.63.742 3.39 1.553c1.652 1.756 2.042 5.566 3.82 7.464 5.473 5.844 16.614 11.601 17.287 11.898.645.286 12.055.818 14.52.45 1.404-.21 2.636-2.679 3.523-2.507 0 0-1.821 2.614-3.292 2.918-3.49.72-10.636.3-10.636.3s-2.964.033-4.247-.45c-2.138-.804-6.124-3.348-6.124-3.348l-9.154-6.51-1.975-1.59s-1.271-1.054-1.713-2.134a12.317 12.317 0 0 1-.658-2.207c-.297-1.417-1.014-2.94-2.146-3.627-.811-.492-2.76-.002-2.76-.002zm3.198-44.54s-2.033 1.201-3.254 1.97c-.575.36-1.545 1.052-2.35 1.294-1.273.383-3.586.298-4.956.594-1.745.377-4.013 1.427-4.013 1.427s-3.07 1.7-5.117 2.294c-3.893 1.13-8.2 1.88-12.584 2.238-2.592.212-8.47-.26-8.018.017 0 0 4.109.412 6.336.414 1.022 0 2.12-.04 3.338-.18 3.499-.4 7.62-1.007 10.732-1.918.878-.256 1.63-.51 2.447-.764.824-.258 3.916-2.262 6.912-2.999 1.54-.378 4.494-.128 5.079-.33 2.342-.812 5.344-2.46 5.344-2.46zm8.064 8.488s-.516-.268-.533-.99c-.007-.34-.067-.959.07-1.288.219-.522 1.055-1.035 1.355-1.532.383-.632.563-1.764.563-1.764s.088-1.687.45-2.513c.69-1.57 1.736-3.032 3.028-4.294.764-.746 3.034-1.91 2.724-1.954 0 0-1.634.768-2.393 1.307-.35.248-.7.537-1.037.91-.967 1.07-2.03 2.406-2.577 3.666-.154.355-.268.68-.402 1.018-.136.342-.06 2.204-.666 3.34-.311.582-1.46 1.16-1.544 1.414-.341 1.018-.701 3.212-.701 3.212zm-9.873 51.038c3.09.706 2.91.866 3.53 1.72 1.658 2.286 4.387 5.865 6.638 8.728.68.865 2.73 3.623 3.354 4.012 1.47.914 3.289.144 5.865.353 2.035.164-5.748.623-6.11.33-2.068-1.664-4.645-5.46-6.06-7.274-2.12-2.719-2.283-3.593-4.548-5.488-.958-.802-2.67-.794-2.67-.794zM37.312 83.4s-2.264 1.041-3.295 2.434c-1.31 1.77-3.533 7.044-5.83 10.888-.825 1.38-2.558 4.766-3.947 6.072-.535.503-1.36.882-1.83 1.203-.862.59-1.948.914-2.681 1.264-1.225.584-2.312.303-3.318 1.184-.558.488-1.051 1.094-1.37 2.136-.183.6 1.26-1.455 1.94-1.587 2.562-.495 5.116-1.182 7.43-2.542 2.2-1.293 3.748-5.798 5.66-9.19 1.353-2.398 2.637-5.997 4.16-7.665.92-1.006 2.984-1.146 2.984-1.146z" stroke-width=".313"/><path d="M38.992 86.565s-2.3 1.11-3.786 1.588c-2.074.67-4.37 2.562-6.446 3.223-1.13.36-1.703.2-2.834.556-1.422.447-2.483 1.637-4.001 2.167-1.586.555-5.28 1.056-5.28 1.056s-1.562 1.75-1.944 3.167c-.463 1.72-.167 5.835-.167 5.835s.36-3.895 1.112-5.668c.404-.956.895-2.01 1.778-2.556 1.098-.679 2.48-.165 3.834-.556.77-.222 2.39-.667 2.39-.667s-1.057 1.81-1.78 2.557c-1.011 1.046-3.5 2.611-3.5 2.611s-5.45 4.402-6.78 6.446c-.816 1.257 5.947-4.5 5.947-4.5s3.776-2.155 5.446-3.89c1.137-1.183 3.11-4.113 3.11-4.113s3.498-.357 4.78-.889c1.52-.63 2.03-2.32 3.334-2.667 1.65-.438 4.303 1.111 4.303 1.111zm-1.837-13.094s-1.824 2.3-3.1 2.93c-1.17.578-3.99 1.122-3.99 1.122s-1.371 2.198-2.43 2.868c-1.563.99-6.172 1.933-6.172 1.933s-3.59 1.67-4.863 2.868c-1.321 1.241 2.61-1.499 4.925-2.307 2.135-.746 4.602-.83 6.484-1.995 1.127-.698 1.406-2.02 2.556-2.68.954-.549 2.337-.314 3.242-.624.85-.292.859-.638 1.683-.998.5-.22 1.629-.198 1.629-.198zm1.866 49.577c-.322-.065-2.982-.924-4.397-.658-.486.091-.87.458-1.276.4-1.613-.233-2.576-.27-3.375-.616-.938-.407-2.1-3.25-1.561-2.444.485.728.877 1.583 1.588 2.011.882.53 2.147.728 3.17.498.424-.095.978-.38.893-.705a6.011 6.011 0 0 0-.797-1.838c-.198-.304-1.238-.183-1.536-.482-.578-.58-2.333-2.678-1.618-2.108.453.36 1.052 1.43 1.93 1.91.432.236.945.066 1.357.406.56.463 1.105 1.816 1.749 2.281.458.332 1.407.171 1.407.171l1.686-.194zm-.653-81.653s-1.932 3.75-3.144 4.646c-.56.415-1.458.018-2.057.374-1.055.627-1.734 2.311-2.775 2.962-1.59.993-3.423.75-5.112 1.06-1.197.22-2.31.673-3.43.405-.8-.192-2.15-1.185-2.15-1.185-.626.49.996 1.288 1.777 1.59.835.322 6.952-.592 6.952-.592s1.62-.332 2.338-.717c1.21-.649 1.552-2.016 2.71-2.712.594-.356 2.184-.312 2.184-.312.415-.29 3.06-.06 2.704-.814zm-.753 19.973s-3.498.083-5.18.507c-1.88.473-3.427 2.344-5.361 2.244-1.56-.08-2.608-1.834-4.115-2.244-1.264-.344-2.685.29-3.928-.125-1.132-.378-2.118-1.574-2.93-2.057-.998-.595 1.402 1.956 2.43 2.493.898.47 2.994.5 2.994.5s-.853.482-1.122.872c-.36.52-.645 1.183-.561 1.808.107.806 1.309 2.057 1.309 2.057.635-.317-.767-1.285-.748-1.995.013-.52.623-1.434.623-1.434s.943-.96 1.559-.997c1.52-.09 2.594 1.88 4.114 1.995 2.17.164 4.084-1.607 6.235-1.933.945-.143 1.968-.324 2.868 0 .626.226 1.537 1.273 1.537 1.273z" stroke-width=".313"/><path d="M37.629 42.708s5.784-1.127 8.57-2.02c3.288-1.054 6.477-2.393 9.544-3.92 2.212-1.1 4.813-2.122 6.626-3.736 2.162-1.925 4.845-6.32 4.988-6.958.096-.426-.125-5.29.115-5.314 0 0 .045 1.773.083 2.616.026.57-.007 1.614.15 1.617.4.01 1.045-.553 1.213-1.016.115-.314-.338-.88-.24-.99.095-.103.499.53.43.932-.108.638-.978 1.032-1.29 1.61-.111.206-.052.465-.14.683-.494 1.225-2.214 3.244-2.126 3.39.22.367.979.058 1.343-.158.624-.368.792-1.398 1.436-1.707.362-.173.706-.096.9.062 0 0-.55-.09-.831.104-.55.378-.701 1.366-1.302 1.764-.387.256-.888.137-1.405.443-1.25.743-1.872 2.452-2.913 3.436-.94.89-3.291 2.147-3.291 2.147s.92.726 1.466.69c1.084-.074 1.893-1.036 2.67-1.744.595-.542 1.06-1.597 1.477-1.875.766-.51-.72 1.663-1.364 2.303-.76.757-1.627 1.57-2.808 1.678-.724.067-1.23-.602-2.017-.573-1.906.07-3.572 1.577-5.2 2.535-.292.172-.272.663-.702.713-.296.034-.452-.327-.745-.27-.984.19-3.945 2.228-6.095 2.97-1.38.475-2.888.535-4.297.924-.72.2-2.114.72-2.114.72zm-.562 29.176s3.386 1.536 5.202 1.675c1.484.114 2.984-.274 4.409-.705 2.97-.9 6.04-1.94 8.464-3.88 2.16-1.73 4.932-6.482 5.025-6.612 1.48-2.062-2.694 5.056-4.8 6.993-.94.864-3.311 2-3.311 2s1.63-.166 2.425-.353c1.37-.323 4.003-1.354 4.003-1.354.775-.093-3.098 1.527-4.753 1.971-.83.223-1.727.124-2.557.353-1.815.5-3.392 1.682-5.202 2.204-1.23.355-2.512.68-3.79.617-1.731-.083-5.027-1.322-5.027-1.322zm-.621-56.074c.225-.104 4.712-5.18 6.965-7.74 1.083-1.23 2-2.51 3.034-3.662 1.93-2.148-1.933 2.858-2.95 4.158-1.644 2.104-3.482 3.54-5.083 5.884-.677.991-1.854 3.348-1.854 3.348zm2.745 6.88s-8.953-6.758-9.053-5.817c0 0 4.102 3.132 5.527 4.406 1.689 1.51 3.79 3.968 3.79 3.968z" stroke-width=".313"/><g stroke-width=".313"><path d="M37.906 27.348s2.476.37 3.618.747c1.275.421 2.138 1.54 3.526 1.668 1.12.104 2.088-.71 3.212-.784.943-.06 1.872.402 2.809.302.853-.09 1.707-.62 2.346-.797.785-.216-1.247.887-2.047 1.07-.697.16-2.192-.02-2.192-.02s.545.332.687.56c.189.303.307.675.168.993-.18.41-1.193.948-1.193.948-.412-.224.709-.597.786-.968.057-.272-.26-.804-.26-.804s-.548-.588-.981-.665c-1.07-.189-2.085.736-3.18.654-1.564-.117-2.7-1.217-4.187-1.588-.654-.162-1.358-.352-2.04-.267-.473.058-1.254.518-1.254.518z"/><path d="M44.376 29.683S46.9 27.048 46.6 26.98c0 0-1.168 1.205-1.634 1.617-.552.488-1.426 1.074-1.426 1.074z"/></g><g stroke-width=".317"><path d="M40.216 113.251s1.805 1.663 2.845 1.96c1.122.32 3.21-.083 3.806-.059.803.033-2.264 1.095-3.344 1.04-.99-.054-2.96-1.376-2.96-1.376z"/><path d="M43.972 116.05s.897-.142 1.326.086c.463.245.735.547.982.69.282.16-.136-.43-.53-.755-.36-.299-1.33-.462-1.33-.462z"/></g><path d="M37.702 98.893c1.156-.496 3.18-.549 5.083-1.243.36-.13-.317 3.44-.678 3.551-1.776.544-4.405 5.416-4.405 5.416s-.59-7.47 0-7.724z" stroke-width=".313"/></g></svg>